M48
; DRILL file KiCad 10.0.1 date 2026-04-18T16:11:39
; FORMAT={-:-/ absolute / metric / decimal}
; #@! TF.CreationDate,2026-04-18T16:11:39+02:00
; #@! TF.GenerationSoftware,Kicad,Pcbnew,10.0.1
; #@! TF.FileFunction,MixedPlating,1,2
FMAT,2
METRIC
; #@! TA.AperFunction,Plated,PTH,ComponentDrill
T1C0.750
; #@! TA.AperFunction,Plated,PTH,ComponentDrill
T2C0.800
; #@! TA.AperFunction,Plated,PTH,ComponentDrill
T3C0.900
; #@! TA.AperFunction,Plated,PTH,ComponentDrill
T4C1.000
; #@! TA.AperFunction,Plated,PTH,ComponentDrill
T5C1.100
; #@! TA.AperFunction,Plated,PTH,ComponentDrill
T6C1.300
; #@! TA.AperFunction,NonPlated,NPTH,ComponentDrill
T7C3.200
%
G90
G05
T1
X24.0Y-64.0
X25.27Y-64.0
X26.54Y-64.0
X64.0Y-18.5
X65.27Y-18.5
X66.54Y-18.5
X80.0Y-47.0
X81.27Y-47.0
X82.54Y-47.0
T2
X16.0Y-64.0
X22.0Y-15.5
X22.0Y-32.0
X26.16Y-64.0
X32.0Y-64.0
X32.16Y-15.5
X32.16Y-32.0
X33.0Y-32.0
X33.0Y-34.54
X39.62Y-64.0
X40.62Y-32.0
X40.62Y-34.54
X43.0Y-18.5
X43.0Y-23.58
X44.0Y-32.0
X50.0Y-47.0
X50.0Y-53.0
X50.62Y-18.5
X50.62Y-23.58
X54.0Y-18.5
X54.16Y-32.0
X55.0Y-53.0
X56.0Y-36.0
X56.0Y-38.54
X56.0Y-41.08
X56.0Y-43.62
X56.0Y-46.16
X56.0Y-48.7
X56.0Y-51.24
X57.5Y-18.5
X60.16Y-47.0
X63.62Y-36.0
X63.62Y-38.54
X63.62Y-41.08
X63.62Y-43.62
X63.62Y-46.16
X63.62Y-48.7
X63.62Y-51.24
X64.0Y-47.0
X64.0Y-53.0
X65.0Y-26.34
X65.0Y-32.0
X65.0Y-36.5
X67.5Y-32.0
X68.0Y-18.5
X69.0Y-53.0
X72.0Y-47.0
X73.0Y-18.5
X74.16Y-47.0
X76.0Y-27.84
X76.0Y-38.0
X80.0Y-53.5
X82.16Y-47.0
X87.62Y-53.5
T3
X76.0Y-32.0
X78.54Y-32.0
T4
X8.0Y-64.0
X8.0Y-66.54
X18.0Y-48.0
X18.0Y-50.54
X18.0Y-58.16
X23.08Y-48.0
X23.08Y-50.54
X23.08Y-58.16
X44.0Y-64.0
X44.0Y-66.54
X44.0Y-74.16
X49.08Y-64.0
X49.08Y-66.54
X49.08Y-74.16
X56.0Y-64.0
X56.0Y-66.54
X80.0Y-18.0
X80.0Y-20.54
T5
X33.0Y-8.34
X33.0Y-18.5
T6
X8.0Y-13.0
X8.0Y-18.0
X30.0Y-43.0
X30.0Y-48.0
T7
X4.0Y-4.0
X4.0Y-74.0
X88.0Y-4.0
X88.0Y-74.0
M30
