%TF.GenerationSoftware,KiCad,Pcbnew,10.0.1*%
%TF.CreationDate,2026-04-18T16:11:39+02:00*%
%TF.ProjectId,fermax_diy,6665726d-6178-45f6-9469-792e6b696361,rev?*%
%TF.SameCoordinates,Original*%
%TF.FileFunction,Legend,Top*%
%TF.FilePolarity,Positive*%
%FSLAX46Y46*%
G04 Gerber Fmt 4.6, Leading zero omitted, Abs format (unit mm)*
G04 Created by KiCad (PCBNEW 10.0.1) date 2026-04-18 16:11:39*
%MOMM*%
%LPD*%
G01*
G04 APERTURE LIST*
%ADD10C,0.062500*%
%ADD11C,0.075000*%
%ADD12C,0.087500*%
%ADD13C,0.112500*%
%ADD14C,0.137500*%
%ADD15C,0.150000*%
%ADD16C,0.120000*%
G04 APERTURE END LIST*
D10*
X4988096Y-65228059D02*
X4988096Y-65585202D01*
X4988096Y-65585202D02*
X4964287Y-65656630D01*
X4964287Y-65656630D02*
X4916668Y-65704250D01*
X4916668Y-65704250D02*
X4845239Y-65728059D01*
X4845239Y-65728059D02*
X4797620Y-65728059D01*
X5226191Y-65728059D02*
X5226191Y-65228059D01*
X5226191Y-65228059D02*
X5416667Y-65228059D01*
X5416667Y-65228059D02*
X5464286Y-65251869D01*
X5464286Y-65251869D02*
X5488096Y-65275678D01*
X5488096Y-65275678D02*
X5511905Y-65323297D01*
X5511905Y-65323297D02*
X5511905Y-65394726D01*
X5511905Y-65394726D02*
X5488096Y-65442345D01*
X5488096Y-65442345D02*
X5464286Y-65466154D01*
X5464286Y-65466154D02*
X5416667Y-65489964D01*
X5416667Y-65489964D02*
X5226191Y-65489964D01*
X5988096Y-65728059D02*
X5702382Y-65728059D01*
X5845239Y-65728059D02*
X5845239Y-65228059D01*
X5845239Y-65228059D02*
X5797620Y-65299488D01*
X5797620Y-65299488D02*
X5750001Y-65347107D01*
X5750001Y-65347107D02*
X5702382Y-65370916D01*
X6583333Y-65728059D02*
X6583333Y-65228059D01*
X6583333Y-65228059D02*
X6773809Y-65228059D01*
X6773809Y-65228059D02*
X6821428Y-65251869D01*
X6821428Y-65251869D02*
X6845238Y-65275678D01*
X6845238Y-65275678D02*
X6869047Y-65323297D01*
X6869047Y-65323297D02*
X6869047Y-65394726D01*
X6869047Y-65394726D02*
X6845238Y-65442345D01*
X6845238Y-65442345D02*
X6821428Y-65466154D01*
X6821428Y-65466154D02*
X6773809Y-65489964D01*
X6773809Y-65489964D02*
X6583333Y-65489964D01*
X7345238Y-65728059D02*
X7059524Y-65728059D01*
X7202381Y-65728059D02*
X7202381Y-65228059D01*
X7202381Y-65228059D02*
X7154762Y-65299488D01*
X7154762Y-65299488D02*
X7107143Y-65347107D01*
X7107143Y-65347107D02*
X7059524Y-65370916D01*
X7559523Y-65537583D02*
X7940476Y-65537583D01*
X8178571Y-65466154D02*
X8345238Y-65466154D01*
X8416666Y-65728059D02*
X8178571Y-65728059D01*
X8178571Y-65728059D02*
X8178571Y-65228059D01*
X8178571Y-65228059D02*
X8416666Y-65228059D01*
X8630952Y-65728059D02*
X8630952Y-65228059D01*
X8630952Y-65228059D02*
X8916666Y-65728059D01*
X8916666Y-65728059D02*
X8916666Y-65228059D01*
X9678571Y-65918535D02*
X9654762Y-65894726D01*
X9654762Y-65894726D02*
X9607143Y-65823297D01*
X9607143Y-65823297D02*
X9583333Y-65775678D01*
X9583333Y-65775678D02*
X9559524Y-65704250D01*
X9559524Y-65704250D02*
X9535714Y-65585202D01*
X9535714Y-65585202D02*
X9535714Y-65489964D01*
X9535714Y-65489964D02*
X9559524Y-65370916D01*
X9559524Y-65370916D02*
X9583333Y-65299488D01*
X9583333Y-65299488D02*
X9607143Y-65251869D01*
X9607143Y-65251869D02*
X9654762Y-65180440D01*
X9654762Y-65180440D02*
X9678571Y-65156630D01*
X9940476Y-65728059D02*
X9892857Y-65704250D01*
X9892857Y-65704250D02*
X9869047Y-65680440D01*
X9869047Y-65680440D02*
X9845238Y-65632821D01*
X9845238Y-65632821D02*
X9845238Y-65489964D01*
X9845238Y-65489964D02*
X9869047Y-65442345D01*
X9869047Y-65442345D02*
X9892857Y-65418535D01*
X9892857Y-65418535D02*
X9940476Y-65394726D01*
X9940476Y-65394726D02*
X10011904Y-65394726D01*
X10011904Y-65394726D02*
X10059523Y-65418535D01*
X10059523Y-65418535D02*
X10083333Y-65442345D01*
X10083333Y-65442345D02*
X10107142Y-65489964D01*
X10107142Y-65489964D02*
X10107142Y-65632821D01*
X10107142Y-65632821D02*
X10083333Y-65680440D01*
X10083333Y-65680440D02*
X10059523Y-65704250D01*
X10059523Y-65704250D02*
X10011904Y-65728059D01*
X10011904Y-65728059D02*
X9940476Y-65728059D01*
X10321428Y-65394726D02*
X10321428Y-65894726D01*
X10321428Y-65418535D02*
X10369047Y-65394726D01*
X10369047Y-65394726D02*
X10464285Y-65394726D01*
X10464285Y-65394726D02*
X10511904Y-65418535D01*
X10511904Y-65418535D02*
X10535714Y-65442345D01*
X10535714Y-65442345D02*
X10559523Y-65489964D01*
X10559523Y-65489964D02*
X10559523Y-65632821D01*
X10559523Y-65632821D02*
X10535714Y-65680440D01*
X10535714Y-65680440D02*
X10511904Y-65704250D01*
X10511904Y-65704250D02*
X10464285Y-65728059D01*
X10464285Y-65728059D02*
X10369047Y-65728059D01*
X10369047Y-65728059D02*
X10321428Y-65704250D01*
X10702381Y-65394726D02*
X10892857Y-65394726D01*
X10773809Y-65228059D02*
X10773809Y-65656630D01*
X10773809Y-65656630D02*
X10797619Y-65704250D01*
X10797619Y-65704250D02*
X10845238Y-65728059D01*
X10845238Y-65728059D02*
X10892857Y-65728059D01*
X11011904Y-65918535D02*
X11035714Y-65894726D01*
X11035714Y-65894726D02*
X11083333Y-65823297D01*
X11083333Y-65823297D02*
X11107142Y-65775678D01*
X11107142Y-65775678D02*
X11130952Y-65704250D01*
X11130952Y-65704250D02*
X11154761Y-65585202D01*
X11154761Y-65585202D02*
X11154761Y-65489964D01*
X11154761Y-65489964D02*
X11130952Y-65370916D01*
X11130952Y-65370916D02*
X11107142Y-65299488D01*
X11107142Y-65299488D02*
X11083333Y-65251869D01*
X11083333Y-65251869D02*
X11035714Y-65180440D01*
X11035714Y-65180440D02*
X11011904Y-65156630D01*
X14797619Y-65728059D02*
X14630953Y-65489964D01*
X14511905Y-65728059D02*
X14511905Y-65228059D01*
X14511905Y-65228059D02*
X14702381Y-65228059D01*
X14702381Y-65228059D02*
X14750000Y-65251869D01*
X14750000Y-65251869D02*
X14773810Y-65275678D01*
X14773810Y-65275678D02*
X14797619Y-65323297D01*
X14797619Y-65323297D02*
X14797619Y-65394726D01*
X14797619Y-65394726D02*
X14773810Y-65442345D01*
X14773810Y-65442345D02*
X14750000Y-65466154D01*
X14750000Y-65466154D02*
X14702381Y-65489964D01*
X14702381Y-65489964D02*
X14511905Y-65489964D01*
X15035715Y-65728059D02*
X15130953Y-65728059D01*
X15130953Y-65728059D02*
X15178572Y-65704250D01*
X15178572Y-65704250D02*
X15202381Y-65680440D01*
X15202381Y-65680440D02*
X15250000Y-65609011D01*
X15250000Y-65609011D02*
X15273810Y-65513773D01*
X15273810Y-65513773D02*
X15273810Y-65323297D01*
X15273810Y-65323297D02*
X15250000Y-65275678D01*
X15250000Y-65275678D02*
X15226191Y-65251869D01*
X15226191Y-65251869D02*
X15178572Y-65228059D01*
X15178572Y-65228059D02*
X15083334Y-65228059D01*
X15083334Y-65228059D02*
X15035715Y-65251869D01*
X15035715Y-65251869D02*
X15011905Y-65275678D01*
X15011905Y-65275678D02*
X14988096Y-65323297D01*
X14988096Y-65323297D02*
X14988096Y-65442345D01*
X14988096Y-65442345D02*
X15011905Y-65489964D01*
X15011905Y-65489964D02*
X15035715Y-65513773D01*
X15035715Y-65513773D02*
X15083334Y-65537583D01*
X15083334Y-65537583D02*
X15178572Y-65537583D01*
X15178572Y-65537583D02*
X15226191Y-65513773D01*
X15226191Y-65513773D02*
X15250000Y-65489964D01*
X15250000Y-65489964D02*
X15273810Y-65442345D01*
X16011904Y-65918535D02*
X15988095Y-65894726D01*
X15988095Y-65894726D02*
X15940476Y-65823297D01*
X15940476Y-65823297D02*
X15916666Y-65775678D01*
X15916666Y-65775678D02*
X15892857Y-65704250D01*
X15892857Y-65704250D02*
X15869047Y-65585202D01*
X15869047Y-65585202D02*
X15869047Y-65489964D01*
X15869047Y-65489964D02*
X15892857Y-65370916D01*
X15892857Y-65370916D02*
X15916666Y-65299488D01*
X15916666Y-65299488D02*
X15940476Y-65251869D01*
X15940476Y-65251869D02*
X15988095Y-65180440D01*
X15988095Y-65180440D02*
X16011904Y-65156630D01*
X16273809Y-65728059D02*
X16226190Y-65704250D01*
X16226190Y-65704250D02*
X16202380Y-65680440D01*
X16202380Y-65680440D02*
X16178571Y-65632821D01*
X16178571Y-65632821D02*
X16178571Y-65489964D01*
X16178571Y-65489964D02*
X16202380Y-65442345D01*
X16202380Y-65442345D02*
X16226190Y-65418535D01*
X16226190Y-65418535D02*
X16273809Y-65394726D01*
X16273809Y-65394726D02*
X16345237Y-65394726D01*
X16345237Y-65394726D02*
X16392856Y-65418535D01*
X16392856Y-65418535D02*
X16416666Y-65442345D01*
X16416666Y-65442345D02*
X16440475Y-65489964D01*
X16440475Y-65489964D02*
X16440475Y-65632821D01*
X16440475Y-65632821D02*
X16416666Y-65680440D01*
X16416666Y-65680440D02*
X16392856Y-65704250D01*
X16392856Y-65704250D02*
X16345237Y-65728059D01*
X16345237Y-65728059D02*
X16273809Y-65728059D01*
X16654761Y-65394726D02*
X16654761Y-65894726D01*
X16654761Y-65418535D02*
X16702380Y-65394726D01*
X16702380Y-65394726D02*
X16797618Y-65394726D01*
X16797618Y-65394726D02*
X16845237Y-65418535D01*
X16845237Y-65418535D02*
X16869047Y-65442345D01*
X16869047Y-65442345D02*
X16892856Y-65489964D01*
X16892856Y-65489964D02*
X16892856Y-65632821D01*
X16892856Y-65632821D02*
X16869047Y-65680440D01*
X16869047Y-65680440D02*
X16845237Y-65704250D01*
X16845237Y-65704250D02*
X16797618Y-65728059D01*
X16797618Y-65728059D02*
X16702380Y-65728059D01*
X16702380Y-65728059D02*
X16654761Y-65704250D01*
X17035714Y-65394726D02*
X17226190Y-65394726D01*
X17107142Y-65228059D02*
X17107142Y-65656630D01*
X17107142Y-65656630D02*
X17130952Y-65704250D01*
X17130952Y-65704250D02*
X17178571Y-65728059D01*
X17178571Y-65728059D02*
X17226190Y-65728059D01*
X17345237Y-65918535D02*
X17369047Y-65894726D01*
X17369047Y-65894726D02*
X17416666Y-65823297D01*
X17416666Y-65823297D02*
X17440475Y-65775678D01*
X17440475Y-65775678D02*
X17464285Y-65704250D01*
X17464285Y-65704250D02*
X17488094Y-65585202D01*
X17488094Y-65585202D02*
X17488094Y-65489964D01*
X17488094Y-65489964D02*
X17464285Y-65370916D01*
X17464285Y-65370916D02*
X17440475Y-65299488D01*
X17440475Y-65299488D02*
X17416666Y-65251869D01*
X17416666Y-65251869D02*
X17369047Y-65180440D01*
X17369047Y-65180440D02*
X17345237Y-65156630D01*
X22833333Y-65775678D02*
X22785714Y-65751869D01*
X22785714Y-65751869D02*
X22738095Y-65704250D01*
X22738095Y-65704250D02*
X22666667Y-65632821D01*
X22666667Y-65632821D02*
X22619048Y-65609011D01*
X22619048Y-65609011D02*
X22571429Y-65609011D01*
X22595238Y-65728059D02*
X22547619Y-65704250D01*
X22547619Y-65704250D02*
X22500000Y-65656630D01*
X22500000Y-65656630D02*
X22476191Y-65561392D01*
X22476191Y-65561392D02*
X22476191Y-65394726D01*
X22476191Y-65394726D02*
X22500000Y-65299488D01*
X22500000Y-65299488D02*
X22547619Y-65251869D01*
X22547619Y-65251869D02*
X22595238Y-65228059D01*
X22595238Y-65228059D02*
X22690476Y-65228059D01*
X22690476Y-65228059D02*
X22738095Y-65251869D01*
X22738095Y-65251869D02*
X22785714Y-65299488D01*
X22785714Y-65299488D02*
X22809524Y-65394726D01*
X22809524Y-65394726D02*
X22809524Y-65561392D01*
X22809524Y-65561392D02*
X22785714Y-65656630D01*
X22785714Y-65656630D02*
X22738095Y-65704250D01*
X22738095Y-65704250D02*
X22690476Y-65728059D01*
X22690476Y-65728059D02*
X22595238Y-65728059D01*
X23000001Y-65275678D02*
X23023810Y-65251869D01*
X23023810Y-65251869D02*
X23071429Y-65228059D01*
X23071429Y-65228059D02*
X23190477Y-65228059D01*
X23190477Y-65228059D02*
X23238096Y-65251869D01*
X23238096Y-65251869D02*
X23261905Y-65275678D01*
X23261905Y-65275678D02*
X23285715Y-65323297D01*
X23285715Y-65323297D02*
X23285715Y-65370916D01*
X23285715Y-65370916D02*
X23261905Y-65442345D01*
X23261905Y-65442345D02*
X22976191Y-65728059D01*
X22976191Y-65728059D02*
X23285715Y-65728059D01*
X24023809Y-65918535D02*
X24000000Y-65894726D01*
X24000000Y-65894726D02*
X23952381Y-65823297D01*
X23952381Y-65823297D02*
X23928571Y-65775678D01*
X23928571Y-65775678D02*
X23904762Y-65704250D01*
X23904762Y-65704250D02*
X23880952Y-65585202D01*
X23880952Y-65585202D02*
X23880952Y-65489964D01*
X23880952Y-65489964D02*
X23904762Y-65370916D01*
X23904762Y-65370916D02*
X23928571Y-65299488D01*
X23928571Y-65299488D02*
X23952381Y-65251869D01*
X23952381Y-65251869D02*
X24000000Y-65180440D01*
X24000000Y-65180440D02*
X24023809Y-65156630D01*
X24285714Y-65728059D02*
X24238095Y-65704250D01*
X24238095Y-65704250D02*
X24214285Y-65680440D01*
X24214285Y-65680440D02*
X24190476Y-65632821D01*
X24190476Y-65632821D02*
X24190476Y-65489964D01*
X24190476Y-65489964D02*
X24214285Y-65442345D01*
X24214285Y-65442345D02*
X24238095Y-65418535D01*
X24238095Y-65418535D02*
X24285714Y-65394726D01*
X24285714Y-65394726D02*
X24357142Y-65394726D01*
X24357142Y-65394726D02*
X24404761Y-65418535D01*
X24404761Y-65418535D02*
X24428571Y-65442345D01*
X24428571Y-65442345D02*
X24452380Y-65489964D01*
X24452380Y-65489964D02*
X24452380Y-65632821D01*
X24452380Y-65632821D02*
X24428571Y-65680440D01*
X24428571Y-65680440D02*
X24404761Y-65704250D01*
X24404761Y-65704250D02*
X24357142Y-65728059D01*
X24357142Y-65728059D02*
X24285714Y-65728059D01*
X24666666Y-65394726D02*
X24666666Y-65894726D01*
X24666666Y-65418535D02*
X24714285Y-65394726D01*
X24714285Y-65394726D02*
X24809523Y-65394726D01*
X24809523Y-65394726D02*
X24857142Y-65418535D01*
X24857142Y-65418535D02*
X24880952Y-65442345D01*
X24880952Y-65442345D02*
X24904761Y-65489964D01*
X24904761Y-65489964D02*
X24904761Y-65632821D01*
X24904761Y-65632821D02*
X24880952Y-65680440D01*
X24880952Y-65680440D02*
X24857142Y-65704250D01*
X24857142Y-65704250D02*
X24809523Y-65728059D01*
X24809523Y-65728059D02*
X24714285Y-65728059D01*
X24714285Y-65728059D02*
X24666666Y-65704250D01*
X25047619Y-65394726D02*
X25238095Y-65394726D01*
X25119047Y-65228059D02*
X25119047Y-65656630D01*
X25119047Y-65656630D02*
X25142857Y-65704250D01*
X25142857Y-65704250D02*
X25190476Y-65728059D01*
X25190476Y-65728059D02*
X25238095Y-65728059D01*
X25357142Y-65918535D02*
X25380952Y-65894726D01*
X25380952Y-65894726D02*
X25428571Y-65823297D01*
X25428571Y-65823297D02*
X25452380Y-65775678D01*
X25452380Y-65775678D02*
X25476190Y-65704250D01*
X25476190Y-65704250D02*
X25499999Y-65585202D01*
X25499999Y-65585202D02*
X25499999Y-65489964D01*
X25499999Y-65489964D02*
X25476190Y-65370916D01*
X25476190Y-65370916D02*
X25452380Y-65299488D01*
X25452380Y-65299488D02*
X25428571Y-65251869D01*
X25428571Y-65251869D02*
X25380952Y-65180440D01*
X25380952Y-65180440D02*
X25357142Y-65156630D01*
X30511905Y-65728059D02*
X30511905Y-65228059D01*
X30511905Y-65228059D02*
X30630953Y-65228059D01*
X30630953Y-65228059D02*
X30702381Y-65251869D01*
X30702381Y-65251869D02*
X30750000Y-65299488D01*
X30750000Y-65299488D02*
X30773810Y-65347107D01*
X30773810Y-65347107D02*
X30797619Y-65442345D01*
X30797619Y-65442345D02*
X30797619Y-65513773D01*
X30797619Y-65513773D02*
X30773810Y-65609011D01*
X30773810Y-65609011D02*
X30750000Y-65656630D01*
X30750000Y-65656630D02*
X30702381Y-65704250D01*
X30702381Y-65704250D02*
X30630953Y-65728059D01*
X30630953Y-65728059D02*
X30511905Y-65728059D01*
X30964286Y-65228059D02*
X31273810Y-65228059D01*
X31273810Y-65228059D02*
X31107143Y-65418535D01*
X31107143Y-65418535D02*
X31178572Y-65418535D01*
X31178572Y-65418535D02*
X31226191Y-65442345D01*
X31226191Y-65442345D02*
X31250000Y-65466154D01*
X31250000Y-65466154D02*
X31273810Y-65513773D01*
X31273810Y-65513773D02*
X31273810Y-65632821D01*
X31273810Y-65632821D02*
X31250000Y-65680440D01*
X31250000Y-65680440D02*
X31226191Y-65704250D01*
X31226191Y-65704250D02*
X31178572Y-65728059D01*
X31178572Y-65728059D02*
X31035715Y-65728059D01*
X31035715Y-65728059D02*
X30988096Y-65704250D01*
X30988096Y-65704250D02*
X30964286Y-65680440D01*
X32011904Y-65918535D02*
X31988095Y-65894726D01*
X31988095Y-65894726D02*
X31940476Y-65823297D01*
X31940476Y-65823297D02*
X31916666Y-65775678D01*
X31916666Y-65775678D02*
X31892857Y-65704250D01*
X31892857Y-65704250D02*
X31869047Y-65585202D01*
X31869047Y-65585202D02*
X31869047Y-65489964D01*
X31869047Y-65489964D02*
X31892857Y-65370916D01*
X31892857Y-65370916D02*
X31916666Y-65299488D01*
X31916666Y-65299488D02*
X31940476Y-65251869D01*
X31940476Y-65251869D02*
X31988095Y-65180440D01*
X31988095Y-65180440D02*
X32011904Y-65156630D01*
X32273809Y-65728059D02*
X32226190Y-65704250D01*
X32226190Y-65704250D02*
X32202380Y-65680440D01*
X32202380Y-65680440D02*
X32178571Y-65632821D01*
X32178571Y-65632821D02*
X32178571Y-65489964D01*
X32178571Y-65489964D02*
X32202380Y-65442345D01*
X32202380Y-65442345D02*
X32226190Y-65418535D01*
X32226190Y-65418535D02*
X32273809Y-65394726D01*
X32273809Y-65394726D02*
X32345237Y-65394726D01*
X32345237Y-65394726D02*
X32392856Y-65418535D01*
X32392856Y-65418535D02*
X32416666Y-65442345D01*
X32416666Y-65442345D02*
X32440475Y-65489964D01*
X32440475Y-65489964D02*
X32440475Y-65632821D01*
X32440475Y-65632821D02*
X32416666Y-65680440D01*
X32416666Y-65680440D02*
X32392856Y-65704250D01*
X32392856Y-65704250D02*
X32345237Y-65728059D01*
X32345237Y-65728059D02*
X32273809Y-65728059D01*
X32654761Y-65394726D02*
X32654761Y-65894726D01*
X32654761Y-65418535D02*
X32702380Y-65394726D01*
X32702380Y-65394726D02*
X32797618Y-65394726D01*
X32797618Y-65394726D02*
X32845237Y-65418535D01*
X32845237Y-65418535D02*
X32869047Y-65442345D01*
X32869047Y-65442345D02*
X32892856Y-65489964D01*
X32892856Y-65489964D02*
X32892856Y-65632821D01*
X32892856Y-65632821D02*
X32869047Y-65680440D01*
X32869047Y-65680440D02*
X32845237Y-65704250D01*
X32845237Y-65704250D02*
X32797618Y-65728059D01*
X32797618Y-65728059D02*
X32702380Y-65728059D01*
X32702380Y-65728059D02*
X32654761Y-65704250D01*
X33035714Y-65394726D02*
X33226190Y-65394726D01*
X33107142Y-65228059D02*
X33107142Y-65656630D01*
X33107142Y-65656630D02*
X33130952Y-65704250D01*
X33130952Y-65704250D02*
X33178571Y-65728059D01*
X33178571Y-65728059D02*
X33226190Y-65728059D01*
X33345237Y-65918535D02*
X33369047Y-65894726D01*
X33369047Y-65894726D02*
X33416666Y-65823297D01*
X33416666Y-65823297D02*
X33440475Y-65775678D01*
X33440475Y-65775678D02*
X33464285Y-65704250D01*
X33464285Y-65704250D02*
X33488094Y-65585202D01*
X33488094Y-65585202D02*
X33488094Y-65489964D01*
X33488094Y-65489964D02*
X33464285Y-65370916D01*
X33464285Y-65370916D02*
X33440475Y-65299488D01*
X33440475Y-65299488D02*
X33416666Y-65251869D01*
X33416666Y-65251869D02*
X33369047Y-65180440D01*
X33369047Y-65180440D02*
X33345237Y-65156630D01*
X41833334Y-65728059D02*
X41833334Y-65228059D01*
X42119048Y-65728059D02*
X41904763Y-65442345D01*
X42119048Y-65228059D02*
X41833334Y-65513773D01*
X42309525Y-65275678D02*
X42333334Y-65251869D01*
X42333334Y-65251869D02*
X42380953Y-65228059D01*
X42380953Y-65228059D02*
X42500001Y-65228059D01*
X42500001Y-65228059D02*
X42547620Y-65251869D01*
X42547620Y-65251869D02*
X42571429Y-65275678D01*
X42571429Y-65275678D02*
X42595239Y-65323297D01*
X42595239Y-65323297D02*
X42595239Y-65370916D01*
X42595239Y-65370916D02*
X42571429Y-65442345D01*
X42571429Y-65442345D02*
X42285715Y-65728059D01*
X42285715Y-65728059D02*
X42595239Y-65728059D01*
X43190476Y-65728059D02*
X43190476Y-65228059D01*
X43190476Y-65228059D02*
X43380952Y-65228059D01*
X43380952Y-65228059D02*
X43428571Y-65251869D01*
X43428571Y-65251869D02*
X43452381Y-65275678D01*
X43452381Y-65275678D02*
X43476190Y-65323297D01*
X43476190Y-65323297D02*
X43476190Y-65394726D01*
X43476190Y-65394726D02*
X43452381Y-65442345D01*
X43452381Y-65442345D02*
X43428571Y-65466154D01*
X43428571Y-65466154D02*
X43380952Y-65489964D01*
X43380952Y-65489964D02*
X43190476Y-65489964D01*
X43952381Y-65728059D02*
X43666667Y-65728059D01*
X43809524Y-65728059D02*
X43809524Y-65228059D01*
X43809524Y-65228059D02*
X43761905Y-65299488D01*
X43761905Y-65299488D02*
X43714286Y-65347107D01*
X43714286Y-65347107D02*
X43666667Y-65370916D01*
X44690475Y-65918535D02*
X44666666Y-65894726D01*
X44666666Y-65894726D02*
X44619047Y-65823297D01*
X44619047Y-65823297D02*
X44595237Y-65775678D01*
X44595237Y-65775678D02*
X44571428Y-65704250D01*
X44571428Y-65704250D02*
X44547618Y-65585202D01*
X44547618Y-65585202D02*
X44547618Y-65489964D01*
X44547618Y-65489964D02*
X44571428Y-65370916D01*
X44571428Y-65370916D02*
X44595237Y-65299488D01*
X44595237Y-65299488D02*
X44619047Y-65251869D01*
X44619047Y-65251869D02*
X44666666Y-65180440D01*
X44666666Y-65180440D02*
X44690475Y-65156630D01*
X44952380Y-65728059D02*
X44904761Y-65704250D01*
X44904761Y-65704250D02*
X44880951Y-65680440D01*
X44880951Y-65680440D02*
X44857142Y-65632821D01*
X44857142Y-65632821D02*
X44857142Y-65489964D01*
X44857142Y-65489964D02*
X44880951Y-65442345D01*
X44880951Y-65442345D02*
X44904761Y-65418535D01*
X44904761Y-65418535D02*
X44952380Y-65394726D01*
X44952380Y-65394726D02*
X45023808Y-65394726D01*
X45023808Y-65394726D02*
X45071427Y-65418535D01*
X45071427Y-65418535D02*
X45095237Y-65442345D01*
X45095237Y-65442345D02*
X45119046Y-65489964D01*
X45119046Y-65489964D02*
X45119046Y-65632821D01*
X45119046Y-65632821D02*
X45095237Y-65680440D01*
X45095237Y-65680440D02*
X45071427Y-65704250D01*
X45071427Y-65704250D02*
X45023808Y-65728059D01*
X45023808Y-65728059D02*
X44952380Y-65728059D01*
X45333332Y-65394726D02*
X45333332Y-65894726D01*
X45333332Y-65418535D02*
X45380951Y-65394726D01*
X45380951Y-65394726D02*
X45476189Y-65394726D01*
X45476189Y-65394726D02*
X45523808Y-65418535D01*
X45523808Y-65418535D02*
X45547618Y-65442345D01*
X45547618Y-65442345D02*
X45571427Y-65489964D01*
X45571427Y-65489964D02*
X45571427Y-65632821D01*
X45571427Y-65632821D02*
X45547618Y-65680440D01*
X45547618Y-65680440D02*
X45523808Y-65704250D01*
X45523808Y-65704250D02*
X45476189Y-65728059D01*
X45476189Y-65728059D02*
X45380951Y-65728059D01*
X45380951Y-65728059D02*
X45333332Y-65704250D01*
X45714285Y-65394726D02*
X45904761Y-65394726D01*
X45785713Y-65228059D02*
X45785713Y-65656630D01*
X45785713Y-65656630D02*
X45809523Y-65704250D01*
X45809523Y-65704250D02*
X45857142Y-65728059D01*
X45857142Y-65728059D02*
X45904761Y-65728059D01*
X46023808Y-65918535D02*
X46047618Y-65894726D01*
X46047618Y-65894726D02*
X46095237Y-65823297D01*
X46095237Y-65823297D02*
X46119046Y-65775678D01*
X46119046Y-65775678D02*
X46142856Y-65704250D01*
X46142856Y-65704250D02*
X46166665Y-65585202D01*
X46166665Y-65585202D02*
X46166665Y-65489964D01*
X46166665Y-65489964D02*
X46142856Y-65370916D01*
X46142856Y-65370916D02*
X46119046Y-65299488D01*
X46119046Y-65299488D02*
X46095237Y-65251869D01*
X46095237Y-65251869D02*
X46047618Y-65180440D01*
X46047618Y-65180440D02*
X46023808Y-65156630D01*
X52845239Y-65228059D02*
X52845239Y-65585202D01*
X52845239Y-65585202D02*
X52821430Y-65656630D01*
X52821430Y-65656630D02*
X52773811Y-65704250D01*
X52773811Y-65704250D02*
X52702382Y-65728059D01*
X52702382Y-65728059D02*
X52654763Y-65728059D01*
X53035715Y-65228059D02*
X53345239Y-65228059D01*
X53345239Y-65228059D02*
X53178572Y-65418535D01*
X53178572Y-65418535D02*
X53250001Y-65418535D01*
X53250001Y-65418535D02*
X53297620Y-65442345D01*
X53297620Y-65442345D02*
X53321429Y-65466154D01*
X53321429Y-65466154D02*
X53345239Y-65513773D01*
X53345239Y-65513773D02*
X53345239Y-65632821D01*
X53345239Y-65632821D02*
X53321429Y-65680440D01*
X53321429Y-65680440D02*
X53297620Y-65704250D01*
X53297620Y-65704250D02*
X53250001Y-65728059D01*
X53250001Y-65728059D02*
X53107144Y-65728059D01*
X53107144Y-65728059D02*
X53059525Y-65704250D01*
X53059525Y-65704250D02*
X53035715Y-65680440D01*
X53940476Y-65728059D02*
X53940476Y-65228059D01*
X53940476Y-65228059D02*
X54130952Y-65228059D01*
X54130952Y-65228059D02*
X54178571Y-65251869D01*
X54178571Y-65251869D02*
X54202381Y-65275678D01*
X54202381Y-65275678D02*
X54226190Y-65323297D01*
X54226190Y-65323297D02*
X54226190Y-65394726D01*
X54226190Y-65394726D02*
X54202381Y-65442345D01*
X54202381Y-65442345D02*
X54178571Y-65466154D01*
X54178571Y-65466154D02*
X54130952Y-65489964D01*
X54130952Y-65489964D02*
X53940476Y-65489964D01*
X54702381Y-65728059D02*
X54416667Y-65728059D01*
X54559524Y-65728059D02*
X54559524Y-65228059D01*
X54559524Y-65228059D02*
X54511905Y-65299488D01*
X54511905Y-65299488D02*
X54464286Y-65347107D01*
X54464286Y-65347107D02*
X54416667Y-65370916D01*
X55369047Y-65728059D02*
X55321428Y-65704250D01*
X55321428Y-65704250D02*
X55297618Y-65656630D01*
X55297618Y-65656630D02*
X55297618Y-65228059D01*
X55749999Y-65704250D02*
X55702380Y-65728059D01*
X55702380Y-65728059D02*
X55607142Y-65728059D01*
X55607142Y-65728059D02*
X55559523Y-65704250D01*
X55559523Y-65704250D02*
X55535714Y-65656630D01*
X55535714Y-65656630D02*
X55535714Y-65466154D01*
X55535714Y-65466154D02*
X55559523Y-65418535D01*
X55559523Y-65418535D02*
X55607142Y-65394726D01*
X55607142Y-65394726D02*
X55702380Y-65394726D01*
X55702380Y-65394726D02*
X55749999Y-65418535D01*
X55749999Y-65418535D02*
X55773809Y-65466154D01*
X55773809Y-65466154D02*
X55773809Y-65513773D01*
X55773809Y-65513773D02*
X55535714Y-65561392D01*
X56202380Y-65728059D02*
X56202380Y-65466154D01*
X56202380Y-65466154D02*
X56178570Y-65418535D01*
X56178570Y-65418535D02*
X56130951Y-65394726D01*
X56130951Y-65394726D02*
X56035713Y-65394726D01*
X56035713Y-65394726D02*
X55988094Y-65418535D01*
X56202380Y-65704250D02*
X56154761Y-65728059D01*
X56154761Y-65728059D02*
X56035713Y-65728059D01*
X56035713Y-65728059D02*
X55988094Y-65704250D01*
X55988094Y-65704250D02*
X55964285Y-65656630D01*
X55964285Y-65656630D02*
X55964285Y-65609011D01*
X55964285Y-65609011D02*
X55988094Y-65561392D01*
X55988094Y-65561392D02*
X56035713Y-65537583D01*
X56035713Y-65537583D02*
X56154761Y-65537583D01*
X56154761Y-65537583D02*
X56202380Y-65513773D01*
X56654761Y-65728059D02*
X56654761Y-65228059D01*
X56654761Y-65704250D02*
X56607142Y-65728059D01*
X56607142Y-65728059D02*
X56511904Y-65728059D01*
X56511904Y-65728059D02*
X56464285Y-65704250D01*
X56464285Y-65704250D02*
X56440475Y-65680440D01*
X56440475Y-65680440D02*
X56416666Y-65632821D01*
X56416666Y-65632821D02*
X56416666Y-65489964D01*
X56416666Y-65489964D02*
X56440475Y-65442345D01*
X56440475Y-65442345D02*
X56464285Y-65418535D01*
X56464285Y-65418535D02*
X56511904Y-65394726D01*
X56511904Y-65394726D02*
X56607142Y-65394726D01*
X56607142Y-65394726D02*
X56654761Y-65418535D01*
X56869047Y-65704250D02*
X56916666Y-65728059D01*
X56916666Y-65728059D02*
X57011904Y-65728059D01*
X57011904Y-65728059D02*
X57059523Y-65704250D01*
X57059523Y-65704250D02*
X57083332Y-65656630D01*
X57083332Y-65656630D02*
X57083332Y-65632821D01*
X57083332Y-65632821D02*
X57059523Y-65585202D01*
X57059523Y-65585202D02*
X57011904Y-65561392D01*
X57011904Y-65561392D02*
X56940475Y-65561392D01*
X56940475Y-65561392D02*
X56892856Y-65537583D01*
X56892856Y-65537583D02*
X56869047Y-65489964D01*
X56869047Y-65489964D02*
X56869047Y-65466154D01*
X56869047Y-65466154D02*
X56892856Y-65418535D01*
X56892856Y-65418535D02*
X56940475Y-65394726D01*
X56940475Y-65394726D02*
X57011904Y-65394726D01*
X57011904Y-65394726D02*
X57059523Y-65418535D01*
X57821427Y-65918535D02*
X57797618Y-65894726D01*
X57797618Y-65894726D02*
X57749999Y-65823297D01*
X57749999Y-65823297D02*
X57726189Y-65775678D01*
X57726189Y-65775678D02*
X57702380Y-65704250D01*
X57702380Y-65704250D02*
X57678570Y-65585202D01*
X57678570Y-65585202D02*
X57678570Y-65489964D01*
X57678570Y-65489964D02*
X57702380Y-65370916D01*
X57702380Y-65370916D02*
X57726189Y-65299488D01*
X57726189Y-65299488D02*
X57749999Y-65251869D01*
X57749999Y-65251869D02*
X57797618Y-65180440D01*
X57797618Y-65180440D02*
X57821427Y-65156630D01*
X58083332Y-65728059D02*
X58035713Y-65704250D01*
X58035713Y-65704250D02*
X58011903Y-65680440D01*
X58011903Y-65680440D02*
X57988094Y-65632821D01*
X57988094Y-65632821D02*
X57988094Y-65489964D01*
X57988094Y-65489964D02*
X58011903Y-65442345D01*
X58011903Y-65442345D02*
X58035713Y-65418535D01*
X58035713Y-65418535D02*
X58083332Y-65394726D01*
X58083332Y-65394726D02*
X58154760Y-65394726D01*
X58154760Y-65394726D02*
X58202379Y-65418535D01*
X58202379Y-65418535D02*
X58226189Y-65442345D01*
X58226189Y-65442345D02*
X58249998Y-65489964D01*
X58249998Y-65489964D02*
X58249998Y-65632821D01*
X58249998Y-65632821D02*
X58226189Y-65680440D01*
X58226189Y-65680440D02*
X58202379Y-65704250D01*
X58202379Y-65704250D02*
X58154760Y-65728059D01*
X58154760Y-65728059D02*
X58083332Y-65728059D01*
X58464284Y-65394726D02*
X58464284Y-65894726D01*
X58464284Y-65418535D02*
X58511903Y-65394726D01*
X58511903Y-65394726D02*
X58607141Y-65394726D01*
X58607141Y-65394726D02*
X58654760Y-65418535D01*
X58654760Y-65418535D02*
X58678570Y-65442345D01*
X58678570Y-65442345D02*
X58702379Y-65489964D01*
X58702379Y-65489964D02*
X58702379Y-65632821D01*
X58702379Y-65632821D02*
X58678570Y-65680440D01*
X58678570Y-65680440D02*
X58654760Y-65704250D01*
X58654760Y-65704250D02*
X58607141Y-65728059D01*
X58607141Y-65728059D02*
X58511903Y-65728059D01*
X58511903Y-65728059D02*
X58464284Y-65704250D01*
X58845237Y-65394726D02*
X59035713Y-65394726D01*
X58916665Y-65228059D02*
X58916665Y-65656630D01*
X58916665Y-65656630D02*
X58940475Y-65704250D01*
X58940475Y-65704250D02*
X58988094Y-65728059D01*
X58988094Y-65728059D02*
X59035713Y-65728059D01*
X59154760Y-65918535D02*
X59178570Y-65894726D01*
X59178570Y-65894726D02*
X59226189Y-65823297D01*
X59226189Y-65823297D02*
X59249998Y-65775678D01*
X59249998Y-65775678D02*
X59273808Y-65704250D01*
X59273808Y-65704250D02*
X59297617Y-65585202D01*
X59297617Y-65585202D02*
X59297617Y-65489964D01*
X59297617Y-65489964D02*
X59273808Y-65370916D01*
X59273808Y-65370916D02*
X59249998Y-65299488D01*
X59249998Y-65299488D02*
X59226189Y-65251869D01*
X59226189Y-65251869D02*
X59178570Y-65180440D01*
X59178570Y-65180440D02*
X59154760Y-65156630D01*
D11*
X6742857Y-24273671D02*
X6742857Y-23673671D01*
X6742857Y-23673671D02*
X6971428Y-23673671D01*
X6971428Y-23673671D02*
X7028571Y-23702242D01*
X7028571Y-23702242D02*
X7057142Y-23730814D01*
X7057142Y-23730814D02*
X7085714Y-23787957D01*
X7085714Y-23787957D02*
X7085714Y-23873671D01*
X7085714Y-23873671D02*
X7057142Y-23930814D01*
X7057142Y-23930814D02*
X7028571Y-23959385D01*
X7028571Y-23959385D02*
X6971428Y-23987957D01*
X6971428Y-23987957D02*
X6742857Y-23987957D01*
X7600000Y-23873671D02*
X7600000Y-24273671D01*
X7457142Y-23645100D02*
X7314285Y-24073671D01*
X7314285Y-24073671D02*
X7685714Y-24073671D01*
X8371429Y-24273671D02*
X8371429Y-23673671D01*
X8371429Y-23673671D02*
X8600000Y-23673671D01*
X8600000Y-23673671D02*
X8657143Y-23702242D01*
X8657143Y-23702242D02*
X8685714Y-23730814D01*
X8685714Y-23730814D02*
X8714286Y-23787957D01*
X8714286Y-23787957D02*
X8714286Y-23873671D01*
X8714286Y-23873671D02*
X8685714Y-23930814D01*
X8685714Y-23930814D02*
X8657143Y-23959385D01*
X8657143Y-23959385D02*
X8600000Y-23987957D01*
X8600000Y-23987957D02*
X8371429Y-23987957D01*
X8914286Y-23673671D02*
X9285714Y-23673671D01*
X9285714Y-23673671D02*
X9085714Y-23902242D01*
X9085714Y-23902242D02*
X9171429Y-23902242D01*
X9171429Y-23902242D02*
X9228572Y-23930814D01*
X9228572Y-23930814D02*
X9257143Y-23959385D01*
X9257143Y-23959385D02*
X9285714Y-24016528D01*
X9285714Y-24016528D02*
X9285714Y-24159385D01*
X9285714Y-24159385D02*
X9257143Y-24216528D01*
X9257143Y-24216528D02*
X9228572Y-24245100D01*
X9228572Y-24245100D02*
X9171429Y-24273671D01*
X9171429Y-24273671D02*
X9000000Y-24273671D01*
X9000000Y-24273671D02*
X8942857Y-24245100D01*
X8942857Y-24245100D02*
X8914286Y-24216528D01*
X20714285Y-29273671D02*
X20514285Y-28987957D01*
X20371428Y-29273671D02*
X20371428Y-28673671D01*
X20371428Y-28673671D02*
X20599999Y-28673671D01*
X20599999Y-28673671D02*
X20657142Y-28702242D01*
X20657142Y-28702242D02*
X20685713Y-28730814D01*
X20685713Y-28730814D02*
X20714285Y-28787957D01*
X20714285Y-28787957D02*
X20714285Y-28873671D01*
X20714285Y-28873671D02*
X20685713Y-28930814D01*
X20685713Y-28930814D02*
X20657142Y-28959385D01*
X20657142Y-28959385D02*
X20599999Y-28987957D01*
X20599999Y-28987957D02*
X20371428Y-28987957D01*
X21285713Y-29273671D02*
X20942856Y-29273671D01*
X21114285Y-29273671D02*
X21114285Y-28673671D01*
X21114285Y-28673671D02*
X21057142Y-28759385D01*
X21057142Y-28759385D02*
X20999999Y-28816528D01*
X20999999Y-28816528D02*
X20942856Y-28845100D01*
X21971428Y-28730814D02*
X22000000Y-28702242D01*
X22000000Y-28702242D02*
X22057143Y-28673671D01*
X22057143Y-28673671D02*
X22200000Y-28673671D01*
X22200000Y-28673671D02*
X22257143Y-28702242D01*
X22257143Y-28702242D02*
X22285714Y-28730814D01*
X22285714Y-28730814D02*
X22314285Y-28787957D01*
X22314285Y-28787957D02*
X22314285Y-28845100D01*
X22314285Y-28845100D02*
X22285714Y-28930814D01*
X22285714Y-28930814D02*
X21942857Y-29273671D01*
X21942857Y-29273671D02*
X22314285Y-29273671D01*
X22571429Y-29216528D02*
X22600000Y-29245100D01*
X22600000Y-29245100D02*
X22571429Y-29273671D01*
X22571429Y-29273671D02*
X22542857Y-29245100D01*
X22542857Y-29245100D02*
X22571429Y-29216528D01*
X22571429Y-29216528D02*
X22571429Y-29273671D01*
X22828571Y-28730814D02*
X22857143Y-28702242D01*
X22857143Y-28702242D02*
X22914286Y-28673671D01*
X22914286Y-28673671D02*
X23057143Y-28673671D01*
X23057143Y-28673671D02*
X23114286Y-28702242D01*
X23114286Y-28702242D02*
X23142857Y-28730814D01*
X23142857Y-28730814D02*
X23171428Y-28787957D01*
X23171428Y-28787957D02*
X23171428Y-28845100D01*
X23171428Y-28845100D02*
X23142857Y-28930814D01*
X23142857Y-28930814D02*
X22800000Y-29273671D01*
X22800000Y-29273671D02*
X23171428Y-29273671D01*
X23428572Y-29273671D02*
X23428572Y-28673671D01*
X23485715Y-29045100D02*
X23657143Y-29273671D01*
X23657143Y-28873671D02*
X23428572Y-29102242D01*
X35942855Y-18173671D02*
X36285713Y-18173671D01*
X36114284Y-18773671D02*
X36114284Y-18173671D01*
X36399998Y-18173671D02*
X36599998Y-18773671D01*
X36599998Y-18773671D02*
X36799998Y-18173671D01*
X36971427Y-18745100D02*
X37057142Y-18773671D01*
X37057142Y-18773671D02*
X37199999Y-18773671D01*
X37199999Y-18773671D02*
X37257142Y-18745100D01*
X37257142Y-18745100D02*
X37285713Y-18716528D01*
X37285713Y-18716528D02*
X37314284Y-18659385D01*
X37314284Y-18659385D02*
X37314284Y-18602242D01*
X37314284Y-18602242D02*
X37285713Y-18545100D01*
X37285713Y-18545100D02*
X37257142Y-18516528D01*
X37257142Y-18516528D02*
X37199999Y-18487957D01*
X37199999Y-18487957D02*
X37085713Y-18459385D01*
X37085713Y-18459385D02*
X37028570Y-18430814D01*
X37028570Y-18430814D02*
X36999999Y-18402242D01*
X36999999Y-18402242D02*
X36971427Y-18345100D01*
X36971427Y-18345100D02*
X36971427Y-18287957D01*
X36971427Y-18287957D02*
X36999999Y-18230814D01*
X36999999Y-18230814D02*
X37028570Y-18202242D01*
X37028570Y-18202242D02*
X37085713Y-18173671D01*
X37085713Y-18173671D02*
X37228570Y-18173671D01*
X37228570Y-18173671D02*
X37314284Y-18202242D01*
X37885713Y-18773671D02*
X37542856Y-18773671D01*
X37714285Y-18773671D02*
X37714285Y-18173671D01*
X37714285Y-18173671D02*
X37657142Y-18259385D01*
X37657142Y-18259385D02*
X37599999Y-18316528D01*
X37599999Y-18316528D02*
X37542856Y-18345100D01*
X38914285Y-18773671D02*
X38571428Y-18773671D01*
X38742857Y-18773671D02*
X38742857Y-18173671D01*
X38742857Y-18173671D02*
X38685714Y-18259385D01*
X38685714Y-18259385D02*
X38628571Y-18316528D01*
X38628571Y-18316528D02*
X38571428Y-18345100D01*
X39257143Y-18430814D02*
X39200000Y-18402242D01*
X39200000Y-18402242D02*
X39171429Y-18373671D01*
X39171429Y-18373671D02*
X39142857Y-18316528D01*
X39142857Y-18316528D02*
X39142857Y-18287957D01*
X39142857Y-18287957D02*
X39171429Y-18230814D01*
X39171429Y-18230814D02*
X39200000Y-18202242D01*
X39200000Y-18202242D02*
X39257143Y-18173671D01*
X39257143Y-18173671D02*
X39371429Y-18173671D01*
X39371429Y-18173671D02*
X39428572Y-18202242D01*
X39428572Y-18202242D02*
X39457143Y-18230814D01*
X39457143Y-18230814D02*
X39485714Y-18287957D01*
X39485714Y-18287957D02*
X39485714Y-18316528D01*
X39485714Y-18316528D02*
X39457143Y-18373671D01*
X39457143Y-18373671D02*
X39428572Y-18402242D01*
X39428572Y-18402242D02*
X39371429Y-18430814D01*
X39371429Y-18430814D02*
X39257143Y-18430814D01*
X39257143Y-18430814D02*
X39200000Y-18459385D01*
X39200000Y-18459385D02*
X39171429Y-18487957D01*
X39171429Y-18487957D02*
X39142857Y-18545100D01*
X39142857Y-18545100D02*
X39142857Y-18659385D01*
X39142857Y-18659385D02*
X39171429Y-18716528D01*
X39171429Y-18716528D02*
X39200000Y-18745100D01*
X39200000Y-18745100D02*
X39257143Y-18773671D01*
X39257143Y-18773671D02*
X39371429Y-18773671D01*
X39371429Y-18773671D02*
X39428572Y-18745100D01*
X39428572Y-18745100D02*
X39457143Y-18716528D01*
X39457143Y-18716528D02*
X39485714Y-18659385D01*
X39485714Y-18659385D02*
X39485714Y-18545100D01*
X39485714Y-18545100D02*
X39457143Y-18487957D01*
X39457143Y-18487957D02*
X39428572Y-18459385D01*
X39428572Y-18459385D02*
X39371429Y-18430814D01*
X39657143Y-18173671D02*
X39857143Y-18773671D01*
X39857143Y-18773671D02*
X40057143Y-18173671D01*
X42857142Y-29273671D02*
X42657142Y-28987957D01*
X42514285Y-29273671D02*
X42514285Y-28673671D01*
X42514285Y-28673671D02*
X42742856Y-28673671D01*
X42742856Y-28673671D02*
X42799999Y-28702242D01*
X42799999Y-28702242D02*
X42828570Y-28730814D01*
X42828570Y-28730814D02*
X42857142Y-28787957D01*
X42857142Y-28787957D02*
X42857142Y-28873671D01*
X42857142Y-28873671D02*
X42828570Y-28930814D01*
X42828570Y-28930814D02*
X42799999Y-28959385D01*
X42799999Y-28959385D02*
X42742856Y-28987957D01*
X42742856Y-28987957D02*
X42514285Y-28987957D01*
X43085713Y-28730814D02*
X43114285Y-28702242D01*
X43114285Y-28702242D02*
X43171428Y-28673671D01*
X43171428Y-28673671D02*
X43314285Y-28673671D01*
X43314285Y-28673671D02*
X43371428Y-28702242D01*
X43371428Y-28702242D02*
X43399999Y-28730814D01*
X43399999Y-28730814D02*
X43428570Y-28787957D01*
X43428570Y-28787957D02*
X43428570Y-28845100D01*
X43428570Y-28845100D02*
X43399999Y-28930814D01*
X43399999Y-28930814D02*
X43057142Y-29273671D01*
X43057142Y-29273671D02*
X43428570Y-29273671D01*
X44457142Y-29273671D02*
X44114285Y-29273671D01*
X44285714Y-29273671D02*
X44285714Y-28673671D01*
X44285714Y-28673671D02*
X44228571Y-28759385D01*
X44228571Y-28759385D02*
X44171428Y-28816528D01*
X44171428Y-28816528D02*
X44114285Y-28845100D01*
X44828571Y-28673671D02*
X44885714Y-28673671D01*
X44885714Y-28673671D02*
X44942857Y-28702242D01*
X44942857Y-28702242D02*
X44971429Y-28730814D01*
X44971429Y-28730814D02*
X45000000Y-28787957D01*
X45000000Y-28787957D02*
X45028571Y-28902242D01*
X45028571Y-28902242D02*
X45028571Y-29045100D01*
X45028571Y-29045100D02*
X45000000Y-29159385D01*
X45000000Y-29159385D02*
X44971429Y-29216528D01*
X44971429Y-29216528D02*
X44942857Y-29245100D01*
X44942857Y-29245100D02*
X44885714Y-29273671D01*
X44885714Y-29273671D02*
X44828571Y-29273671D01*
X44828571Y-29273671D02*
X44771429Y-29245100D01*
X44771429Y-29245100D02*
X44742857Y-29216528D01*
X44742857Y-29216528D02*
X44714286Y-29159385D01*
X44714286Y-29159385D02*
X44685714Y-29045100D01*
X44685714Y-29045100D02*
X44685714Y-28902242D01*
X44685714Y-28902242D02*
X44714286Y-28787957D01*
X44714286Y-28787957D02*
X44742857Y-28730814D01*
X44742857Y-28730814D02*
X44771429Y-28702242D01*
X44771429Y-28702242D02*
X44828571Y-28673671D01*
X45285715Y-29273671D02*
X45285715Y-28673671D01*
X45342858Y-29045100D02*
X45514286Y-29273671D01*
X45514286Y-28873671D02*
X45285715Y-29102242D01*
X49042857Y-50273671D02*
X48842857Y-49987957D01*
X48700000Y-50273671D02*
X48700000Y-49673671D01*
X48700000Y-49673671D02*
X48928571Y-49673671D01*
X48928571Y-49673671D02*
X48985714Y-49702242D01*
X48985714Y-49702242D02*
X49014285Y-49730814D01*
X49014285Y-49730814D02*
X49042857Y-49787957D01*
X49042857Y-49787957D02*
X49042857Y-49873671D01*
X49042857Y-49873671D02*
X49014285Y-49930814D01*
X49014285Y-49930814D02*
X48985714Y-49959385D01*
X48985714Y-49959385D02*
X48928571Y-49987957D01*
X48928571Y-49987957D02*
X48700000Y-49987957D01*
X49242857Y-49673671D02*
X49614285Y-49673671D01*
X49614285Y-49673671D02*
X49414285Y-49902242D01*
X49414285Y-49902242D02*
X49500000Y-49902242D01*
X49500000Y-49902242D02*
X49557143Y-49930814D01*
X49557143Y-49930814D02*
X49585714Y-49959385D01*
X49585714Y-49959385D02*
X49614285Y-50016528D01*
X49614285Y-50016528D02*
X49614285Y-50159385D01*
X49614285Y-50159385D02*
X49585714Y-50216528D01*
X49585714Y-50216528D02*
X49557143Y-50245100D01*
X49557143Y-50245100D02*
X49500000Y-50273671D01*
X49500000Y-50273671D02*
X49328571Y-50273671D01*
X49328571Y-50273671D02*
X49271428Y-50245100D01*
X49271428Y-50245100D02*
X49242857Y-50216528D01*
X50642857Y-50273671D02*
X50300000Y-50273671D01*
X50471429Y-50273671D02*
X50471429Y-49673671D01*
X50471429Y-49673671D02*
X50414286Y-49759385D01*
X50414286Y-49759385D02*
X50357143Y-49816528D01*
X50357143Y-49816528D02*
X50300000Y-49845100D01*
X50900001Y-50273671D02*
X50900001Y-49673671D01*
X50900001Y-49673671D02*
X51100001Y-50102242D01*
X51100001Y-50102242D02*
X51300001Y-49673671D01*
X51300001Y-49673671D02*
X51300001Y-50273671D01*
X49900000Y-56216528D02*
X49871428Y-56245100D01*
X49871428Y-56245100D02*
X49785714Y-56273671D01*
X49785714Y-56273671D02*
X49728571Y-56273671D01*
X49728571Y-56273671D02*
X49642857Y-56245100D01*
X49642857Y-56245100D02*
X49585714Y-56187957D01*
X49585714Y-56187957D02*
X49557143Y-56130814D01*
X49557143Y-56130814D02*
X49528571Y-56016528D01*
X49528571Y-56016528D02*
X49528571Y-55930814D01*
X49528571Y-55930814D02*
X49557143Y-55816528D01*
X49557143Y-55816528D02*
X49585714Y-55759385D01*
X49585714Y-55759385D02*
X49642857Y-55702242D01*
X49642857Y-55702242D02*
X49728571Y-55673671D01*
X49728571Y-55673671D02*
X49785714Y-55673671D01*
X49785714Y-55673671D02*
X49871428Y-55702242D01*
X49871428Y-55702242D02*
X49900000Y-55730814D01*
X50414286Y-55873671D02*
X50414286Y-56273671D01*
X50271428Y-55645100D02*
X50128571Y-56073671D01*
X50128571Y-56073671D02*
X50500000Y-56073671D01*
X63042857Y-50273671D02*
X62842857Y-49987957D01*
X62700000Y-50273671D02*
X62700000Y-49673671D01*
X62700000Y-49673671D02*
X62928571Y-49673671D01*
X62928571Y-49673671D02*
X62985714Y-49702242D01*
X62985714Y-49702242D02*
X63014285Y-49730814D01*
X63014285Y-49730814D02*
X63042857Y-49787957D01*
X63042857Y-49787957D02*
X63042857Y-49873671D01*
X63042857Y-49873671D02*
X63014285Y-49930814D01*
X63014285Y-49930814D02*
X62985714Y-49959385D01*
X62985714Y-49959385D02*
X62928571Y-49987957D01*
X62928571Y-49987957D02*
X62700000Y-49987957D01*
X63585714Y-49673671D02*
X63300000Y-49673671D01*
X63300000Y-49673671D02*
X63271428Y-49959385D01*
X63271428Y-49959385D02*
X63300000Y-49930814D01*
X63300000Y-49930814D02*
X63357143Y-49902242D01*
X63357143Y-49902242D02*
X63500000Y-49902242D01*
X63500000Y-49902242D02*
X63557143Y-49930814D01*
X63557143Y-49930814D02*
X63585714Y-49959385D01*
X63585714Y-49959385D02*
X63614285Y-50016528D01*
X63614285Y-50016528D02*
X63614285Y-50159385D01*
X63614285Y-50159385D02*
X63585714Y-50216528D01*
X63585714Y-50216528D02*
X63557143Y-50245100D01*
X63557143Y-50245100D02*
X63500000Y-50273671D01*
X63500000Y-50273671D02*
X63357143Y-50273671D01*
X63357143Y-50273671D02*
X63300000Y-50245100D01*
X63300000Y-50245100D02*
X63271428Y-50216528D01*
X64642857Y-50273671D02*
X64300000Y-50273671D01*
X64471429Y-50273671D02*
X64471429Y-49673671D01*
X64471429Y-49673671D02*
X64414286Y-49759385D01*
X64414286Y-49759385D02*
X64357143Y-49816528D01*
X64357143Y-49816528D02*
X64300000Y-49845100D01*
X64900001Y-50273671D02*
X64900001Y-49673671D01*
X64900001Y-49673671D02*
X65100001Y-50102242D01*
X65100001Y-50102242D02*
X65300001Y-49673671D01*
X65300001Y-49673671D02*
X65300001Y-50273671D01*
X63900000Y-56216528D02*
X63871428Y-56245100D01*
X63871428Y-56245100D02*
X63785714Y-56273671D01*
X63785714Y-56273671D02*
X63728571Y-56273671D01*
X63728571Y-56273671D02*
X63642857Y-56245100D01*
X63642857Y-56245100D02*
X63585714Y-56187957D01*
X63585714Y-56187957D02*
X63557143Y-56130814D01*
X63557143Y-56130814D02*
X63528571Y-56016528D01*
X63528571Y-56016528D02*
X63528571Y-55930814D01*
X63528571Y-55930814D02*
X63557143Y-55816528D01*
X63557143Y-55816528D02*
X63585714Y-55759385D01*
X63585714Y-55759385D02*
X63642857Y-55702242D01*
X63642857Y-55702242D02*
X63728571Y-55673671D01*
X63728571Y-55673671D02*
X63785714Y-55673671D01*
X63785714Y-55673671D02*
X63871428Y-55702242D01*
X63871428Y-55702242D02*
X63900000Y-55730814D01*
X64442857Y-55673671D02*
X64157143Y-55673671D01*
X64157143Y-55673671D02*
X64128571Y-55959385D01*
X64128571Y-55959385D02*
X64157143Y-55930814D01*
X64157143Y-55930814D02*
X64214286Y-55902242D01*
X64214286Y-55902242D02*
X64357143Y-55902242D01*
X64357143Y-55902242D02*
X64414286Y-55930814D01*
X64414286Y-55930814D02*
X64442857Y-55959385D01*
X64442857Y-55959385D02*
X64471428Y-56016528D01*
X64471428Y-56016528D02*
X64471428Y-56159385D01*
X64471428Y-56159385D02*
X64442857Y-56216528D01*
X64442857Y-56216528D02*
X64414286Y-56245100D01*
X64414286Y-56245100D02*
X64357143Y-56273671D01*
X64357143Y-56273671D02*
X64214286Y-56273671D01*
X64214286Y-56273671D02*
X64157143Y-56245100D01*
X64157143Y-56245100D02*
X64128571Y-56216528D01*
X64900000Y-29716528D02*
X64871428Y-29745100D01*
X64871428Y-29745100D02*
X64785714Y-29773671D01*
X64785714Y-29773671D02*
X64728571Y-29773671D01*
X64728571Y-29773671D02*
X64642857Y-29745100D01*
X64642857Y-29745100D02*
X64585714Y-29687957D01*
X64585714Y-29687957D02*
X64557143Y-29630814D01*
X64557143Y-29630814D02*
X64528571Y-29516528D01*
X64528571Y-29516528D02*
X64528571Y-29430814D01*
X64528571Y-29430814D02*
X64557143Y-29316528D01*
X64557143Y-29316528D02*
X64585714Y-29259385D01*
X64585714Y-29259385D02*
X64642857Y-29202242D01*
X64642857Y-29202242D02*
X64728571Y-29173671D01*
X64728571Y-29173671D02*
X64785714Y-29173671D01*
X64785714Y-29173671D02*
X64871428Y-29202242D01*
X64871428Y-29202242D02*
X64900000Y-29230814D01*
X65100000Y-29173671D02*
X65500000Y-29173671D01*
X65500000Y-29173671D02*
X65242857Y-29773671D01*
X68900000Y-36773671D02*
X68700000Y-36487957D01*
X68557143Y-36773671D02*
X68557143Y-36173671D01*
X68557143Y-36173671D02*
X68785714Y-36173671D01*
X68785714Y-36173671D02*
X68842857Y-36202242D01*
X68842857Y-36202242D02*
X68871428Y-36230814D01*
X68871428Y-36230814D02*
X68900000Y-36287957D01*
X68900000Y-36287957D02*
X68900000Y-36373671D01*
X68900000Y-36373671D02*
X68871428Y-36430814D01*
X68871428Y-36430814D02*
X68842857Y-36459385D01*
X68842857Y-36459385D02*
X68785714Y-36487957D01*
X68785714Y-36487957D02*
X68557143Y-36487957D01*
X69414286Y-36173671D02*
X69300000Y-36173671D01*
X69300000Y-36173671D02*
X69242857Y-36202242D01*
X69242857Y-36202242D02*
X69214286Y-36230814D01*
X69214286Y-36230814D02*
X69157143Y-36316528D01*
X69157143Y-36316528D02*
X69128571Y-36430814D01*
X69128571Y-36430814D02*
X69128571Y-36659385D01*
X69128571Y-36659385D02*
X69157143Y-36716528D01*
X69157143Y-36716528D02*
X69185714Y-36745100D01*
X69185714Y-36745100D02*
X69242857Y-36773671D01*
X69242857Y-36773671D02*
X69357143Y-36773671D01*
X69357143Y-36773671D02*
X69414286Y-36745100D01*
X69414286Y-36745100D02*
X69442857Y-36716528D01*
X69442857Y-36716528D02*
X69471428Y-36659385D01*
X69471428Y-36659385D02*
X69471428Y-36516528D01*
X69471428Y-36516528D02*
X69442857Y-36459385D01*
X69442857Y-36459385D02*
X69414286Y-36430814D01*
X69414286Y-36430814D02*
X69357143Y-36402242D01*
X69357143Y-36402242D02*
X69242857Y-36402242D01*
X69242857Y-36402242D02*
X69185714Y-36430814D01*
X69185714Y-36430814D02*
X69157143Y-36459385D01*
X69157143Y-36459385D02*
X69128571Y-36516528D01*
X71142857Y-50273671D02*
X70942857Y-49987957D01*
X70800000Y-50273671D02*
X70800000Y-49673671D01*
X70800000Y-49673671D02*
X71028571Y-49673671D01*
X71028571Y-49673671D02*
X71085714Y-49702242D01*
X71085714Y-49702242D02*
X71114285Y-49730814D01*
X71114285Y-49730814D02*
X71142857Y-49787957D01*
X71142857Y-49787957D02*
X71142857Y-49873671D01*
X71142857Y-49873671D02*
X71114285Y-49930814D01*
X71114285Y-49930814D02*
X71085714Y-49959385D01*
X71085714Y-49959385D02*
X71028571Y-49987957D01*
X71028571Y-49987957D02*
X70800000Y-49987957D01*
X71485714Y-49930814D02*
X71428571Y-49902242D01*
X71428571Y-49902242D02*
X71400000Y-49873671D01*
X71400000Y-49873671D02*
X71371428Y-49816528D01*
X71371428Y-49816528D02*
X71371428Y-49787957D01*
X71371428Y-49787957D02*
X71400000Y-49730814D01*
X71400000Y-49730814D02*
X71428571Y-49702242D01*
X71428571Y-49702242D02*
X71485714Y-49673671D01*
X71485714Y-49673671D02*
X71600000Y-49673671D01*
X71600000Y-49673671D02*
X71657143Y-49702242D01*
X71657143Y-49702242D02*
X71685714Y-49730814D01*
X71685714Y-49730814D02*
X71714285Y-49787957D01*
X71714285Y-49787957D02*
X71714285Y-49816528D01*
X71714285Y-49816528D02*
X71685714Y-49873671D01*
X71685714Y-49873671D02*
X71657143Y-49902242D01*
X71657143Y-49902242D02*
X71600000Y-49930814D01*
X71600000Y-49930814D02*
X71485714Y-49930814D01*
X71485714Y-49930814D02*
X71428571Y-49959385D01*
X71428571Y-49959385D02*
X71400000Y-49987957D01*
X71400000Y-49987957D02*
X71371428Y-50045100D01*
X71371428Y-50045100D02*
X71371428Y-50159385D01*
X71371428Y-50159385D02*
X71400000Y-50216528D01*
X71400000Y-50216528D02*
X71428571Y-50245100D01*
X71428571Y-50245100D02*
X71485714Y-50273671D01*
X71485714Y-50273671D02*
X71600000Y-50273671D01*
X71600000Y-50273671D02*
X71657143Y-50245100D01*
X71657143Y-50245100D02*
X71685714Y-50216528D01*
X71685714Y-50216528D02*
X71714285Y-50159385D01*
X71714285Y-50159385D02*
X71714285Y-50045100D01*
X71714285Y-50045100D02*
X71685714Y-49987957D01*
X71685714Y-49987957D02*
X71657143Y-49959385D01*
X71657143Y-49959385D02*
X71600000Y-49930814D01*
X72742857Y-50273671D02*
X72400000Y-50273671D01*
X72571429Y-50273671D02*
X72571429Y-49673671D01*
X72571429Y-49673671D02*
X72514286Y-49759385D01*
X72514286Y-49759385D02*
X72457143Y-49816528D01*
X72457143Y-49816528D02*
X72400000Y-49845100D01*
X73000001Y-50273671D02*
X73000001Y-49673671D01*
X73057144Y-50045100D02*
X73228572Y-50273671D01*
X73228572Y-49873671D02*
X73000001Y-50102242D01*
X74042857Y-27773671D02*
X73757143Y-27773671D01*
X73757143Y-27773671D02*
X73757143Y-27173671D01*
X74242857Y-27459385D02*
X74442857Y-27459385D01*
X74528571Y-27773671D02*
X74242857Y-27773671D01*
X74242857Y-27773671D02*
X74242857Y-27173671D01*
X74242857Y-27173671D02*
X74528571Y-27173671D01*
X74785714Y-27773671D02*
X74785714Y-27173671D01*
X74785714Y-27173671D02*
X74928571Y-27173671D01*
X74928571Y-27173671D02*
X75014285Y-27202242D01*
X75014285Y-27202242D02*
X75071428Y-27259385D01*
X75071428Y-27259385D02*
X75099999Y-27316528D01*
X75099999Y-27316528D02*
X75128571Y-27430814D01*
X75128571Y-27430814D02*
X75128571Y-27516528D01*
X75128571Y-27516528D02*
X75099999Y-27630814D01*
X75099999Y-27630814D02*
X75071428Y-27687957D01*
X75071428Y-27687957D02*
X75014285Y-27745100D01*
X75014285Y-27745100D02*
X74928571Y-27773671D01*
X74928571Y-27773671D02*
X74785714Y-27773671D01*
X75699999Y-27773671D02*
X75357142Y-27773671D01*
X75528571Y-27773671D02*
X75528571Y-27173671D01*
X75528571Y-27173671D02*
X75471428Y-27259385D01*
X75471428Y-27259385D02*
X75414285Y-27316528D01*
X75414285Y-27316528D02*
X75357142Y-27345100D01*
X76757143Y-27773671D02*
X76557143Y-27487957D01*
X76414286Y-27773671D02*
X76414286Y-27173671D01*
X76414286Y-27173671D02*
X76642857Y-27173671D01*
X76642857Y-27173671D02*
X76700000Y-27202242D01*
X76700000Y-27202242D02*
X76728571Y-27230814D01*
X76728571Y-27230814D02*
X76757143Y-27287957D01*
X76757143Y-27287957D02*
X76757143Y-27373671D01*
X76757143Y-27373671D02*
X76728571Y-27430814D01*
X76728571Y-27430814D02*
X76700000Y-27459385D01*
X76700000Y-27459385D02*
X76642857Y-27487957D01*
X76642857Y-27487957D02*
X76414286Y-27487957D01*
X77014286Y-27773671D02*
X77014286Y-27173671D01*
X77300000Y-27773671D02*
X77300000Y-27173671D01*
X77300000Y-27173671D02*
X77642857Y-27773671D01*
X77642857Y-27773671D02*
X77642857Y-27173671D01*
X78242856Y-27202242D02*
X78185714Y-27173671D01*
X78185714Y-27173671D02*
X78099999Y-27173671D01*
X78099999Y-27173671D02*
X78014285Y-27202242D01*
X78014285Y-27202242D02*
X77957142Y-27259385D01*
X77957142Y-27259385D02*
X77928571Y-27316528D01*
X77928571Y-27316528D02*
X77899999Y-27430814D01*
X77899999Y-27430814D02*
X77899999Y-27516528D01*
X77899999Y-27516528D02*
X77928571Y-27630814D01*
X77928571Y-27630814D02*
X77957142Y-27687957D01*
X77957142Y-27687957D02*
X78014285Y-27745100D01*
X78014285Y-27745100D02*
X78099999Y-27773671D01*
X78099999Y-27773671D02*
X78157142Y-27773671D01*
X78157142Y-27773671D02*
X78242856Y-27745100D01*
X78242856Y-27745100D02*
X78271428Y-27716528D01*
X78271428Y-27716528D02*
X78271428Y-27516528D01*
X78271428Y-27516528D02*
X78157142Y-27516528D01*
X79142857Y-38273671D02*
X78942857Y-37987957D01*
X78800000Y-38273671D02*
X78800000Y-37673671D01*
X78800000Y-37673671D02*
X79028571Y-37673671D01*
X79028571Y-37673671D02*
X79085714Y-37702242D01*
X79085714Y-37702242D02*
X79114285Y-37730814D01*
X79114285Y-37730814D02*
X79142857Y-37787957D01*
X79142857Y-37787957D02*
X79142857Y-37873671D01*
X79142857Y-37873671D02*
X79114285Y-37930814D01*
X79114285Y-37930814D02*
X79085714Y-37959385D01*
X79085714Y-37959385D02*
X79028571Y-37987957D01*
X79028571Y-37987957D02*
X78800000Y-37987957D01*
X79342857Y-37673671D02*
X79742857Y-37673671D01*
X79742857Y-37673671D02*
X79485714Y-38273671D01*
X80742857Y-38273671D02*
X80400000Y-38273671D01*
X80571429Y-38273671D02*
X80571429Y-37673671D01*
X80571429Y-37673671D02*
X80514286Y-37759385D01*
X80514286Y-37759385D02*
X80457143Y-37816528D01*
X80457143Y-37816528D02*
X80400000Y-37845100D01*
X81000001Y-38273671D02*
X81000001Y-37673671D01*
X81057144Y-38045100D02*
X81228572Y-38273671D01*
X81228572Y-37873671D02*
X81000001Y-38102242D01*
X79942857Y-51330814D02*
X79885714Y-51302242D01*
X79885714Y-51302242D02*
X79828571Y-51245100D01*
X79828571Y-51245100D02*
X79742857Y-51159385D01*
X79742857Y-51159385D02*
X79685714Y-51130814D01*
X79685714Y-51130814D02*
X79628571Y-51130814D01*
X79657142Y-51273671D02*
X79600000Y-51245100D01*
X79600000Y-51245100D02*
X79542857Y-51187957D01*
X79542857Y-51187957D02*
X79514285Y-51073671D01*
X79514285Y-51073671D02*
X79514285Y-50873671D01*
X79514285Y-50873671D02*
X79542857Y-50759385D01*
X79542857Y-50759385D02*
X79600000Y-50702242D01*
X79600000Y-50702242D02*
X79657142Y-50673671D01*
X79657142Y-50673671D02*
X79771428Y-50673671D01*
X79771428Y-50673671D02*
X79828571Y-50702242D01*
X79828571Y-50702242D02*
X79885714Y-50759385D01*
X79885714Y-50759385D02*
X79914285Y-50873671D01*
X79914285Y-50873671D02*
X79914285Y-51073671D01*
X79914285Y-51073671D02*
X79885714Y-51187957D01*
X79885714Y-51187957D02*
X79828571Y-51245100D01*
X79828571Y-51245100D02*
X79771428Y-51273671D01*
X79771428Y-51273671D02*
X79657142Y-51273671D01*
X80485713Y-51273671D02*
X80142856Y-51273671D01*
X80314285Y-51273671D02*
X80314285Y-50673671D01*
X80314285Y-50673671D02*
X80257142Y-50759385D01*
X80257142Y-50759385D02*
X80199999Y-50816528D01*
X80199999Y-50816528D02*
X80142856Y-50845100D01*
X79557143Y-56273671D02*
X79557143Y-55673671D01*
X79557143Y-55673671D02*
X79700000Y-55673671D01*
X79700000Y-55673671D02*
X79785714Y-55702242D01*
X79785714Y-55702242D02*
X79842857Y-55759385D01*
X79842857Y-55759385D02*
X79871428Y-55816528D01*
X79871428Y-55816528D02*
X79900000Y-55930814D01*
X79900000Y-55930814D02*
X79900000Y-56016528D01*
X79900000Y-56016528D02*
X79871428Y-56130814D01*
X79871428Y-56130814D02*
X79842857Y-56187957D01*
X79842857Y-56187957D02*
X79785714Y-56245100D01*
X79785714Y-56245100D02*
X79700000Y-56273671D01*
X79700000Y-56273671D02*
X79557143Y-56273671D01*
X80128571Y-55730814D02*
X80157143Y-55702242D01*
X80157143Y-55702242D02*
X80214286Y-55673671D01*
X80214286Y-55673671D02*
X80357143Y-55673671D01*
X80357143Y-55673671D02*
X80414286Y-55702242D01*
X80414286Y-55702242D02*
X80442857Y-55730814D01*
X80442857Y-55730814D02*
X80471428Y-55787957D01*
X80471428Y-55787957D02*
X80471428Y-55845100D01*
X80471428Y-55845100D02*
X80442857Y-55930814D01*
X80442857Y-55930814D02*
X80100000Y-56273671D01*
X80100000Y-56273671D02*
X80471428Y-56273671D01*
D12*
X15783333Y-42819283D02*
X15783333Y-42119283D01*
X16183333Y-42819283D02*
X15883333Y-42419283D01*
X16183333Y-42119283D02*
X15783333Y-42519283D01*
X16850000Y-42819283D02*
X16450000Y-42819283D01*
X16650000Y-42819283D02*
X16650000Y-42119283D01*
X16650000Y-42119283D02*
X16583333Y-42219283D01*
X16583333Y-42219283D02*
X16516667Y-42285950D01*
X16516667Y-42285950D02*
X16450000Y-42319283D01*
X17683333Y-42819283D02*
X17683333Y-42119283D01*
X17683333Y-42119283D02*
X17850000Y-42119283D01*
X17850000Y-42119283D02*
X17950000Y-42152616D01*
X17950000Y-42152616D02*
X18016667Y-42219283D01*
X18016667Y-42219283D02*
X18050000Y-42285950D01*
X18050000Y-42285950D02*
X18083333Y-42419283D01*
X18083333Y-42419283D02*
X18083333Y-42519283D01*
X18083333Y-42519283D02*
X18050000Y-42652616D01*
X18050000Y-42652616D02*
X18016667Y-42719283D01*
X18016667Y-42719283D02*
X17950000Y-42785950D01*
X17950000Y-42785950D02*
X17850000Y-42819283D01*
X17850000Y-42819283D02*
X17683333Y-42819283D01*
X18516667Y-42119283D02*
X18650000Y-42119283D01*
X18650000Y-42119283D02*
X18716667Y-42152616D01*
X18716667Y-42152616D02*
X18783333Y-42219283D01*
X18783333Y-42219283D02*
X18816667Y-42352616D01*
X18816667Y-42352616D02*
X18816667Y-42585950D01*
X18816667Y-42585950D02*
X18783333Y-42719283D01*
X18783333Y-42719283D02*
X18716667Y-42785950D01*
X18716667Y-42785950D02*
X18650000Y-42819283D01*
X18650000Y-42819283D02*
X18516667Y-42819283D01*
X18516667Y-42819283D02*
X18450000Y-42785950D01*
X18450000Y-42785950D02*
X18383333Y-42719283D01*
X18383333Y-42719283D02*
X18350000Y-42585950D01*
X18350000Y-42585950D02*
X18350000Y-42352616D01*
X18350000Y-42352616D02*
X18383333Y-42219283D01*
X18383333Y-42219283D02*
X18450000Y-42152616D01*
X18450000Y-42152616D02*
X18516667Y-42119283D01*
X19250000Y-42119283D02*
X19383333Y-42119283D01*
X19383333Y-42119283D02*
X19450000Y-42152616D01*
X19450000Y-42152616D02*
X19516666Y-42219283D01*
X19516666Y-42219283D02*
X19550000Y-42352616D01*
X19550000Y-42352616D02*
X19550000Y-42585950D01*
X19550000Y-42585950D02*
X19516666Y-42719283D01*
X19516666Y-42719283D02*
X19450000Y-42785950D01*
X19450000Y-42785950D02*
X19383333Y-42819283D01*
X19383333Y-42819283D02*
X19250000Y-42819283D01*
X19250000Y-42819283D02*
X19183333Y-42785950D01*
X19183333Y-42785950D02*
X19116666Y-42719283D01*
X19116666Y-42719283D02*
X19083333Y-42585950D01*
X19083333Y-42585950D02*
X19083333Y-42352616D01*
X19083333Y-42352616D02*
X19116666Y-42219283D01*
X19116666Y-42219283D02*
X19183333Y-42152616D01*
X19183333Y-42152616D02*
X19250000Y-42119283D01*
X20249999Y-42819283D02*
X20016666Y-42485950D01*
X19849999Y-42819283D02*
X19849999Y-42119283D01*
X19849999Y-42119283D02*
X20116666Y-42119283D01*
X20116666Y-42119283D02*
X20183333Y-42152616D01*
X20183333Y-42152616D02*
X20216666Y-42185950D01*
X20216666Y-42185950D02*
X20249999Y-42252616D01*
X20249999Y-42252616D02*
X20249999Y-42352616D01*
X20249999Y-42352616D02*
X20216666Y-42419283D01*
X20216666Y-42419283D02*
X20183333Y-42452616D01*
X20183333Y-42452616D02*
X20116666Y-42485950D01*
X20116666Y-42485950D02*
X19849999Y-42485950D01*
X20066667Y-12452616D02*
X19833333Y-12452616D01*
X19833333Y-12819283D02*
X19833333Y-12119283D01*
X19833333Y-12119283D02*
X20166667Y-12119283D01*
X20800000Y-12819283D02*
X20400000Y-12819283D01*
X20600000Y-12819283D02*
X20600000Y-12119283D01*
X20600000Y-12119283D02*
X20533333Y-12219283D01*
X20533333Y-12219283D02*
X20466667Y-12285950D01*
X20466667Y-12285950D02*
X20400000Y-12319283D01*
X21966667Y-12119283D02*
X21633333Y-12119283D01*
X21633333Y-12119283D02*
X21600000Y-12452616D01*
X21600000Y-12452616D02*
X21633333Y-12419283D01*
X21633333Y-12419283D02*
X21700000Y-12385950D01*
X21700000Y-12385950D02*
X21866667Y-12385950D01*
X21866667Y-12385950D02*
X21933333Y-12419283D01*
X21933333Y-12419283D02*
X21966667Y-12452616D01*
X21966667Y-12452616D02*
X22000000Y-12519283D01*
X22000000Y-12519283D02*
X22000000Y-12685950D01*
X22000000Y-12685950D02*
X21966667Y-12752616D01*
X21966667Y-12752616D02*
X21933333Y-12785950D01*
X21933333Y-12785950D02*
X21866667Y-12819283D01*
X21866667Y-12819283D02*
X21700000Y-12819283D01*
X21700000Y-12819283D02*
X21633333Y-12785950D01*
X21633333Y-12785950D02*
X21600000Y-12752616D01*
X22433334Y-12119283D02*
X22500000Y-12119283D01*
X22500000Y-12119283D02*
X22566667Y-12152616D01*
X22566667Y-12152616D02*
X22600000Y-12185950D01*
X22600000Y-12185950D02*
X22633334Y-12252616D01*
X22633334Y-12252616D02*
X22666667Y-12385950D01*
X22666667Y-12385950D02*
X22666667Y-12552616D01*
X22666667Y-12552616D02*
X22633334Y-12685950D01*
X22633334Y-12685950D02*
X22600000Y-12752616D01*
X22600000Y-12752616D02*
X22566667Y-12785950D01*
X22566667Y-12785950D02*
X22500000Y-12819283D01*
X22500000Y-12819283D02*
X22433334Y-12819283D01*
X22433334Y-12819283D02*
X22366667Y-12785950D01*
X22366667Y-12785950D02*
X22333334Y-12752616D01*
X22333334Y-12752616D02*
X22300000Y-12685950D01*
X22300000Y-12685950D02*
X22266667Y-12552616D01*
X22266667Y-12552616D02*
X22266667Y-12385950D01*
X22266667Y-12385950D02*
X22300000Y-12252616D01*
X22300000Y-12252616D02*
X22333334Y-12185950D01*
X22333334Y-12185950D02*
X22366667Y-12152616D01*
X22366667Y-12152616D02*
X22433334Y-12119283D01*
X22966667Y-12819283D02*
X22966667Y-12352616D01*
X22966667Y-12419283D02*
X23000001Y-12385950D01*
X23000001Y-12385950D02*
X23066667Y-12352616D01*
X23066667Y-12352616D02*
X23166667Y-12352616D01*
X23166667Y-12352616D02*
X23233334Y-12385950D01*
X23233334Y-12385950D02*
X23266667Y-12452616D01*
X23266667Y-12452616D02*
X23266667Y-12819283D01*
X23266667Y-12452616D02*
X23300001Y-12385950D01*
X23300001Y-12385950D02*
X23366667Y-12352616D01*
X23366667Y-12352616D02*
X23466667Y-12352616D01*
X23466667Y-12352616D02*
X23533334Y-12385950D01*
X23533334Y-12385950D02*
X23566667Y-12452616D01*
X23566667Y-12452616D02*
X23566667Y-12819283D01*
X23866667Y-12619283D02*
X24200000Y-12619283D01*
X23800000Y-12819283D02*
X24033334Y-12119283D01*
X24033334Y-12119283D02*
X24266667Y-12819283D01*
X28066667Y-56119283D02*
X28066667Y-56619283D01*
X28066667Y-56619283D02*
X28033334Y-56719283D01*
X28033334Y-56719283D02*
X27966667Y-56785950D01*
X27966667Y-56785950D02*
X27866667Y-56819283D01*
X27866667Y-56819283D02*
X27800001Y-56819283D01*
X28366667Y-56185950D02*
X28400000Y-56152616D01*
X28400000Y-56152616D02*
X28466667Y-56119283D01*
X28466667Y-56119283D02*
X28633334Y-56119283D01*
X28633334Y-56119283D02*
X28700000Y-56152616D01*
X28700000Y-56152616D02*
X28733334Y-56185950D01*
X28733334Y-56185950D02*
X28766667Y-56252616D01*
X28766667Y-56252616D02*
X28766667Y-56319283D01*
X28766667Y-56319283D02*
X28733334Y-56419283D01*
X28733334Y-56419283D02*
X28333334Y-56819283D01*
X28333334Y-56819283D02*
X28766667Y-56819283D01*
X29600000Y-56819283D02*
X29600000Y-56119283D01*
X29600000Y-56119283D02*
X29766667Y-56119283D01*
X29766667Y-56119283D02*
X29866667Y-56152616D01*
X29866667Y-56152616D02*
X29933334Y-56219283D01*
X29933334Y-56219283D02*
X29966667Y-56285950D01*
X29966667Y-56285950D02*
X30000000Y-56419283D01*
X30000000Y-56419283D02*
X30000000Y-56519283D01*
X30000000Y-56519283D02*
X29966667Y-56652616D01*
X29966667Y-56652616D02*
X29933334Y-56719283D01*
X29933334Y-56719283D02*
X29866667Y-56785950D01*
X29866667Y-56785950D02*
X29766667Y-56819283D01*
X29766667Y-56819283D02*
X29600000Y-56819283D01*
X30433334Y-56119283D02*
X30566667Y-56119283D01*
X30566667Y-56119283D02*
X30633334Y-56152616D01*
X30633334Y-56152616D02*
X30700000Y-56219283D01*
X30700000Y-56219283D02*
X30733334Y-56352616D01*
X30733334Y-56352616D02*
X30733334Y-56585950D01*
X30733334Y-56585950D02*
X30700000Y-56719283D01*
X30700000Y-56719283D02*
X30633334Y-56785950D01*
X30633334Y-56785950D02*
X30566667Y-56819283D01*
X30566667Y-56819283D02*
X30433334Y-56819283D01*
X30433334Y-56819283D02*
X30366667Y-56785950D01*
X30366667Y-56785950D02*
X30300000Y-56719283D01*
X30300000Y-56719283D02*
X30266667Y-56585950D01*
X30266667Y-56585950D02*
X30266667Y-56352616D01*
X30266667Y-56352616D02*
X30300000Y-56219283D01*
X30300000Y-56219283D02*
X30366667Y-56152616D01*
X30366667Y-56152616D02*
X30433334Y-56119283D01*
X31166667Y-56119283D02*
X31300000Y-56119283D01*
X31300000Y-56119283D02*
X31366667Y-56152616D01*
X31366667Y-56152616D02*
X31433333Y-56219283D01*
X31433333Y-56219283D02*
X31466667Y-56352616D01*
X31466667Y-56352616D02*
X31466667Y-56585950D01*
X31466667Y-56585950D02*
X31433333Y-56719283D01*
X31433333Y-56719283D02*
X31366667Y-56785950D01*
X31366667Y-56785950D02*
X31300000Y-56819283D01*
X31300000Y-56819283D02*
X31166667Y-56819283D01*
X31166667Y-56819283D02*
X31100000Y-56785950D01*
X31100000Y-56785950D02*
X31033333Y-56719283D01*
X31033333Y-56719283D02*
X31000000Y-56585950D01*
X31000000Y-56585950D02*
X31000000Y-56352616D01*
X31000000Y-56352616D02*
X31033333Y-56219283D01*
X31033333Y-56219283D02*
X31100000Y-56152616D01*
X31100000Y-56152616D02*
X31166667Y-56119283D01*
X32166666Y-56819283D02*
X31933333Y-56485950D01*
X31766666Y-56819283D02*
X31766666Y-56119283D01*
X31766666Y-56119283D02*
X32033333Y-56119283D01*
X32033333Y-56119283D02*
X32100000Y-56152616D01*
X32100000Y-56152616D02*
X32133333Y-56185950D01*
X32133333Y-56185950D02*
X32166666Y-56252616D01*
X32166666Y-56252616D02*
X32166666Y-56352616D01*
X32166666Y-56352616D02*
X32133333Y-56419283D01*
X32133333Y-56419283D02*
X32100000Y-56452616D01*
X32100000Y-56452616D02*
X32033333Y-56485950D01*
X32033333Y-56485950D02*
X31766666Y-56485950D01*
X30283333Y-26619283D02*
X30416666Y-26619283D01*
X30416666Y-26619283D02*
X30483333Y-26652616D01*
X30483333Y-26652616D02*
X30549999Y-26719283D01*
X30549999Y-26719283D02*
X30583333Y-26852616D01*
X30583333Y-26852616D02*
X30583333Y-27085950D01*
X30583333Y-27085950D02*
X30549999Y-27219283D01*
X30549999Y-27219283D02*
X30483333Y-27285950D01*
X30483333Y-27285950D02*
X30416666Y-27319283D01*
X30416666Y-27319283D02*
X30283333Y-27319283D01*
X30283333Y-27319283D02*
X30216666Y-27285950D01*
X30216666Y-27285950D02*
X30149999Y-27219283D01*
X30149999Y-27219283D02*
X30116666Y-27085950D01*
X30116666Y-27085950D02*
X30116666Y-26852616D01*
X30116666Y-26852616D02*
X30149999Y-26719283D01*
X30149999Y-26719283D02*
X30216666Y-26652616D01*
X30216666Y-26652616D02*
X30283333Y-26619283D01*
X30883332Y-27319283D02*
X30883332Y-26619283D01*
X31283332Y-27319283D02*
X30983332Y-26919283D01*
X31283332Y-26619283D02*
X30883332Y-27019283D01*
X31949999Y-27319283D02*
X31549999Y-27319283D01*
X31749999Y-27319283D02*
X31749999Y-26619283D01*
X31749999Y-26619283D02*
X31683332Y-26719283D01*
X31683332Y-26719283D02*
X31616666Y-26785950D01*
X31616666Y-26785950D02*
X31549999Y-26819283D01*
X32783332Y-27319283D02*
X32783332Y-26619283D01*
X32783332Y-26619283D02*
X33049999Y-26619283D01*
X33049999Y-26619283D02*
X33116666Y-26652616D01*
X33116666Y-26652616D02*
X33149999Y-26685950D01*
X33149999Y-26685950D02*
X33183332Y-26752616D01*
X33183332Y-26752616D02*
X33183332Y-26852616D01*
X33183332Y-26852616D02*
X33149999Y-26919283D01*
X33149999Y-26919283D02*
X33116666Y-26952616D01*
X33116666Y-26952616D02*
X33049999Y-26985950D01*
X33049999Y-26985950D02*
X32783332Y-26985950D01*
X33883332Y-27252616D02*
X33849999Y-27285950D01*
X33849999Y-27285950D02*
X33749999Y-27319283D01*
X33749999Y-27319283D02*
X33683332Y-27319283D01*
X33683332Y-27319283D02*
X33583332Y-27285950D01*
X33583332Y-27285950D02*
X33516666Y-27219283D01*
X33516666Y-27219283D02*
X33483332Y-27152616D01*
X33483332Y-27152616D02*
X33449999Y-27019283D01*
X33449999Y-27019283D02*
X33449999Y-26919283D01*
X33449999Y-26919283D02*
X33483332Y-26785950D01*
X33483332Y-26785950D02*
X33516666Y-26719283D01*
X33516666Y-26719283D02*
X33583332Y-26652616D01*
X33583332Y-26652616D02*
X33683332Y-26619283D01*
X33683332Y-26619283D02*
X33749999Y-26619283D01*
X33749999Y-26619283D02*
X33849999Y-26652616D01*
X33849999Y-26652616D02*
X33883332Y-26685950D01*
X34283332Y-26919283D02*
X34216666Y-26885950D01*
X34216666Y-26885950D02*
X34183332Y-26852616D01*
X34183332Y-26852616D02*
X34149999Y-26785950D01*
X34149999Y-26785950D02*
X34149999Y-26752616D01*
X34149999Y-26752616D02*
X34183332Y-26685950D01*
X34183332Y-26685950D02*
X34216666Y-26652616D01*
X34216666Y-26652616D02*
X34283332Y-26619283D01*
X34283332Y-26619283D02*
X34416666Y-26619283D01*
X34416666Y-26619283D02*
X34483332Y-26652616D01*
X34483332Y-26652616D02*
X34516666Y-26685950D01*
X34516666Y-26685950D02*
X34549999Y-26752616D01*
X34549999Y-26752616D02*
X34549999Y-26785950D01*
X34549999Y-26785950D02*
X34516666Y-26852616D01*
X34516666Y-26852616D02*
X34483332Y-26885950D01*
X34483332Y-26885950D02*
X34416666Y-26919283D01*
X34416666Y-26919283D02*
X34283332Y-26919283D01*
X34283332Y-26919283D02*
X34216666Y-26952616D01*
X34216666Y-26952616D02*
X34183332Y-26985950D01*
X34183332Y-26985950D02*
X34149999Y-27052616D01*
X34149999Y-27052616D02*
X34149999Y-27185950D01*
X34149999Y-27185950D02*
X34183332Y-27252616D01*
X34183332Y-27252616D02*
X34216666Y-27285950D01*
X34216666Y-27285950D02*
X34283332Y-27319283D01*
X34283332Y-27319283D02*
X34416666Y-27319283D01*
X34416666Y-27319283D02*
X34483332Y-27285950D01*
X34483332Y-27285950D02*
X34516666Y-27252616D01*
X34516666Y-27252616D02*
X34549999Y-27185950D01*
X34549999Y-27185950D02*
X34549999Y-27052616D01*
X34549999Y-27052616D02*
X34516666Y-26985950D01*
X34516666Y-26985950D02*
X34483332Y-26952616D01*
X34483332Y-26952616D02*
X34416666Y-26919283D01*
X35216666Y-27319283D02*
X34816666Y-27319283D01*
X35016666Y-27319283D02*
X35016666Y-26619283D01*
X35016666Y-26619283D02*
X34949999Y-26719283D01*
X34949999Y-26719283D02*
X34883333Y-26785950D01*
X34883333Y-26785950D02*
X34816666Y-26819283D01*
X35450000Y-26619283D02*
X35916666Y-26619283D01*
X35916666Y-26619283D02*
X35616666Y-27319283D01*
X42366667Y-11952616D02*
X42466667Y-11985950D01*
X42466667Y-11985950D02*
X42500000Y-12019283D01*
X42500000Y-12019283D02*
X42533333Y-12085950D01*
X42533333Y-12085950D02*
X42533333Y-12185950D01*
X42533333Y-12185950D02*
X42500000Y-12252616D01*
X42500000Y-12252616D02*
X42466667Y-12285950D01*
X42466667Y-12285950D02*
X42400000Y-12319283D01*
X42400000Y-12319283D02*
X42133333Y-12319283D01*
X42133333Y-12319283D02*
X42133333Y-11619283D01*
X42133333Y-11619283D02*
X42366667Y-11619283D01*
X42366667Y-11619283D02*
X42433333Y-11652616D01*
X42433333Y-11652616D02*
X42466667Y-11685950D01*
X42466667Y-11685950D02*
X42500000Y-11752616D01*
X42500000Y-11752616D02*
X42500000Y-11819283D01*
X42500000Y-11819283D02*
X42466667Y-11885950D01*
X42466667Y-11885950D02*
X42433333Y-11919283D01*
X42433333Y-11919283D02*
X42366667Y-11952616D01*
X42366667Y-11952616D02*
X42133333Y-11952616D01*
X43233333Y-12319283D02*
X43000000Y-11985950D01*
X42833333Y-12319283D02*
X42833333Y-11619283D01*
X42833333Y-11619283D02*
X43100000Y-11619283D01*
X43100000Y-11619283D02*
X43166667Y-11652616D01*
X43166667Y-11652616D02*
X43200000Y-11685950D01*
X43200000Y-11685950D02*
X43233333Y-11752616D01*
X43233333Y-11752616D02*
X43233333Y-11852616D01*
X43233333Y-11852616D02*
X43200000Y-11919283D01*
X43200000Y-11919283D02*
X43166667Y-11952616D01*
X43166667Y-11952616D02*
X43100000Y-11985950D01*
X43100000Y-11985950D02*
X42833333Y-11985950D01*
X43900000Y-12319283D02*
X43500000Y-12319283D01*
X43700000Y-12319283D02*
X43700000Y-11619283D01*
X43700000Y-11619283D02*
X43633333Y-11719283D01*
X43633333Y-11719283D02*
X43566667Y-11785950D01*
X43566667Y-11785950D02*
X43500000Y-11819283D01*
X29366669Y-76819283D02*
X29366669Y-76119283D01*
X29433336Y-76552616D02*
X29633336Y-76819283D01*
X29633336Y-76352616D02*
X29366669Y-76619283D01*
X30033336Y-76819283D02*
X29966670Y-76785950D01*
X29966670Y-76785950D02*
X29933336Y-76752616D01*
X29933336Y-76752616D02*
X29900003Y-76685950D01*
X29900003Y-76685950D02*
X29900003Y-76485950D01*
X29900003Y-76485950D02*
X29933336Y-76419283D01*
X29933336Y-76419283D02*
X29966670Y-76385950D01*
X29966670Y-76385950D02*
X30033336Y-76352616D01*
X30033336Y-76352616D02*
X30133336Y-76352616D01*
X30133336Y-76352616D02*
X30200003Y-76385950D01*
X30200003Y-76385950D02*
X30233336Y-76419283D01*
X30233336Y-76419283D02*
X30266670Y-76485950D01*
X30266670Y-76485950D02*
X30266670Y-76685950D01*
X30266670Y-76685950D02*
X30233336Y-76752616D01*
X30233336Y-76752616D02*
X30200003Y-76785950D01*
X30200003Y-76785950D02*
X30133336Y-76819283D01*
X30133336Y-76819283D02*
X30033336Y-76819283D01*
X30666669Y-76819283D02*
X30600003Y-76785950D01*
X30600003Y-76785950D02*
X30566669Y-76719283D01*
X30566669Y-76719283D02*
X30566669Y-76119283D01*
X30933336Y-76819283D02*
X30933336Y-76352616D01*
X30933336Y-76119283D02*
X30900003Y-76152616D01*
X30900003Y-76152616D02*
X30933336Y-76185950D01*
X30933336Y-76185950D02*
X30966670Y-76152616D01*
X30966670Y-76152616D02*
X30933336Y-76119283D01*
X30933336Y-76119283D02*
X30933336Y-76185950D01*
X31266669Y-76352616D02*
X31266669Y-76819283D01*
X31266669Y-76419283D02*
X31300003Y-76385950D01*
X31300003Y-76385950D02*
X31366669Y-76352616D01*
X31366669Y-76352616D02*
X31466669Y-76352616D01*
X31466669Y-76352616D02*
X31533336Y-76385950D01*
X31533336Y-76385950D02*
X31566669Y-76452616D01*
X31566669Y-76452616D02*
X31566669Y-76819283D01*
X31900002Y-76819283D02*
X31900002Y-76119283D01*
X31966669Y-76552616D02*
X32166669Y-76819283D01*
X32166669Y-76352616D02*
X31900002Y-76619283D01*
X32566669Y-76819283D02*
X32500003Y-76785950D01*
X32500003Y-76785950D02*
X32466669Y-76752616D01*
X32466669Y-76752616D02*
X32433336Y-76685950D01*
X32433336Y-76685950D02*
X32433336Y-76485950D01*
X32433336Y-76485950D02*
X32466669Y-76419283D01*
X32466669Y-76419283D02*
X32500003Y-76385950D01*
X32500003Y-76385950D02*
X32566669Y-76352616D01*
X32566669Y-76352616D02*
X32666669Y-76352616D01*
X32666669Y-76352616D02*
X32733336Y-76385950D01*
X32733336Y-76385950D02*
X32766669Y-76419283D01*
X32766669Y-76419283D02*
X32800003Y-76485950D01*
X32800003Y-76485950D02*
X32800003Y-76685950D01*
X32800003Y-76685950D02*
X32766669Y-76752616D01*
X32766669Y-76752616D02*
X32733336Y-76785950D01*
X32733336Y-76785950D02*
X32666669Y-76819283D01*
X32666669Y-76819283D02*
X32566669Y-76819283D01*
X33100002Y-76752616D02*
X33133336Y-76785950D01*
X33133336Y-76785950D02*
X33100002Y-76819283D01*
X33100002Y-76819283D02*
X33066669Y-76785950D01*
X33066669Y-76785950D02*
X33100002Y-76752616D01*
X33100002Y-76752616D02*
X33100002Y-76819283D01*
X33700002Y-76785950D02*
X33633335Y-76819283D01*
X33633335Y-76819283D02*
X33500002Y-76819283D01*
X33500002Y-76819283D02*
X33433335Y-76785950D01*
X33433335Y-76785950D02*
X33400002Y-76719283D01*
X33400002Y-76719283D02*
X33400002Y-76452616D01*
X33400002Y-76452616D02*
X33433335Y-76385950D01*
X33433335Y-76385950D02*
X33500002Y-76352616D01*
X33500002Y-76352616D02*
X33633335Y-76352616D01*
X33633335Y-76352616D02*
X33700002Y-76385950D01*
X33700002Y-76385950D02*
X33733335Y-76452616D01*
X33733335Y-76452616D02*
X33733335Y-76519283D01*
X33733335Y-76519283D02*
X33400002Y-76585950D01*
X34333335Y-76352616D02*
X34333335Y-76819283D01*
X34033335Y-76352616D02*
X34033335Y-76719283D01*
X34033335Y-76719283D02*
X34066669Y-76785950D01*
X34066669Y-76785950D02*
X34133335Y-76819283D01*
X34133335Y-76819283D02*
X34233335Y-76819283D01*
X34233335Y-76819283D02*
X34300002Y-76785950D01*
X34300002Y-76785950D02*
X34333335Y-76752616D01*
X35166668Y-76085950D02*
X34566668Y-76985950D01*
X35300001Y-76352616D02*
X35566668Y-76352616D01*
X35400001Y-76819283D02*
X35400001Y-76219283D01*
X35400001Y-76219283D02*
X35433335Y-76152616D01*
X35433335Y-76152616D02*
X35500001Y-76119283D01*
X35500001Y-76119283D02*
X35566668Y-76119283D01*
X36066668Y-76785950D02*
X36000001Y-76819283D01*
X36000001Y-76819283D02*
X35866668Y-76819283D01*
X35866668Y-76819283D02*
X35800001Y-76785950D01*
X35800001Y-76785950D02*
X35766668Y-76719283D01*
X35766668Y-76719283D02*
X35766668Y-76452616D01*
X35766668Y-76452616D02*
X35800001Y-76385950D01*
X35800001Y-76385950D02*
X35866668Y-76352616D01*
X35866668Y-76352616D02*
X36000001Y-76352616D01*
X36000001Y-76352616D02*
X36066668Y-76385950D01*
X36066668Y-76385950D02*
X36100001Y-76452616D01*
X36100001Y-76452616D02*
X36100001Y-76519283D01*
X36100001Y-76519283D02*
X35766668Y-76585950D01*
X36400001Y-76819283D02*
X36400001Y-76352616D01*
X36400001Y-76485950D02*
X36433335Y-76419283D01*
X36433335Y-76419283D02*
X36466668Y-76385950D01*
X36466668Y-76385950D02*
X36533335Y-76352616D01*
X36533335Y-76352616D02*
X36600001Y-76352616D01*
X36833334Y-76819283D02*
X36833334Y-76352616D01*
X36833334Y-76419283D02*
X36866668Y-76385950D01*
X36866668Y-76385950D02*
X36933334Y-76352616D01*
X36933334Y-76352616D02*
X37033334Y-76352616D01*
X37033334Y-76352616D02*
X37100001Y-76385950D01*
X37100001Y-76385950D02*
X37133334Y-76452616D01*
X37133334Y-76452616D02*
X37133334Y-76819283D01*
X37133334Y-76452616D02*
X37166668Y-76385950D01*
X37166668Y-76385950D02*
X37233334Y-76352616D01*
X37233334Y-76352616D02*
X37333334Y-76352616D01*
X37333334Y-76352616D02*
X37400001Y-76385950D01*
X37400001Y-76385950D02*
X37433334Y-76452616D01*
X37433334Y-76452616D02*
X37433334Y-76819283D01*
X38066667Y-76819283D02*
X38066667Y-76452616D01*
X38066667Y-76452616D02*
X38033334Y-76385950D01*
X38033334Y-76385950D02*
X37966667Y-76352616D01*
X37966667Y-76352616D02*
X37833334Y-76352616D01*
X37833334Y-76352616D02*
X37766667Y-76385950D01*
X38066667Y-76785950D02*
X38000001Y-76819283D01*
X38000001Y-76819283D02*
X37833334Y-76819283D01*
X37833334Y-76819283D02*
X37766667Y-76785950D01*
X37766667Y-76785950D02*
X37733334Y-76719283D01*
X37733334Y-76719283D02*
X37733334Y-76652616D01*
X37733334Y-76652616D02*
X37766667Y-76585950D01*
X37766667Y-76585950D02*
X37833334Y-76552616D01*
X37833334Y-76552616D02*
X38000001Y-76552616D01*
X38000001Y-76552616D02*
X38066667Y-76519283D01*
X38333334Y-76819283D02*
X38700000Y-76352616D01*
X38333334Y-76352616D02*
X38700000Y-76819283D01*
X38966667Y-76552616D02*
X39500001Y-76552616D01*
X40133334Y-76819283D02*
X40133334Y-76452616D01*
X40133334Y-76452616D02*
X40100001Y-76385950D01*
X40100001Y-76385950D02*
X40033334Y-76352616D01*
X40033334Y-76352616D02*
X39900001Y-76352616D01*
X39900001Y-76352616D02*
X39833334Y-76385950D01*
X40133334Y-76785950D02*
X40066668Y-76819283D01*
X40066668Y-76819283D02*
X39900001Y-76819283D01*
X39900001Y-76819283D02*
X39833334Y-76785950D01*
X39833334Y-76785950D02*
X39800001Y-76719283D01*
X39800001Y-76719283D02*
X39800001Y-76652616D01*
X39800001Y-76652616D02*
X39833334Y-76585950D01*
X39833334Y-76585950D02*
X39900001Y-76552616D01*
X39900001Y-76552616D02*
X40066668Y-76552616D01*
X40066668Y-76552616D02*
X40133334Y-76519283D01*
X40766667Y-76819283D02*
X40766667Y-76119283D01*
X40766667Y-76785950D02*
X40700001Y-76819283D01*
X40700001Y-76819283D02*
X40566667Y-76819283D01*
X40566667Y-76819283D02*
X40500001Y-76785950D01*
X40500001Y-76785950D02*
X40466667Y-76752616D01*
X40466667Y-76752616D02*
X40433334Y-76685950D01*
X40433334Y-76685950D02*
X40433334Y-76485950D01*
X40433334Y-76485950D02*
X40466667Y-76419283D01*
X40466667Y-76419283D02*
X40500001Y-76385950D01*
X40500001Y-76385950D02*
X40566667Y-76352616D01*
X40566667Y-76352616D02*
X40700001Y-76352616D01*
X40700001Y-76352616D02*
X40766667Y-76385950D01*
X41400000Y-76819283D02*
X41400000Y-76452616D01*
X41400000Y-76452616D02*
X41366667Y-76385950D01*
X41366667Y-76385950D02*
X41300000Y-76352616D01*
X41300000Y-76352616D02*
X41166667Y-76352616D01*
X41166667Y-76352616D02*
X41100000Y-76385950D01*
X41400000Y-76785950D02*
X41333334Y-76819283D01*
X41333334Y-76819283D02*
X41166667Y-76819283D01*
X41166667Y-76819283D02*
X41100000Y-76785950D01*
X41100000Y-76785950D02*
X41066667Y-76719283D01*
X41066667Y-76719283D02*
X41066667Y-76652616D01*
X41066667Y-76652616D02*
X41100000Y-76585950D01*
X41100000Y-76585950D02*
X41166667Y-76552616D01*
X41166667Y-76552616D02*
X41333334Y-76552616D01*
X41333334Y-76552616D02*
X41400000Y-76519283D01*
X41733333Y-76352616D02*
X41733333Y-77052616D01*
X41733333Y-76385950D02*
X41800000Y-76352616D01*
X41800000Y-76352616D02*
X41933333Y-76352616D01*
X41933333Y-76352616D02*
X42000000Y-76385950D01*
X42000000Y-76385950D02*
X42033333Y-76419283D01*
X42033333Y-76419283D02*
X42066667Y-76485950D01*
X42066667Y-76485950D02*
X42066667Y-76685950D01*
X42066667Y-76685950D02*
X42033333Y-76752616D01*
X42033333Y-76752616D02*
X42000000Y-76785950D01*
X42000000Y-76785950D02*
X41933333Y-76819283D01*
X41933333Y-76819283D02*
X41800000Y-76819283D01*
X41800000Y-76819283D02*
X41733333Y-76785950D01*
X42266666Y-76352616D02*
X42533333Y-76352616D01*
X42366666Y-76119283D02*
X42366666Y-76719283D01*
X42366666Y-76719283D02*
X42400000Y-76785950D01*
X42400000Y-76785950D02*
X42466666Y-76819283D01*
X42466666Y-76819283D02*
X42533333Y-76819283D01*
X43033333Y-76785950D02*
X42966666Y-76819283D01*
X42966666Y-76819283D02*
X42833333Y-76819283D01*
X42833333Y-76819283D02*
X42766666Y-76785950D01*
X42766666Y-76785950D02*
X42733333Y-76719283D01*
X42733333Y-76719283D02*
X42733333Y-76452616D01*
X42733333Y-76452616D02*
X42766666Y-76385950D01*
X42766666Y-76385950D02*
X42833333Y-76352616D01*
X42833333Y-76352616D02*
X42966666Y-76352616D01*
X42966666Y-76352616D02*
X43033333Y-76385950D01*
X43033333Y-76385950D02*
X43066666Y-76452616D01*
X43066666Y-76452616D02*
X43066666Y-76519283D01*
X43066666Y-76519283D02*
X42733333Y-76585950D01*
X43366666Y-76819283D02*
X43366666Y-76352616D01*
X43366666Y-76485950D02*
X43400000Y-76419283D01*
X43400000Y-76419283D02*
X43433333Y-76385950D01*
X43433333Y-76385950D02*
X43500000Y-76352616D01*
X43500000Y-76352616D02*
X43566666Y-76352616D01*
X44299999Y-76085950D02*
X43699999Y-76985950D01*
X44833332Y-76819283D02*
X44833332Y-76119283D01*
X44833332Y-76785950D02*
X44766666Y-76819283D01*
X44766666Y-76819283D02*
X44633332Y-76819283D01*
X44633332Y-76819283D02*
X44566666Y-76785950D01*
X44566666Y-76785950D02*
X44533332Y-76752616D01*
X44533332Y-76752616D02*
X44499999Y-76685950D01*
X44499999Y-76685950D02*
X44499999Y-76485950D01*
X44499999Y-76485950D02*
X44533332Y-76419283D01*
X44533332Y-76419283D02*
X44566666Y-76385950D01*
X44566666Y-76385950D02*
X44633332Y-76352616D01*
X44633332Y-76352616D02*
X44766666Y-76352616D01*
X44766666Y-76352616D02*
X44833332Y-76385950D01*
X45166665Y-76819283D02*
X45166665Y-76352616D01*
X45166665Y-76119283D02*
X45133332Y-76152616D01*
X45133332Y-76152616D02*
X45166665Y-76185950D01*
X45166665Y-76185950D02*
X45199999Y-76152616D01*
X45199999Y-76152616D02*
X45166665Y-76119283D01*
X45166665Y-76119283D02*
X45166665Y-76185950D01*
X45433332Y-76352616D02*
X45599998Y-76819283D01*
X45766665Y-76352616D02*
X45599998Y-76819283D01*
X45599998Y-76819283D02*
X45533332Y-76985950D01*
X45533332Y-76985950D02*
X45499998Y-77019283D01*
X45499998Y-77019283D02*
X45433332Y-77052616D01*
X47599997Y-76185950D02*
X47633330Y-76152616D01*
X47633330Y-76152616D02*
X47699997Y-76119283D01*
X47699997Y-76119283D02*
X47866664Y-76119283D01*
X47866664Y-76119283D02*
X47933330Y-76152616D01*
X47933330Y-76152616D02*
X47966664Y-76185950D01*
X47966664Y-76185950D02*
X47999997Y-76252616D01*
X47999997Y-76252616D02*
X47999997Y-76319283D01*
X47999997Y-76319283D02*
X47966664Y-76419283D01*
X47966664Y-76419283D02*
X47566664Y-76819283D01*
X47566664Y-76819283D02*
X47999997Y-76819283D01*
X48433331Y-76119283D02*
X48499997Y-76119283D01*
X48499997Y-76119283D02*
X48566664Y-76152616D01*
X48566664Y-76152616D02*
X48599997Y-76185950D01*
X48599997Y-76185950D02*
X48633331Y-76252616D01*
X48633331Y-76252616D02*
X48666664Y-76385950D01*
X48666664Y-76385950D02*
X48666664Y-76552616D01*
X48666664Y-76552616D02*
X48633331Y-76685950D01*
X48633331Y-76685950D02*
X48599997Y-76752616D01*
X48599997Y-76752616D02*
X48566664Y-76785950D01*
X48566664Y-76785950D02*
X48499997Y-76819283D01*
X48499997Y-76819283D02*
X48433331Y-76819283D01*
X48433331Y-76819283D02*
X48366664Y-76785950D01*
X48366664Y-76785950D02*
X48333331Y-76752616D01*
X48333331Y-76752616D02*
X48299997Y-76685950D01*
X48299997Y-76685950D02*
X48266664Y-76552616D01*
X48266664Y-76552616D02*
X48266664Y-76385950D01*
X48266664Y-76385950D02*
X48299997Y-76252616D01*
X48299997Y-76252616D02*
X48333331Y-76185950D01*
X48333331Y-76185950D02*
X48366664Y-76152616D01*
X48366664Y-76152616D02*
X48433331Y-76119283D01*
X48933331Y-76185950D02*
X48966664Y-76152616D01*
X48966664Y-76152616D02*
X49033331Y-76119283D01*
X49033331Y-76119283D02*
X49199998Y-76119283D01*
X49199998Y-76119283D02*
X49266664Y-76152616D01*
X49266664Y-76152616D02*
X49299998Y-76185950D01*
X49299998Y-76185950D02*
X49333331Y-76252616D01*
X49333331Y-76252616D02*
X49333331Y-76319283D01*
X49333331Y-76319283D02*
X49299998Y-76419283D01*
X49299998Y-76419283D02*
X48899998Y-76819283D01*
X48899998Y-76819283D02*
X49333331Y-76819283D01*
X49933331Y-76119283D02*
X49799998Y-76119283D01*
X49799998Y-76119283D02*
X49733331Y-76152616D01*
X49733331Y-76152616D02*
X49699998Y-76185950D01*
X49699998Y-76185950D02*
X49633331Y-76285950D01*
X49633331Y-76285950D02*
X49599998Y-76419283D01*
X49599998Y-76419283D02*
X49599998Y-76685950D01*
X49599998Y-76685950D02*
X49633331Y-76752616D01*
X49633331Y-76752616D02*
X49666665Y-76785950D01*
X49666665Y-76785950D02*
X49733331Y-76819283D01*
X49733331Y-76819283D02*
X49866665Y-76819283D01*
X49866665Y-76819283D02*
X49933331Y-76785950D01*
X49933331Y-76785950D02*
X49966665Y-76752616D01*
X49966665Y-76752616D02*
X49999998Y-76685950D01*
X49999998Y-76685950D02*
X49999998Y-76519283D01*
X49999998Y-76519283D02*
X49966665Y-76452616D01*
X49966665Y-76452616D02*
X49933331Y-76419283D01*
X49933331Y-76419283D02*
X49866665Y-76385950D01*
X49866665Y-76385950D02*
X49733331Y-76385950D01*
X49733331Y-76385950D02*
X49666665Y-76419283D01*
X49666665Y-76419283D02*
X49633331Y-76452616D01*
X49633331Y-76452616D02*
X49599998Y-76519283D01*
X50299998Y-76552616D02*
X50833332Y-76552616D01*
X51299999Y-76119283D02*
X51366665Y-76119283D01*
X51366665Y-76119283D02*
X51433332Y-76152616D01*
X51433332Y-76152616D02*
X51466665Y-76185950D01*
X51466665Y-76185950D02*
X51499999Y-76252616D01*
X51499999Y-76252616D02*
X51533332Y-76385950D01*
X51533332Y-76385950D02*
X51533332Y-76552616D01*
X51533332Y-76552616D02*
X51499999Y-76685950D01*
X51499999Y-76685950D02*
X51466665Y-76752616D01*
X51466665Y-76752616D02*
X51433332Y-76785950D01*
X51433332Y-76785950D02*
X51366665Y-76819283D01*
X51366665Y-76819283D02*
X51299999Y-76819283D01*
X51299999Y-76819283D02*
X51233332Y-76785950D01*
X51233332Y-76785950D02*
X51199999Y-76752616D01*
X51199999Y-76752616D02*
X51166665Y-76685950D01*
X51166665Y-76685950D02*
X51133332Y-76552616D01*
X51133332Y-76552616D02*
X51133332Y-76385950D01*
X51133332Y-76385950D02*
X51166665Y-76252616D01*
X51166665Y-76252616D02*
X51199999Y-76185950D01*
X51199999Y-76185950D02*
X51233332Y-76152616D01*
X51233332Y-76152616D02*
X51299999Y-76119283D01*
X52133332Y-76352616D02*
X52133332Y-76819283D01*
X51966666Y-76085950D02*
X51799999Y-76585950D01*
X51799999Y-76585950D02*
X52233332Y-76585950D01*
X52499999Y-76552616D02*
X53033333Y-76552616D01*
X53733333Y-76819283D02*
X53333333Y-76819283D01*
X53533333Y-76819283D02*
X53533333Y-76119283D01*
X53533333Y-76119283D02*
X53466666Y-76219283D01*
X53466666Y-76219283D02*
X53400000Y-76285950D01*
X53400000Y-76285950D02*
X53333333Y-76319283D01*
X54133333Y-76419283D02*
X54066667Y-76385950D01*
X54066667Y-76385950D02*
X54033333Y-76352616D01*
X54033333Y-76352616D02*
X54000000Y-76285950D01*
X54000000Y-76285950D02*
X54000000Y-76252616D01*
X54000000Y-76252616D02*
X54033333Y-76185950D01*
X54033333Y-76185950D02*
X54066667Y-76152616D01*
X54066667Y-76152616D02*
X54133333Y-76119283D01*
X54133333Y-76119283D02*
X54266667Y-76119283D01*
X54266667Y-76119283D02*
X54333333Y-76152616D01*
X54333333Y-76152616D02*
X54366667Y-76185950D01*
X54366667Y-76185950D02*
X54400000Y-76252616D01*
X54400000Y-76252616D02*
X54400000Y-76285950D01*
X54400000Y-76285950D02*
X54366667Y-76352616D01*
X54366667Y-76352616D02*
X54333333Y-76385950D01*
X54333333Y-76385950D02*
X54266667Y-76419283D01*
X54266667Y-76419283D02*
X54133333Y-76419283D01*
X54133333Y-76419283D02*
X54066667Y-76452616D01*
X54066667Y-76452616D02*
X54033333Y-76485950D01*
X54033333Y-76485950D02*
X54000000Y-76552616D01*
X54000000Y-76552616D02*
X54000000Y-76685950D01*
X54000000Y-76685950D02*
X54033333Y-76752616D01*
X54033333Y-76752616D02*
X54066667Y-76785950D01*
X54066667Y-76785950D02*
X54133333Y-76819283D01*
X54133333Y-76819283D02*
X54266667Y-76819283D01*
X54266667Y-76819283D02*
X54333333Y-76785950D01*
X54333333Y-76785950D02*
X54366667Y-76752616D01*
X54366667Y-76752616D02*
X54400000Y-76685950D01*
X54400000Y-76685950D02*
X54400000Y-76552616D01*
X54400000Y-76552616D02*
X54366667Y-76485950D01*
X54366667Y-76485950D02*
X54333333Y-76452616D01*
X54333333Y-76452616D02*
X54266667Y-76419283D01*
X56699999Y-76752616D02*
X56666666Y-76785950D01*
X56666666Y-76785950D02*
X56566666Y-76819283D01*
X56566666Y-76819283D02*
X56499999Y-76819283D01*
X56499999Y-76819283D02*
X56399999Y-76785950D01*
X56399999Y-76785950D02*
X56333333Y-76719283D01*
X56333333Y-76719283D02*
X56299999Y-76652616D01*
X56299999Y-76652616D02*
X56266666Y-76519283D01*
X56266666Y-76519283D02*
X56266666Y-76419283D01*
X56266666Y-76419283D02*
X56299999Y-76285950D01*
X56299999Y-76285950D02*
X56333333Y-76219283D01*
X56333333Y-76219283D02*
X56399999Y-76152616D01*
X56399999Y-76152616D02*
X56499999Y-76119283D01*
X56499999Y-76119283D02*
X56566666Y-76119283D01*
X56566666Y-76119283D02*
X56666666Y-76152616D01*
X56666666Y-76152616D02*
X56699999Y-76185950D01*
X57099999Y-76819283D02*
X57033333Y-76785950D01*
X57033333Y-76785950D02*
X56999999Y-76719283D01*
X56999999Y-76719283D02*
X56999999Y-76119283D01*
X57666666Y-76819283D02*
X57666666Y-76452616D01*
X57666666Y-76452616D02*
X57633333Y-76385950D01*
X57633333Y-76385950D02*
X57566666Y-76352616D01*
X57566666Y-76352616D02*
X57433333Y-76352616D01*
X57433333Y-76352616D02*
X57366666Y-76385950D01*
X57666666Y-76785950D02*
X57600000Y-76819283D01*
X57600000Y-76819283D02*
X57433333Y-76819283D01*
X57433333Y-76819283D02*
X57366666Y-76785950D01*
X57366666Y-76785950D02*
X57333333Y-76719283D01*
X57333333Y-76719283D02*
X57333333Y-76652616D01*
X57333333Y-76652616D02*
X57366666Y-76585950D01*
X57366666Y-76585950D02*
X57433333Y-76552616D01*
X57433333Y-76552616D02*
X57600000Y-76552616D01*
X57600000Y-76552616D02*
X57666666Y-76519283D01*
X58299999Y-76352616D02*
X58299999Y-76819283D01*
X57999999Y-76352616D02*
X57999999Y-76719283D01*
X57999999Y-76719283D02*
X58033333Y-76785950D01*
X58033333Y-76785950D02*
X58099999Y-76819283D01*
X58099999Y-76819283D02*
X58199999Y-76819283D01*
X58199999Y-76819283D02*
X58266666Y-76785950D01*
X58266666Y-76785950D02*
X58299999Y-76752616D01*
X58933332Y-76819283D02*
X58933332Y-76119283D01*
X58933332Y-76785950D02*
X58866666Y-76819283D01*
X58866666Y-76819283D02*
X58733332Y-76819283D01*
X58733332Y-76819283D02*
X58666666Y-76785950D01*
X58666666Y-76785950D02*
X58633332Y-76752616D01*
X58633332Y-76752616D02*
X58599999Y-76685950D01*
X58599999Y-76685950D02*
X58599999Y-76485950D01*
X58599999Y-76485950D02*
X58633332Y-76419283D01*
X58633332Y-76419283D02*
X58666666Y-76385950D01*
X58666666Y-76385950D02*
X58733332Y-76352616D01*
X58733332Y-76352616D02*
X58866666Y-76352616D01*
X58866666Y-76352616D02*
X58933332Y-76385950D01*
X59533332Y-76785950D02*
X59466665Y-76819283D01*
X59466665Y-76819283D02*
X59333332Y-76819283D01*
X59333332Y-76819283D02*
X59266665Y-76785950D01*
X59266665Y-76785950D02*
X59233332Y-76719283D01*
X59233332Y-76719283D02*
X59233332Y-76452616D01*
X59233332Y-76452616D02*
X59266665Y-76385950D01*
X59266665Y-76385950D02*
X59333332Y-76352616D01*
X59333332Y-76352616D02*
X59466665Y-76352616D01*
X59466665Y-76352616D02*
X59533332Y-76385950D01*
X59533332Y-76385950D02*
X59566665Y-76452616D01*
X59566665Y-76452616D02*
X59566665Y-76519283D01*
X59566665Y-76519283D02*
X59233332Y-76585950D01*
X60533332Y-76119283D02*
X60666665Y-76119283D01*
X60666665Y-76119283D02*
X60733332Y-76152616D01*
X60733332Y-76152616D02*
X60799998Y-76219283D01*
X60799998Y-76219283D02*
X60833332Y-76352616D01*
X60833332Y-76352616D02*
X60833332Y-76585950D01*
X60833332Y-76585950D02*
X60799998Y-76719283D01*
X60799998Y-76719283D02*
X60733332Y-76785950D01*
X60733332Y-76785950D02*
X60666665Y-76819283D01*
X60666665Y-76819283D02*
X60533332Y-76819283D01*
X60533332Y-76819283D02*
X60466665Y-76785950D01*
X60466665Y-76785950D02*
X60399998Y-76719283D01*
X60399998Y-76719283D02*
X60366665Y-76585950D01*
X60366665Y-76585950D02*
X60366665Y-76352616D01*
X60366665Y-76352616D02*
X60399998Y-76219283D01*
X60399998Y-76219283D02*
X60466665Y-76152616D01*
X60466665Y-76152616D02*
X60533332Y-76119283D01*
X61133331Y-76352616D02*
X61133331Y-77052616D01*
X61133331Y-76385950D02*
X61199998Y-76352616D01*
X61199998Y-76352616D02*
X61333331Y-76352616D01*
X61333331Y-76352616D02*
X61399998Y-76385950D01*
X61399998Y-76385950D02*
X61433331Y-76419283D01*
X61433331Y-76419283D02*
X61466665Y-76485950D01*
X61466665Y-76485950D02*
X61466665Y-76685950D01*
X61466665Y-76685950D02*
X61433331Y-76752616D01*
X61433331Y-76752616D02*
X61399998Y-76785950D01*
X61399998Y-76785950D02*
X61333331Y-76819283D01*
X61333331Y-76819283D02*
X61199998Y-76819283D01*
X61199998Y-76819283D02*
X61133331Y-76785950D01*
X62066664Y-76352616D02*
X62066664Y-76819283D01*
X61766664Y-76352616D02*
X61766664Y-76719283D01*
X61766664Y-76719283D02*
X61799998Y-76785950D01*
X61799998Y-76785950D02*
X61866664Y-76819283D01*
X61866664Y-76819283D02*
X61966664Y-76819283D01*
X61966664Y-76819283D02*
X62033331Y-76785950D01*
X62033331Y-76785950D02*
X62066664Y-76752616D01*
X62366664Y-76785950D02*
X62433331Y-76819283D01*
X62433331Y-76819283D02*
X62566664Y-76819283D01*
X62566664Y-76819283D02*
X62633331Y-76785950D01*
X62633331Y-76785950D02*
X62666664Y-76719283D01*
X62666664Y-76719283D02*
X62666664Y-76685950D01*
X62666664Y-76685950D02*
X62633331Y-76619283D01*
X62633331Y-76619283D02*
X62566664Y-76585950D01*
X62566664Y-76585950D02*
X62466664Y-76585950D01*
X62466664Y-76585950D02*
X62399997Y-76552616D01*
X62399997Y-76552616D02*
X62366664Y-76485950D01*
X62366664Y-76485950D02*
X62366664Y-76452616D01*
X62366664Y-76452616D02*
X62399997Y-76385950D01*
X62399997Y-76385950D02*
X62466664Y-76352616D01*
X62466664Y-76352616D02*
X62566664Y-76352616D01*
X62566664Y-76352616D02*
X62633331Y-76385950D01*
X51949999Y-12752616D02*
X51916666Y-12785950D01*
X51916666Y-12785950D02*
X51816666Y-12819283D01*
X51816666Y-12819283D02*
X51749999Y-12819283D01*
X51749999Y-12819283D02*
X51649999Y-12785950D01*
X51649999Y-12785950D02*
X51583333Y-12719283D01*
X51583333Y-12719283D02*
X51549999Y-12652616D01*
X51549999Y-12652616D02*
X51516666Y-12519283D01*
X51516666Y-12519283D02*
X51516666Y-12419283D01*
X51516666Y-12419283D02*
X51549999Y-12285950D01*
X51549999Y-12285950D02*
X51583333Y-12219283D01*
X51583333Y-12219283D02*
X51649999Y-12152616D01*
X51649999Y-12152616D02*
X51749999Y-12119283D01*
X51749999Y-12119283D02*
X51816666Y-12119283D01*
X51816666Y-12119283D02*
X51916666Y-12152616D01*
X51916666Y-12152616D02*
X51949999Y-12185950D01*
X52616666Y-12819283D02*
X52216666Y-12819283D01*
X52416666Y-12819283D02*
X52416666Y-12119283D01*
X52416666Y-12119283D02*
X52349999Y-12219283D01*
X52349999Y-12219283D02*
X52283333Y-12285950D01*
X52283333Y-12285950D02*
X52216666Y-12319283D01*
X53749999Y-12352616D02*
X53749999Y-12819283D01*
X53583333Y-12085950D02*
X53416666Y-12585950D01*
X53416666Y-12585950D02*
X53849999Y-12585950D01*
X54050000Y-12119283D02*
X54516666Y-12119283D01*
X54516666Y-12119283D02*
X54216666Y-12819283D01*
X54916667Y-12119283D02*
X54983333Y-12119283D01*
X54983333Y-12119283D02*
X55050000Y-12152616D01*
X55050000Y-12152616D02*
X55083333Y-12185950D01*
X55083333Y-12185950D02*
X55116667Y-12252616D01*
X55116667Y-12252616D02*
X55150000Y-12385950D01*
X55150000Y-12385950D02*
X55150000Y-12552616D01*
X55150000Y-12552616D02*
X55116667Y-12685950D01*
X55116667Y-12685950D02*
X55083333Y-12752616D01*
X55083333Y-12752616D02*
X55050000Y-12785950D01*
X55050000Y-12785950D02*
X54983333Y-12819283D01*
X54983333Y-12819283D02*
X54916667Y-12819283D01*
X54916667Y-12819283D02*
X54850000Y-12785950D01*
X54850000Y-12785950D02*
X54816667Y-12752616D01*
X54816667Y-12752616D02*
X54783333Y-12685950D01*
X54783333Y-12685950D02*
X54750000Y-12552616D01*
X54750000Y-12552616D02*
X54750000Y-12385950D01*
X54750000Y-12385950D02*
X54783333Y-12252616D01*
X54783333Y-12252616D02*
X54816667Y-12185950D01*
X54816667Y-12185950D02*
X54850000Y-12152616D01*
X54850000Y-12152616D02*
X54916667Y-12119283D01*
X55450000Y-12352616D02*
X55450000Y-13052616D01*
X55783334Y-12719283D02*
X55816667Y-12785950D01*
X55816667Y-12785950D02*
X55883334Y-12819283D01*
X55450000Y-12719283D02*
X55483334Y-12785950D01*
X55483334Y-12785950D02*
X55550000Y-12819283D01*
X55550000Y-12819283D02*
X55683334Y-12819283D01*
X55683334Y-12819283D02*
X55750000Y-12785950D01*
X55750000Y-12785950D02*
X55783334Y-12719283D01*
X55783334Y-12719283D02*
X55783334Y-12352616D01*
X56416667Y-12452616D02*
X56183333Y-12452616D01*
X56183333Y-12819283D02*
X56183333Y-12119283D01*
X56183333Y-12119283D02*
X56516667Y-12119283D01*
X63466666Y-13119283D02*
X63466666Y-13685950D01*
X63466666Y-13685950D02*
X63500000Y-13752616D01*
X63500000Y-13752616D02*
X63533333Y-13785950D01*
X63533333Y-13785950D02*
X63600000Y-13819283D01*
X63600000Y-13819283D02*
X63733333Y-13819283D01*
X63733333Y-13819283D02*
X63800000Y-13785950D01*
X63800000Y-13785950D02*
X63833333Y-13752616D01*
X63833333Y-13752616D02*
X63866666Y-13685950D01*
X63866666Y-13685950D02*
X63866666Y-13119283D01*
X64566666Y-13819283D02*
X64166666Y-13819283D01*
X64366666Y-13819283D02*
X64366666Y-13119283D01*
X64366666Y-13119283D02*
X64299999Y-13219283D01*
X64299999Y-13219283D02*
X64233333Y-13285950D01*
X64233333Y-13285950D02*
X64166666Y-13319283D01*
X67883333Y-13752616D02*
X67850000Y-13785950D01*
X67850000Y-13785950D02*
X67750000Y-13819283D01*
X67750000Y-13819283D02*
X67683333Y-13819283D01*
X67683333Y-13819283D02*
X67583333Y-13785950D01*
X67583333Y-13785950D02*
X67516667Y-13719283D01*
X67516667Y-13719283D02*
X67483333Y-13652616D01*
X67483333Y-13652616D02*
X67450000Y-13519283D01*
X67450000Y-13519283D02*
X67450000Y-13419283D01*
X67450000Y-13419283D02*
X67483333Y-13285950D01*
X67483333Y-13285950D02*
X67516667Y-13219283D01*
X67516667Y-13219283D02*
X67583333Y-13152616D01*
X67583333Y-13152616D02*
X67683333Y-13119283D01*
X67683333Y-13119283D02*
X67750000Y-13119283D01*
X67750000Y-13119283D02*
X67850000Y-13152616D01*
X67850000Y-13152616D02*
X67883333Y-13185950D01*
X68150000Y-13185950D02*
X68183333Y-13152616D01*
X68183333Y-13152616D02*
X68250000Y-13119283D01*
X68250000Y-13119283D02*
X68416667Y-13119283D01*
X68416667Y-13119283D02*
X68483333Y-13152616D01*
X68483333Y-13152616D02*
X68516667Y-13185950D01*
X68516667Y-13185950D02*
X68550000Y-13252616D01*
X68550000Y-13252616D02*
X68550000Y-13319283D01*
X68550000Y-13319283D02*
X68516667Y-13419283D01*
X68516667Y-13419283D02*
X68116667Y-13819283D01*
X68116667Y-13819283D02*
X68550000Y-13819283D01*
X79066666Y-12785950D02*
X79166666Y-12819283D01*
X79166666Y-12819283D02*
X79333333Y-12819283D01*
X79333333Y-12819283D02*
X79399999Y-12785950D01*
X79399999Y-12785950D02*
X79433333Y-12752616D01*
X79433333Y-12752616D02*
X79466666Y-12685950D01*
X79466666Y-12685950D02*
X79466666Y-12619283D01*
X79466666Y-12619283D02*
X79433333Y-12552616D01*
X79433333Y-12552616D02*
X79399999Y-12519283D01*
X79399999Y-12519283D02*
X79333333Y-12485950D01*
X79333333Y-12485950D02*
X79199999Y-12452616D01*
X79199999Y-12452616D02*
X79133333Y-12419283D01*
X79133333Y-12419283D02*
X79099999Y-12385950D01*
X79099999Y-12385950D02*
X79066666Y-12319283D01*
X79066666Y-12319283D02*
X79066666Y-12252616D01*
X79066666Y-12252616D02*
X79099999Y-12185950D01*
X79099999Y-12185950D02*
X79133333Y-12152616D01*
X79133333Y-12152616D02*
X79199999Y-12119283D01*
X79199999Y-12119283D02*
X79366666Y-12119283D01*
X79366666Y-12119283D02*
X79466666Y-12152616D01*
X79700000Y-12119283D02*
X79866666Y-12819283D01*
X79866666Y-12819283D02*
X80000000Y-12319283D01*
X80000000Y-12319283D02*
X80133333Y-12819283D01*
X80133333Y-12819283D02*
X80300000Y-12119283D01*
X80933333Y-12819283D02*
X80533333Y-12819283D01*
X80733333Y-12819283D02*
X80733333Y-12119283D01*
X80733333Y-12119283D02*
X80666666Y-12219283D01*
X80666666Y-12219283D02*
X80600000Y-12285950D01*
X80600000Y-12285950D02*
X80533333Y-12319283D01*
D13*
X6671429Y-12010507D02*
X6671429Y-12653364D01*
X6671429Y-12653364D02*
X6628572Y-12781935D01*
X6628572Y-12781935D02*
X6542858Y-12867650D01*
X6542858Y-12867650D02*
X6414286Y-12910507D01*
X6414286Y-12910507D02*
X6328572Y-12910507D01*
X7571429Y-12910507D02*
X7057143Y-12910507D01*
X7314286Y-12910507D02*
X7314286Y-12010507D01*
X7314286Y-12010507D02*
X7228572Y-12139078D01*
X7228572Y-12139078D02*
X7142857Y-12224792D01*
X7142857Y-12224792D02*
X7057143Y-12267650D01*
X8642857Y-12910507D02*
X8642857Y-12010507D01*
X9071428Y-12910507D02*
X9071428Y-12010507D01*
X9071428Y-12010507D02*
X9585714Y-12910507D01*
X9585714Y-12910507D02*
X9585714Y-12010507D01*
X52807142Y-28010507D02*
X52807142Y-28739078D01*
X52807142Y-28739078D02*
X52849999Y-28824792D01*
X52849999Y-28824792D02*
X52892857Y-28867650D01*
X52892857Y-28867650D02*
X52978571Y-28910507D01*
X52978571Y-28910507D02*
X53149999Y-28910507D01*
X53149999Y-28910507D02*
X53235714Y-28867650D01*
X53235714Y-28867650D02*
X53278571Y-28824792D01*
X53278571Y-28824792D02*
X53321428Y-28739078D01*
X53321428Y-28739078D02*
X53321428Y-28010507D01*
X53664285Y-28010507D02*
X54221428Y-28010507D01*
X54221428Y-28010507D02*
X53921428Y-28353364D01*
X53921428Y-28353364D02*
X54049999Y-28353364D01*
X54049999Y-28353364D02*
X54135714Y-28396221D01*
X54135714Y-28396221D02*
X54178571Y-28439078D01*
X54178571Y-28439078D02*
X54221428Y-28524792D01*
X54221428Y-28524792D02*
X54221428Y-28739078D01*
X54221428Y-28739078D02*
X54178571Y-28824792D01*
X54178571Y-28824792D02*
X54135714Y-28867650D01*
X54135714Y-28867650D02*
X54049999Y-28910507D01*
X54049999Y-28910507D02*
X53792856Y-28910507D01*
X53792856Y-28910507D02*
X53707142Y-28867650D01*
X53707142Y-28867650D02*
X53664285Y-28824792D01*
X55292856Y-28910507D02*
X55292856Y-28010507D01*
X55292856Y-28010507D02*
X55807142Y-28910507D01*
X55807142Y-28910507D02*
X55807142Y-28010507D01*
X56235713Y-28439078D02*
X56535713Y-28439078D01*
X56664285Y-28910507D02*
X56235713Y-28910507D01*
X56235713Y-28910507D02*
X56235713Y-28010507D01*
X56235713Y-28010507D02*
X56664285Y-28010507D01*
X57478571Y-28010507D02*
X57049999Y-28010507D01*
X57049999Y-28010507D02*
X57007142Y-28439078D01*
X57007142Y-28439078D02*
X57049999Y-28396221D01*
X57049999Y-28396221D02*
X57135714Y-28353364D01*
X57135714Y-28353364D02*
X57349999Y-28353364D01*
X57349999Y-28353364D02*
X57435714Y-28396221D01*
X57435714Y-28396221D02*
X57478571Y-28439078D01*
X57478571Y-28439078D02*
X57521428Y-28524792D01*
X57521428Y-28524792D02*
X57521428Y-28739078D01*
X57521428Y-28739078D02*
X57478571Y-28824792D01*
X57478571Y-28824792D02*
X57435714Y-28867650D01*
X57435714Y-28867650D02*
X57349999Y-28910507D01*
X57349999Y-28910507D02*
X57135714Y-28910507D01*
X57135714Y-28910507D02*
X57049999Y-28867650D01*
X57049999Y-28867650D02*
X57007142Y-28824792D01*
X58335714Y-28010507D02*
X57907142Y-28010507D01*
X57907142Y-28010507D02*
X57864285Y-28439078D01*
X57864285Y-28439078D02*
X57907142Y-28396221D01*
X57907142Y-28396221D02*
X57992857Y-28353364D01*
X57992857Y-28353364D02*
X58207142Y-28353364D01*
X58207142Y-28353364D02*
X58292857Y-28396221D01*
X58292857Y-28396221D02*
X58335714Y-28439078D01*
X58335714Y-28439078D02*
X58378571Y-28524792D01*
X58378571Y-28524792D02*
X58378571Y-28739078D01*
X58378571Y-28739078D02*
X58335714Y-28824792D01*
X58335714Y-28824792D02*
X58292857Y-28867650D01*
X58292857Y-28867650D02*
X58207142Y-28910507D01*
X58207142Y-28910507D02*
X57992857Y-28910507D01*
X57992857Y-28910507D02*
X57907142Y-28867650D01*
X57907142Y-28867650D02*
X57864285Y-28824792D01*
X59150000Y-28010507D02*
X58978571Y-28010507D01*
X58978571Y-28010507D02*
X58892857Y-28053364D01*
X58892857Y-28053364D02*
X58850000Y-28096221D01*
X58850000Y-28096221D02*
X58764285Y-28224792D01*
X58764285Y-28224792D02*
X58721428Y-28396221D01*
X58721428Y-28396221D02*
X58721428Y-28739078D01*
X58721428Y-28739078D02*
X58764285Y-28824792D01*
X58764285Y-28824792D02*
X58807142Y-28867650D01*
X58807142Y-28867650D02*
X58892857Y-28910507D01*
X58892857Y-28910507D02*
X59064285Y-28910507D01*
X59064285Y-28910507D02*
X59150000Y-28867650D01*
X59150000Y-28867650D02*
X59192857Y-28824792D01*
X59192857Y-28824792D02*
X59235714Y-28739078D01*
X59235714Y-28739078D02*
X59235714Y-28524792D01*
X59235714Y-28524792D02*
X59192857Y-28439078D01*
X59192857Y-28439078D02*
X59150000Y-28396221D01*
X59150000Y-28396221D02*
X59064285Y-28353364D01*
X59064285Y-28353364D02*
X58892857Y-28353364D01*
X58892857Y-28353364D02*
X58807142Y-28396221D01*
X58807142Y-28396221D02*
X58764285Y-28439078D01*
X58764285Y-28439078D02*
X58721428Y-28524792D01*
D14*
X27116668Y-2425540D02*
X26750001Y-2425540D01*
X26750001Y-3001730D02*
X26750001Y-1901730D01*
X26750001Y-1901730D02*
X27273811Y-1901730D01*
X27692858Y-2425540D02*
X28059525Y-2425540D01*
X28216668Y-3001730D02*
X27692858Y-3001730D01*
X27692858Y-3001730D02*
X27692858Y-1901730D01*
X27692858Y-1901730D02*
X28216668Y-1901730D01*
X29316668Y-3001730D02*
X28950001Y-2477921D01*
X28688096Y-3001730D02*
X28688096Y-1901730D01*
X28688096Y-1901730D02*
X29107144Y-1901730D01*
X29107144Y-1901730D02*
X29211906Y-1954111D01*
X29211906Y-1954111D02*
X29264287Y-2006492D01*
X29264287Y-2006492D02*
X29316668Y-2111254D01*
X29316668Y-2111254D02*
X29316668Y-2268397D01*
X29316668Y-2268397D02*
X29264287Y-2373159D01*
X29264287Y-2373159D02*
X29211906Y-2425540D01*
X29211906Y-2425540D02*
X29107144Y-2477921D01*
X29107144Y-2477921D02*
X28688096Y-2477921D01*
X29788096Y-3001730D02*
X29788096Y-1901730D01*
X29788096Y-1901730D02*
X30154763Y-2687445D01*
X30154763Y-2687445D02*
X30521430Y-1901730D01*
X30521430Y-1901730D02*
X30521430Y-3001730D01*
X30992858Y-2687445D02*
X31516668Y-2687445D01*
X30888096Y-3001730D02*
X31254763Y-1901730D01*
X31254763Y-1901730D02*
X31621430Y-3001730D01*
X31883334Y-1901730D02*
X32616668Y-3001730D01*
X32616668Y-1901730D02*
X31883334Y-3001730D01*
X34030953Y-2373159D02*
X33926191Y-2320778D01*
X33926191Y-2320778D02*
X33873810Y-2268397D01*
X33873810Y-2268397D02*
X33821429Y-2163635D01*
X33821429Y-2163635D02*
X33821429Y-2111254D01*
X33821429Y-2111254D02*
X33873810Y-2006492D01*
X33873810Y-2006492D02*
X33926191Y-1954111D01*
X33926191Y-1954111D02*
X34030953Y-1901730D01*
X34030953Y-1901730D02*
X34240477Y-1901730D01*
X34240477Y-1901730D02*
X34345239Y-1954111D01*
X34345239Y-1954111D02*
X34397620Y-2006492D01*
X34397620Y-2006492D02*
X34450001Y-2111254D01*
X34450001Y-2111254D02*
X34450001Y-2163635D01*
X34450001Y-2163635D02*
X34397620Y-2268397D01*
X34397620Y-2268397D02*
X34345239Y-2320778D01*
X34345239Y-2320778D02*
X34240477Y-2373159D01*
X34240477Y-2373159D02*
X34030953Y-2373159D01*
X34030953Y-2373159D02*
X33926191Y-2425540D01*
X33926191Y-2425540D02*
X33873810Y-2477921D01*
X33873810Y-2477921D02*
X33821429Y-2582683D01*
X33821429Y-2582683D02*
X33821429Y-2792207D01*
X33821429Y-2792207D02*
X33873810Y-2896969D01*
X33873810Y-2896969D02*
X33926191Y-2949350D01*
X33926191Y-2949350D02*
X34030953Y-3001730D01*
X34030953Y-3001730D02*
X34240477Y-3001730D01*
X34240477Y-3001730D02*
X34345239Y-2949350D01*
X34345239Y-2949350D02*
X34397620Y-2896969D01*
X34397620Y-2896969D02*
X34450001Y-2792207D01*
X34450001Y-2792207D02*
X34450001Y-2582683D01*
X34450001Y-2582683D02*
X34397620Y-2477921D01*
X34397620Y-2477921D02*
X34345239Y-2425540D01*
X34345239Y-2425540D02*
X34240477Y-2373159D01*
X35130953Y-1901730D02*
X35235715Y-1901730D01*
X35235715Y-1901730D02*
X35340477Y-1954111D01*
X35340477Y-1954111D02*
X35392858Y-2006492D01*
X35392858Y-2006492D02*
X35445239Y-2111254D01*
X35445239Y-2111254D02*
X35497620Y-2320778D01*
X35497620Y-2320778D02*
X35497620Y-2582683D01*
X35497620Y-2582683D02*
X35445239Y-2792207D01*
X35445239Y-2792207D02*
X35392858Y-2896969D01*
X35392858Y-2896969D02*
X35340477Y-2949350D01*
X35340477Y-2949350D02*
X35235715Y-3001730D01*
X35235715Y-3001730D02*
X35130953Y-3001730D01*
X35130953Y-3001730D02*
X35026191Y-2949350D01*
X35026191Y-2949350D02*
X34973810Y-2896969D01*
X34973810Y-2896969D02*
X34921429Y-2792207D01*
X34921429Y-2792207D02*
X34869048Y-2582683D01*
X34869048Y-2582683D02*
X34869048Y-2320778D01*
X34869048Y-2320778D02*
X34921429Y-2111254D01*
X34921429Y-2111254D02*
X34973810Y-2006492D01*
X34973810Y-2006492D02*
X35026191Y-1954111D01*
X35026191Y-1954111D02*
X35130953Y-1901730D01*
X36440477Y-2268397D02*
X36440477Y-3001730D01*
X36178572Y-1849350D02*
X35916667Y-2635064D01*
X35916667Y-2635064D02*
X36597620Y-2635064D01*
X37488096Y-2268397D02*
X37488096Y-3001730D01*
X37226191Y-1849350D02*
X36964286Y-2635064D01*
X36964286Y-2635064D02*
X37645239Y-2635064D01*
X37959524Y-1901730D02*
X38692858Y-1901730D01*
X38692858Y-1901730D02*
X38221429Y-3001730D01*
X39897619Y-2687445D02*
X40421429Y-2687445D01*
X39792857Y-3001730D02*
X40159524Y-1901730D01*
X40159524Y-1901730D02*
X40526191Y-3001730D01*
X40892857Y-1901730D02*
X40892857Y-2792207D01*
X40892857Y-2792207D02*
X40945238Y-2896969D01*
X40945238Y-2896969D02*
X40997619Y-2949350D01*
X40997619Y-2949350D02*
X41102381Y-3001730D01*
X41102381Y-3001730D02*
X41311905Y-3001730D01*
X41311905Y-3001730D02*
X41416667Y-2949350D01*
X41416667Y-2949350D02*
X41469048Y-2896969D01*
X41469048Y-2896969D02*
X41521429Y-2792207D01*
X41521429Y-2792207D02*
X41521429Y-1901730D01*
X41888095Y-1901730D02*
X42516667Y-1901730D01*
X42202381Y-3001730D02*
X42202381Y-1901730D01*
X43092857Y-1901730D02*
X43302381Y-1901730D01*
X43302381Y-1901730D02*
X43407143Y-1954111D01*
X43407143Y-1954111D02*
X43511905Y-2058873D01*
X43511905Y-2058873D02*
X43564286Y-2268397D01*
X43564286Y-2268397D02*
X43564286Y-2635064D01*
X43564286Y-2635064D02*
X43511905Y-2844588D01*
X43511905Y-2844588D02*
X43407143Y-2949350D01*
X43407143Y-2949350D02*
X43302381Y-3001730D01*
X43302381Y-3001730D02*
X43092857Y-3001730D01*
X43092857Y-3001730D02*
X42988095Y-2949350D01*
X42988095Y-2949350D02*
X42883333Y-2844588D01*
X42883333Y-2844588D02*
X42830952Y-2635064D01*
X42830952Y-2635064D02*
X42830952Y-2268397D01*
X42830952Y-2268397D02*
X42883333Y-2058873D01*
X42883333Y-2058873D02*
X42988095Y-1954111D01*
X42988095Y-1954111D02*
X43092857Y-1901730D01*
X44035714Y-2582683D02*
X44873810Y-2582683D01*
X45607143Y-1901730D02*
X45816667Y-1901730D01*
X45816667Y-1901730D02*
X45921429Y-1954111D01*
X45921429Y-1954111D02*
X46026191Y-2058873D01*
X46026191Y-2058873D02*
X46078572Y-2268397D01*
X46078572Y-2268397D02*
X46078572Y-2635064D01*
X46078572Y-2635064D02*
X46026191Y-2844588D01*
X46026191Y-2844588D02*
X45921429Y-2949350D01*
X45921429Y-2949350D02*
X45816667Y-3001730D01*
X45816667Y-3001730D02*
X45607143Y-3001730D01*
X45607143Y-3001730D02*
X45502381Y-2949350D01*
X45502381Y-2949350D02*
X45397619Y-2844588D01*
X45397619Y-2844588D02*
X45345238Y-2635064D01*
X45345238Y-2635064D02*
X45345238Y-2268397D01*
X45345238Y-2268397D02*
X45397619Y-2058873D01*
X45397619Y-2058873D02*
X45502381Y-1954111D01*
X45502381Y-1954111D02*
X45607143Y-1901730D01*
X46550000Y-3001730D02*
X46550000Y-1901730D01*
X46550000Y-1901730D02*
X46969048Y-1901730D01*
X46969048Y-1901730D02*
X47073810Y-1954111D01*
X47073810Y-1954111D02*
X47126191Y-2006492D01*
X47126191Y-2006492D02*
X47178572Y-2111254D01*
X47178572Y-2111254D02*
X47178572Y-2268397D01*
X47178572Y-2268397D02*
X47126191Y-2373159D01*
X47126191Y-2373159D02*
X47073810Y-2425540D01*
X47073810Y-2425540D02*
X46969048Y-2477921D01*
X46969048Y-2477921D02*
X46550000Y-2477921D01*
X47650000Y-2425540D02*
X48016667Y-2425540D01*
X48173810Y-3001730D02*
X47650000Y-3001730D01*
X47650000Y-3001730D02*
X47650000Y-1901730D01*
X47650000Y-1901730D02*
X48173810Y-1901730D01*
X48645238Y-3001730D02*
X48645238Y-1901730D01*
X48645238Y-1901730D02*
X49273810Y-3001730D01*
X49273810Y-3001730D02*
X49273810Y-1901730D01*
X50583333Y-2687445D02*
X51107143Y-2687445D01*
X50478571Y-3001730D02*
X50845238Y-1901730D01*
X50845238Y-1901730D02*
X51211905Y-3001730D01*
X51578571Y-3001730D02*
X51578571Y-1901730D01*
X51578571Y-1901730D02*
X51840476Y-1901730D01*
X51840476Y-1901730D02*
X51997619Y-1954111D01*
X51997619Y-1954111D02*
X52102381Y-2058873D01*
X52102381Y-2058873D02*
X52154762Y-2163635D01*
X52154762Y-2163635D02*
X52207143Y-2373159D01*
X52207143Y-2373159D02*
X52207143Y-2530302D01*
X52207143Y-2530302D02*
X52154762Y-2739826D01*
X52154762Y-2739826D02*
X52102381Y-2844588D01*
X52102381Y-2844588D02*
X51997619Y-2949350D01*
X51997619Y-2949350D02*
X51840476Y-3001730D01*
X51840476Y-3001730D02*
X51578571Y-3001730D01*
X52626190Y-2687445D02*
X53150000Y-2687445D01*
X52521428Y-3001730D02*
X52888095Y-1901730D01*
X52888095Y-1901730D02*
X53254762Y-3001730D01*
X53621428Y-3001730D02*
X53621428Y-1901730D01*
X53621428Y-1901730D02*
X54040476Y-1901730D01*
X54040476Y-1901730D02*
X54145238Y-1954111D01*
X54145238Y-1954111D02*
X54197619Y-2006492D01*
X54197619Y-2006492D02*
X54250000Y-2111254D01*
X54250000Y-2111254D02*
X54250000Y-2268397D01*
X54250000Y-2268397D02*
X54197619Y-2373159D01*
X54197619Y-2373159D02*
X54145238Y-2425540D01*
X54145238Y-2425540D02*
X54040476Y-2477921D01*
X54040476Y-2477921D02*
X53621428Y-2477921D01*
X54564285Y-1901730D02*
X55192857Y-1901730D01*
X54878571Y-3001730D02*
X54878571Y-1901730D01*
X55559523Y-2425540D02*
X55926190Y-2425540D01*
X56083333Y-3001730D02*
X55559523Y-3001730D01*
X55559523Y-3001730D02*
X55559523Y-1901730D01*
X55559523Y-1901730D02*
X56083333Y-1901730D01*
X57183333Y-3001730D02*
X56816666Y-2477921D01*
X56554761Y-3001730D02*
X56554761Y-1901730D01*
X56554761Y-1901730D02*
X56973809Y-1901730D01*
X56973809Y-1901730D02*
X57078571Y-1954111D01*
X57078571Y-1954111D02*
X57130952Y-2006492D01*
X57130952Y-2006492D02*
X57183333Y-2111254D01*
X57183333Y-2111254D02*
X57183333Y-2268397D01*
X57183333Y-2268397D02*
X57130952Y-2373159D01*
X57130952Y-2373159D02*
X57078571Y-2425540D01*
X57078571Y-2425540D02*
X56973809Y-2477921D01*
X56973809Y-2477921D02*
X56554761Y-2477921D01*
X58388094Y-2268397D02*
X58649999Y-3001730D01*
X58649999Y-3001730D02*
X58911904Y-2268397D01*
X59907142Y-3001730D02*
X59278570Y-3001730D01*
X59592856Y-3001730D02*
X59592856Y-1901730D01*
X59592856Y-1901730D02*
X59488094Y-2058873D01*
X59488094Y-2058873D02*
X59383332Y-2163635D01*
X59383332Y-2163635D02*
X59278570Y-2216016D01*
X62002380Y-1849350D02*
X61059522Y-3263635D01*
X63207141Y-3001730D02*
X63207141Y-1901730D01*
X63207141Y-1901730D02*
X63469046Y-1901730D01*
X63469046Y-1901730D02*
X63626189Y-1954111D01*
X63626189Y-1954111D02*
X63730951Y-2058873D01*
X63730951Y-2058873D02*
X63783332Y-2163635D01*
X63783332Y-2163635D02*
X63835713Y-2373159D01*
X63835713Y-2373159D02*
X63835713Y-2530302D01*
X63835713Y-2530302D02*
X63783332Y-2739826D01*
X63783332Y-2739826D02*
X63730951Y-2844588D01*
X63730951Y-2844588D02*
X63626189Y-2949350D01*
X63626189Y-2949350D02*
X63469046Y-3001730D01*
X63469046Y-3001730D02*
X63207141Y-3001730D01*
X64307141Y-3001730D02*
X64307141Y-1901730D01*
X65040475Y-2477921D02*
X65040475Y-3001730D01*
X64673808Y-1901730D02*
X65040475Y-2477921D01*
X65040475Y-2477921D02*
X65407142Y-1901730D01*
D15*
X45761905Y-62254819D02*
X45761905Y-61254819D01*
X46333333Y-62254819D02*
X45904762Y-61683390D01*
X46333333Y-61254819D02*
X45761905Y-61826247D01*
X46714286Y-61350057D02*
X46761905Y-61302438D01*
X46761905Y-61302438D02*
X46857143Y-61254819D01*
X46857143Y-61254819D02*
X47095238Y-61254819D01*
X47095238Y-61254819D02*
X47190476Y-61302438D01*
X47190476Y-61302438D02*
X47238095Y-61350057D01*
X47238095Y-61350057D02*
X47285714Y-61445295D01*
X47285714Y-61445295D02*
X47285714Y-61540533D01*
X47285714Y-61540533D02*
X47238095Y-61683390D01*
X47238095Y-61683390D02*
X46666667Y-62254819D01*
X46666667Y-62254819D02*
X47285714Y-62254819D01*
X29984819Y-15086666D02*
X29984819Y-14515238D01*
X30984819Y-14800952D02*
X29984819Y-14800952D01*
X29984819Y-14324761D02*
X30984819Y-13991428D01*
X30984819Y-13991428D02*
X29984819Y-13658095D01*
X30937200Y-13372380D02*
X30984819Y-13229523D01*
X30984819Y-13229523D02*
X30984819Y-12991428D01*
X30984819Y-12991428D02*
X30937200Y-12896190D01*
X30937200Y-12896190D02*
X30889580Y-12848571D01*
X30889580Y-12848571D02*
X30794342Y-12800952D01*
X30794342Y-12800952D02*
X30699104Y-12800952D01*
X30699104Y-12800952D02*
X30603866Y-12848571D01*
X30603866Y-12848571D02*
X30556247Y-12896190D01*
X30556247Y-12896190D02*
X30508628Y-12991428D01*
X30508628Y-12991428D02*
X30461009Y-13181904D01*
X30461009Y-13181904D02*
X30413390Y-13277142D01*
X30413390Y-13277142D02*
X30365771Y-13324761D01*
X30365771Y-13324761D02*
X30270533Y-13372380D01*
X30270533Y-13372380D02*
X30175295Y-13372380D01*
X30175295Y-13372380D02*
X30080057Y-13324761D01*
X30080057Y-13324761D02*
X30032438Y-13277142D01*
X30032438Y-13277142D02*
X29984819Y-13181904D01*
X29984819Y-13181904D02*
X29984819Y-12943809D01*
X29984819Y-12943809D02*
X30032438Y-12800952D01*
X30984819Y-11848571D02*
X30984819Y-12419999D01*
X30984819Y-12134285D02*
X29984819Y-12134285D01*
X29984819Y-12134285D02*
X30127676Y-12229523D01*
X30127676Y-12229523D02*
X30222914Y-12324761D01*
X30222914Y-12324761D02*
X30270533Y-12419999D01*
X31354819Y-18761904D02*
X30354819Y-18761904D01*
X31354819Y-18190476D02*
X30783390Y-18619047D01*
X30354819Y-18190476D02*
X30926247Y-18761904D01*
X76913333Y-45084819D02*
X76580000Y-44608628D01*
X76341905Y-45084819D02*
X76341905Y-44084819D01*
X76341905Y-44084819D02*
X76722857Y-44084819D01*
X76722857Y-44084819D02*
X76818095Y-44132438D01*
X76818095Y-44132438D02*
X76865714Y-44180057D01*
X76865714Y-44180057D02*
X76913333Y-44275295D01*
X76913333Y-44275295D02*
X76913333Y-44418152D01*
X76913333Y-44418152D02*
X76865714Y-44513390D01*
X76865714Y-44513390D02*
X76818095Y-44561009D01*
X76818095Y-44561009D02*
X76722857Y-44608628D01*
X76722857Y-44608628D02*
X76341905Y-44608628D01*
X77484762Y-44513390D02*
X77389524Y-44465771D01*
X77389524Y-44465771D02*
X77341905Y-44418152D01*
X77341905Y-44418152D02*
X77294286Y-44322914D01*
X77294286Y-44322914D02*
X77294286Y-44275295D01*
X77294286Y-44275295D02*
X77341905Y-44180057D01*
X77341905Y-44180057D02*
X77389524Y-44132438D01*
X77389524Y-44132438D02*
X77484762Y-44084819D01*
X77484762Y-44084819D02*
X77675238Y-44084819D01*
X77675238Y-44084819D02*
X77770476Y-44132438D01*
X77770476Y-44132438D02*
X77818095Y-44180057D01*
X77818095Y-44180057D02*
X77865714Y-44275295D01*
X77865714Y-44275295D02*
X77865714Y-44322914D01*
X77865714Y-44322914D02*
X77818095Y-44418152D01*
X77818095Y-44418152D02*
X77770476Y-44465771D01*
X77770476Y-44465771D02*
X77675238Y-44513390D01*
X77675238Y-44513390D02*
X77484762Y-44513390D01*
X77484762Y-44513390D02*
X77389524Y-44561009D01*
X77389524Y-44561009D02*
X77341905Y-44608628D01*
X77341905Y-44608628D02*
X77294286Y-44703866D01*
X77294286Y-44703866D02*
X77294286Y-44894342D01*
X77294286Y-44894342D02*
X77341905Y-44989580D01*
X77341905Y-44989580D02*
X77389524Y-45037200D01*
X77389524Y-45037200D02*
X77484762Y-45084819D01*
X77484762Y-45084819D02*
X77675238Y-45084819D01*
X77675238Y-45084819D02*
X77770476Y-45037200D01*
X77770476Y-45037200D02*
X77818095Y-44989580D01*
X77818095Y-44989580D02*
X77865714Y-44894342D01*
X77865714Y-44894342D02*
X77865714Y-44703866D01*
X77865714Y-44703866D02*
X77818095Y-44608628D01*
X77818095Y-44608628D02*
X77770476Y-44561009D01*
X77770476Y-44561009D02*
X77675238Y-44513390D01*
X68913333Y-45084819D02*
X68580000Y-44608628D01*
X68341905Y-45084819D02*
X68341905Y-44084819D01*
X68341905Y-44084819D02*
X68722857Y-44084819D01*
X68722857Y-44084819D02*
X68818095Y-44132438D01*
X68818095Y-44132438D02*
X68865714Y-44180057D01*
X68865714Y-44180057D02*
X68913333Y-44275295D01*
X68913333Y-44275295D02*
X68913333Y-44418152D01*
X68913333Y-44418152D02*
X68865714Y-44513390D01*
X68865714Y-44513390D02*
X68818095Y-44561009D01*
X68818095Y-44561009D02*
X68722857Y-44608628D01*
X68722857Y-44608628D02*
X68341905Y-44608628D01*
X69818095Y-44084819D02*
X69341905Y-44084819D01*
X69341905Y-44084819D02*
X69294286Y-44561009D01*
X69294286Y-44561009D02*
X69341905Y-44513390D01*
X69341905Y-44513390D02*
X69437143Y-44465771D01*
X69437143Y-44465771D02*
X69675238Y-44465771D01*
X69675238Y-44465771D02*
X69770476Y-44513390D01*
X69770476Y-44513390D02*
X69818095Y-44561009D01*
X69818095Y-44561009D02*
X69865714Y-44656247D01*
X69865714Y-44656247D02*
X69865714Y-44894342D01*
X69865714Y-44894342D02*
X69818095Y-44989580D01*
X69818095Y-44989580D02*
X69770476Y-45037200D01*
X69770476Y-45037200D02*
X69675238Y-45084819D01*
X69675238Y-45084819D02*
X69437143Y-45084819D01*
X69437143Y-45084819D02*
X69341905Y-45037200D01*
X69341905Y-45037200D02*
X69294286Y-44989580D01*
X63084819Y-31586666D02*
X62608628Y-31919999D01*
X63084819Y-32158094D02*
X62084819Y-32158094D01*
X62084819Y-32158094D02*
X62084819Y-31777142D01*
X62084819Y-31777142D02*
X62132438Y-31681904D01*
X62132438Y-31681904D02*
X62180057Y-31634285D01*
X62180057Y-31634285D02*
X62275295Y-31586666D01*
X62275295Y-31586666D02*
X62418152Y-31586666D01*
X62418152Y-31586666D02*
X62513390Y-31634285D01*
X62513390Y-31634285D02*
X62561009Y-31681904D01*
X62561009Y-31681904D02*
X62608628Y-31777142D01*
X62608628Y-31777142D02*
X62608628Y-32158094D01*
X62084819Y-30729523D02*
X62084819Y-30919999D01*
X62084819Y-30919999D02*
X62132438Y-31015237D01*
X62132438Y-31015237D02*
X62180057Y-31062856D01*
X62180057Y-31062856D02*
X62322914Y-31158094D01*
X62322914Y-31158094D02*
X62513390Y-31205713D01*
X62513390Y-31205713D02*
X62894342Y-31205713D01*
X62894342Y-31205713D02*
X62989580Y-31158094D01*
X62989580Y-31158094D02*
X63037200Y-31110475D01*
X63037200Y-31110475D02*
X63084819Y-31015237D01*
X63084819Y-31015237D02*
X63084819Y-30824761D01*
X63084819Y-30824761D02*
X63037200Y-30729523D01*
X63037200Y-30729523D02*
X62989580Y-30681904D01*
X62989580Y-30681904D02*
X62894342Y-30634285D01*
X62894342Y-30634285D02*
X62656247Y-30634285D01*
X62656247Y-30634285D02*
X62561009Y-30681904D01*
X62561009Y-30681904D02*
X62513390Y-30729523D01*
X62513390Y-30729523D02*
X62465771Y-30824761D01*
X62465771Y-30824761D02*
X62465771Y-31015237D01*
X62465771Y-31015237D02*
X62513390Y-31110475D01*
X62513390Y-31110475D02*
X62561009Y-31158094D01*
X62561009Y-31158094D02*
X62656247Y-31205713D01*
X64508095Y-14394819D02*
X64508095Y-15204342D01*
X64508095Y-15204342D02*
X64555714Y-15299580D01*
X64555714Y-15299580D02*
X64603333Y-15347200D01*
X64603333Y-15347200D02*
X64698571Y-15394819D01*
X64698571Y-15394819D02*
X64889047Y-15394819D01*
X64889047Y-15394819D02*
X64984285Y-15347200D01*
X64984285Y-15347200D02*
X65031904Y-15299580D01*
X65031904Y-15299580D02*
X65079523Y-15204342D01*
X65079523Y-15204342D02*
X65079523Y-14394819D01*
X66079523Y-15394819D02*
X65508095Y-15394819D01*
X65793809Y-15394819D02*
X65793809Y-14394819D01*
X65793809Y-14394819D02*
X65698571Y-14537676D01*
X65698571Y-14537676D02*
X65603333Y-14632914D01*
X65603333Y-14632914D02*
X65508095Y-14680533D01*
X26746666Y-13061009D02*
X26413333Y-13061009D01*
X26413333Y-13584819D02*
X26413333Y-12584819D01*
X26413333Y-12584819D02*
X26889523Y-12584819D01*
X27794285Y-13584819D02*
X27222857Y-13584819D01*
X27508571Y-13584819D02*
X27508571Y-12584819D01*
X27508571Y-12584819D02*
X27413333Y-12727676D01*
X27413333Y-12727676D02*
X27318095Y-12822914D01*
X27318095Y-12822914D02*
X27222857Y-12870533D01*
X55666666Y-61074819D02*
X55666666Y-61789104D01*
X55666666Y-61789104D02*
X55619047Y-61931961D01*
X55619047Y-61931961D02*
X55523809Y-62027200D01*
X55523809Y-62027200D02*
X55380952Y-62074819D01*
X55380952Y-62074819D02*
X55285714Y-62074819D01*
X56047619Y-61074819D02*
X56666666Y-61074819D01*
X56666666Y-61074819D02*
X56333333Y-61455771D01*
X56333333Y-61455771D02*
X56476190Y-61455771D01*
X56476190Y-61455771D02*
X56571428Y-61503390D01*
X56571428Y-61503390D02*
X56619047Y-61551009D01*
X56619047Y-61551009D02*
X56666666Y-61646247D01*
X56666666Y-61646247D02*
X56666666Y-61884342D01*
X56666666Y-61884342D02*
X56619047Y-61979580D01*
X56619047Y-61979580D02*
X56571428Y-62027200D01*
X56571428Y-62027200D02*
X56476190Y-62074819D01*
X56476190Y-62074819D02*
X56190476Y-62074819D01*
X56190476Y-62074819D02*
X56095238Y-62027200D01*
X56095238Y-62027200D02*
X56047619Y-61979580D01*
X54913333Y-45084819D02*
X54580000Y-44608628D01*
X54341905Y-45084819D02*
X54341905Y-44084819D01*
X54341905Y-44084819D02*
X54722857Y-44084819D01*
X54722857Y-44084819D02*
X54818095Y-44132438D01*
X54818095Y-44132438D02*
X54865714Y-44180057D01*
X54865714Y-44180057D02*
X54913333Y-44275295D01*
X54913333Y-44275295D02*
X54913333Y-44418152D01*
X54913333Y-44418152D02*
X54865714Y-44513390D01*
X54865714Y-44513390D02*
X54818095Y-44561009D01*
X54818095Y-44561009D02*
X54722857Y-44608628D01*
X54722857Y-44608628D02*
X54341905Y-44608628D01*
X55246667Y-44084819D02*
X55865714Y-44084819D01*
X55865714Y-44084819D02*
X55532381Y-44465771D01*
X55532381Y-44465771D02*
X55675238Y-44465771D01*
X55675238Y-44465771D02*
X55770476Y-44513390D01*
X55770476Y-44513390D02*
X55818095Y-44561009D01*
X55818095Y-44561009D02*
X55865714Y-44656247D01*
X55865714Y-44656247D02*
X55865714Y-44894342D01*
X55865714Y-44894342D02*
X55818095Y-44989580D01*
X55818095Y-44989580D02*
X55770476Y-45037200D01*
X55770476Y-45037200D02*
X55675238Y-45084819D01*
X55675238Y-45084819D02*
X55389524Y-45084819D01*
X55389524Y-45084819D02*
X55294286Y-45037200D01*
X55294286Y-45037200D02*
X55246667Y-44989580D01*
X26913333Y-30084819D02*
X26580000Y-29608628D01*
X26341905Y-30084819D02*
X26341905Y-29084819D01*
X26341905Y-29084819D02*
X26722857Y-29084819D01*
X26722857Y-29084819D02*
X26818095Y-29132438D01*
X26818095Y-29132438D02*
X26865714Y-29180057D01*
X26865714Y-29180057D02*
X26913333Y-29275295D01*
X26913333Y-29275295D02*
X26913333Y-29418152D01*
X26913333Y-29418152D02*
X26865714Y-29513390D01*
X26865714Y-29513390D02*
X26818095Y-29561009D01*
X26818095Y-29561009D02*
X26722857Y-29608628D01*
X26722857Y-29608628D02*
X26341905Y-29608628D01*
X27865714Y-30084819D02*
X27294286Y-30084819D01*
X27580000Y-30084819D02*
X27580000Y-29084819D01*
X27580000Y-29084819D02*
X27484762Y-29227676D01*
X27484762Y-29227676D02*
X27389524Y-29322914D01*
X27389524Y-29322914D02*
X27294286Y-29370533D01*
X3142857Y-304819D02*
X3142857Y695180D01*
X3142857Y695180D02*
X3476190Y-19104D01*
X3476190Y-19104D02*
X3809523Y695180D01*
X3809523Y695180D02*
X3809523Y-304819D01*
X4285714Y-304819D02*
X4285714Y695180D01*
X4285714Y218990D02*
X4857142Y218990D01*
X4857142Y-304819D02*
X4857142Y695180D01*
X74084819Y-33086666D02*
X73608628Y-33419999D01*
X74084819Y-33658094D02*
X73084819Y-33658094D01*
X73084819Y-33658094D02*
X73084819Y-33277142D01*
X73084819Y-33277142D02*
X73132438Y-33181904D01*
X73132438Y-33181904D02*
X73180057Y-33134285D01*
X73180057Y-33134285D02*
X73275295Y-33086666D01*
X73275295Y-33086666D02*
X73418152Y-33086666D01*
X73418152Y-33086666D02*
X73513390Y-33134285D01*
X73513390Y-33134285D02*
X73561009Y-33181904D01*
X73561009Y-33181904D02*
X73608628Y-33277142D01*
X73608628Y-33277142D02*
X73608628Y-33658094D01*
X73084819Y-32753332D02*
X73084819Y-32086666D01*
X73084819Y-32086666D02*
X74084819Y-32515237D01*
X66083333Y-29809580D02*
X66035714Y-29857200D01*
X66035714Y-29857200D02*
X65892857Y-29904819D01*
X65892857Y-29904819D02*
X65797619Y-29904819D01*
X65797619Y-29904819D02*
X65654762Y-29857200D01*
X65654762Y-29857200D02*
X65559524Y-29761961D01*
X65559524Y-29761961D02*
X65511905Y-29666723D01*
X65511905Y-29666723D02*
X65464286Y-29476247D01*
X65464286Y-29476247D02*
X65464286Y-29333390D01*
X65464286Y-29333390D02*
X65511905Y-29142914D01*
X65511905Y-29142914D02*
X65559524Y-29047676D01*
X65559524Y-29047676D02*
X65654762Y-28952438D01*
X65654762Y-28952438D02*
X65797619Y-28904819D01*
X65797619Y-28904819D02*
X65892857Y-28904819D01*
X65892857Y-28904819D02*
X66035714Y-28952438D01*
X66035714Y-28952438D02*
X66083333Y-29000057D01*
X66416667Y-28904819D02*
X67083333Y-28904819D01*
X67083333Y-28904819D02*
X66654762Y-29904819D01*
X83071905Y-51834819D02*
X83071905Y-50834819D01*
X83071905Y-50834819D02*
X83310000Y-50834819D01*
X83310000Y-50834819D02*
X83452857Y-50882438D01*
X83452857Y-50882438D02*
X83548095Y-50977676D01*
X83548095Y-50977676D02*
X83595714Y-51072914D01*
X83595714Y-51072914D02*
X83643333Y-51263390D01*
X83643333Y-51263390D02*
X83643333Y-51406247D01*
X83643333Y-51406247D02*
X83595714Y-51596723D01*
X83595714Y-51596723D02*
X83548095Y-51691961D01*
X83548095Y-51691961D02*
X83452857Y-51787200D01*
X83452857Y-51787200D02*
X83310000Y-51834819D01*
X83310000Y-51834819D02*
X83071905Y-51834819D01*
X84024286Y-50930057D02*
X84071905Y-50882438D01*
X84071905Y-50882438D02*
X84167143Y-50834819D01*
X84167143Y-50834819D02*
X84405238Y-50834819D01*
X84405238Y-50834819D02*
X84500476Y-50882438D01*
X84500476Y-50882438D02*
X84548095Y-50930057D01*
X84548095Y-50930057D02*
X84595714Y-51025295D01*
X84595714Y-51025295D02*
X84595714Y-51120533D01*
X84595714Y-51120533D02*
X84548095Y-51263390D01*
X84548095Y-51263390D02*
X83976667Y-51834819D01*
X83976667Y-51834819D02*
X84595714Y-51834819D01*
X79738095Y-52154819D02*
X79738095Y-51154819D01*
X80309523Y-52154819D02*
X79880952Y-51583390D01*
X80309523Y-51154819D02*
X79738095Y-51726247D01*
X87142857Y-70304819D02*
X87142857Y-69304819D01*
X87142857Y-69304819D02*
X87476190Y-70019104D01*
X87476190Y-70019104D02*
X87809523Y-69304819D01*
X87809523Y-69304819D02*
X87809523Y-70304819D01*
X88285714Y-70304819D02*
X88285714Y-69304819D01*
X88285714Y-69781009D02*
X88857142Y-69781009D01*
X88857142Y-70304819D02*
X88857142Y-69304819D01*
X70333333Y-16359580D02*
X70285714Y-16407200D01*
X70285714Y-16407200D02*
X70142857Y-16454819D01*
X70142857Y-16454819D02*
X70047619Y-16454819D01*
X70047619Y-16454819D02*
X69904762Y-16407200D01*
X69904762Y-16407200D02*
X69809524Y-16311961D01*
X69809524Y-16311961D02*
X69761905Y-16216723D01*
X69761905Y-16216723D02*
X69714286Y-16026247D01*
X69714286Y-16026247D02*
X69714286Y-15883390D01*
X69714286Y-15883390D02*
X69761905Y-15692914D01*
X69761905Y-15692914D02*
X69809524Y-15597676D01*
X69809524Y-15597676D02*
X69904762Y-15502438D01*
X69904762Y-15502438D02*
X70047619Y-15454819D01*
X70047619Y-15454819D02*
X70142857Y-15454819D01*
X70142857Y-15454819D02*
X70285714Y-15502438D01*
X70285714Y-15502438D02*
X70333333Y-15550057D01*
X70714286Y-15550057D02*
X70761905Y-15502438D01*
X70761905Y-15502438D02*
X70857143Y-15454819D01*
X70857143Y-15454819D02*
X71095238Y-15454819D01*
X71095238Y-15454819D02*
X71190476Y-15502438D01*
X71190476Y-15502438D02*
X71238095Y-15550057D01*
X71238095Y-15550057D02*
X71285714Y-15645295D01*
X71285714Y-15645295D02*
X71285714Y-15740533D01*
X71285714Y-15740533D02*
X71238095Y-15883390D01*
X71238095Y-15883390D02*
X70666667Y-16454819D01*
X70666667Y-16454819D02*
X71285714Y-16454819D01*
X25174761Y-60990057D02*
X25079523Y-60942438D01*
X25079523Y-60942438D02*
X24984285Y-60847200D01*
X24984285Y-60847200D02*
X24841428Y-60704342D01*
X24841428Y-60704342D02*
X24746190Y-60656723D01*
X24746190Y-60656723D02*
X24650952Y-60656723D01*
X24698571Y-60894819D02*
X24603333Y-60847200D01*
X24603333Y-60847200D02*
X24508095Y-60751961D01*
X24508095Y-60751961D02*
X24460476Y-60561485D01*
X24460476Y-60561485D02*
X24460476Y-60228152D01*
X24460476Y-60228152D02*
X24508095Y-60037676D01*
X24508095Y-60037676D02*
X24603333Y-59942438D01*
X24603333Y-59942438D02*
X24698571Y-59894819D01*
X24698571Y-59894819D02*
X24889047Y-59894819D01*
X24889047Y-59894819D02*
X24984285Y-59942438D01*
X24984285Y-59942438D02*
X25079523Y-60037676D01*
X25079523Y-60037676D02*
X25127142Y-60228152D01*
X25127142Y-60228152D02*
X25127142Y-60561485D01*
X25127142Y-60561485D02*
X25079523Y-60751961D01*
X25079523Y-60751961D02*
X24984285Y-60847200D01*
X24984285Y-60847200D02*
X24889047Y-60894819D01*
X24889047Y-60894819D02*
X24698571Y-60894819D01*
X25508095Y-59990057D02*
X25555714Y-59942438D01*
X25555714Y-59942438D02*
X25650952Y-59894819D01*
X25650952Y-59894819D02*
X25889047Y-59894819D01*
X25889047Y-59894819D02*
X25984285Y-59942438D01*
X25984285Y-59942438D02*
X26031904Y-59990057D01*
X26031904Y-59990057D02*
X26079523Y-60085295D01*
X26079523Y-60085295D02*
X26079523Y-60180533D01*
X26079523Y-60180533D02*
X26031904Y-60323390D01*
X26031904Y-60323390D02*
X25460476Y-60894819D01*
X25460476Y-60894819D02*
X26079523Y-60894819D01*
X59048095Y-33124819D02*
X59048095Y-33934342D01*
X59048095Y-33934342D02*
X59095714Y-34029580D01*
X59095714Y-34029580D02*
X59143333Y-34077200D01*
X59143333Y-34077200D02*
X59238571Y-34124819D01*
X59238571Y-34124819D02*
X59429047Y-34124819D01*
X59429047Y-34124819D02*
X59524285Y-34077200D01*
X59524285Y-34077200D02*
X59571904Y-34029580D01*
X59571904Y-34029580D02*
X59619523Y-33934342D01*
X59619523Y-33934342D02*
X59619523Y-33124819D01*
X60000476Y-33124819D02*
X60619523Y-33124819D01*
X60619523Y-33124819D02*
X60286190Y-33505771D01*
X60286190Y-33505771D02*
X60429047Y-33505771D01*
X60429047Y-33505771D02*
X60524285Y-33553390D01*
X60524285Y-33553390D02*
X60571904Y-33601009D01*
X60571904Y-33601009D02*
X60619523Y-33696247D01*
X60619523Y-33696247D02*
X60619523Y-33934342D01*
X60619523Y-33934342D02*
X60571904Y-34029580D01*
X60571904Y-34029580D02*
X60524285Y-34077200D01*
X60524285Y-34077200D02*
X60429047Y-34124819D01*
X60429047Y-34124819D02*
X60143333Y-34124819D01*
X60143333Y-34124819D02*
X60048095Y-34077200D01*
X60048095Y-34077200D02*
X60000476Y-34029580D01*
X35071905Y-62334819D02*
X35071905Y-61334819D01*
X35071905Y-61334819D02*
X35310000Y-61334819D01*
X35310000Y-61334819D02*
X35452857Y-61382438D01*
X35452857Y-61382438D02*
X35548095Y-61477676D01*
X35548095Y-61477676D02*
X35595714Y-61572914D01*
X35595714Y-61572914D02*
X35643333Y-61763390D01*
X35643333Y-61763390D02*
X35643333Y-61906247D01*
X35643333Y-61906247D02*
X35595714Y-62096723D01*
X35595714Y-62096723D02*
X35548095Y-62191961D01*
X35548095Y-62191961D02*
X35452857Y-62287200D01*
X35452857Y-62287200D02*
X35310000Y-62334819D01*
X35310000Y-62334819D02*
X35071905Y-62334819D01*
X35976667Y-61334819D02*
X36595714Y-61334819D01*
X36595714Y-61334819D02*
X36262381Y-61715771D01*
X36262381Y-61715771D02*
X36405238Y-61715771D01*
X36405238Y-61715771D02*
X36500476Y-61763390D01*
X36500476Y-61763390D02*
X36548095Y-61811009D01*
X36548095Y-61811009D02*
X36595714Y-61906247D01*
X36595714Y-61906247D02*
X36595714Y-62144342D01*
X36595714Y-62144342D02*
X36548095Y-62239580D01*
X36548095Y-62239580D02*
X36500476Y-62287200D01*
X36500476Y-62287200D02*
X36405238Y-62334819D01*
X36405238Y-62334819D02*
X36119524Y-62334819D01*
X36119524Y-62334819D02*
X36024286Y-62287200D01*
X36024286Y-62287200D02*
X35976667Y-62239580D01*
X31738095Y-62654819D02*
X31738095Y-61654819D01*
X32309523Y-62654819D02*
X31880952Y-62083390D01*
X32309523Y-61654819D02*
X31738095Y-62226247D01*
X55583333Y-13609580D02*
X55535714Y-13657200D01*
X55535714Y-13657200D02*
X55392857Y-13704819D01*
X55392857Y-13704819D02*
X55297619Y-13704819D01*
X55297619Y-13704819D02*
X55154762Y-13657200D01*
X55154762Y-13657200D02*
X55059524Y-13561961D01*
X55059524Y-13561961D02*
X55011905Y-13466723D01*
X55011905Y-13466723D02*
X54964286Y-13276247D01*
X54964286Y-13276247D02*
X54964286Y-13133390D01*
X54964286Y-13133390D02*
X55011905Y-12942914D01*
X55011905Y-12942914D02*
X55059524Y-12847676D01*
X55059524Y-12847676D02*
X55154762Y-12752438D01*
X55154762Y-12752438D02*
X55297619Y-12704819D01*
X55297619Y-12704819D02*
X55392857Y-12704819D01*
X55392857Y-12704819D02*
X55535714Y-12752438D01*
X55535714Y-12752438D02*
X55583333Y-12800057D01*
X56535714Y-13704819D02*
X55964286Y-13704819D01*
X56250000Y-13704819D02*
X56250000Y-12704819D01*
X56250000Y-12704819D02*
X56154762Y-12847676D01*
X56154762Y-12847676D02*
X56059524Y-12942914D01*
X56059524Y-12942914D02*
X55964286Y-12990533D01*
X66333333Y-50859580D02*
X66285714Y-50907200D01*
X66285714Y-50907200D02*
X66142857Y-50954819D01*
X66142857Y-50954819D02*
X66047619Y-50954819D01*
X66047619Y-50954819D02*
X65904762Y-50907200D01*
X65904762Y-50907200D02*
X65809524Y-50811961D01*
X65809524Y-50811961D02*
X65761905Y-50716723D01*
X65761905Y-50716723D02*
X65714286Y-50526247D01*
X65714286Y-50526247D02*
X65714286Y-50383390D01*
X65714286Y-50383390D02*
X65761905Y-50192914D01*
X65761905Y-50192914D02*
X65809524Y-50097676D01*
X65809524Y-50097676D02*
X65904762Y-50002438D01*
X65904762Y-50002438D02*
X66047619Y-49954819D01*
X66047619Y-49954819D02*
X66142857Y-49954819D01*
X66142857Y-49954819D02*
X66285714Y-50002438D01*
X66285714Y-50002438D02*
X66333333Y-50050057D01*
X67238095Y-49954819D02*
X66761905Y-49954819D01*
X66761905Y-49954819D02*
X66714286Y-50431009D01*
X66714286Y-50431009D02*
X66761905Y-50383390D01*
X66761905Y-50383390D02*
X66857143Y-50335771D01*
X66857143Y-50335771D02*
X67095238Y-50335771D01*
X67095238Y-50335771D02*
X67190476Y-50383390D01*
X67190476Y-50383390D02*
X67238095Y-50431009D01*
X67238095Y-50431009D02*
X67285714Y-50526247D01*
X67285714Y-50526247D02*
X67285714Y-50764342D01*
X67285714Y-50764342D02*
X67238095Y-50859580D01*
X67238095Y-50859580D02*
X67190476Y-50907200D01*
X67190476Y-50907200D02*
X67095238Y-50954819D01*
X67095238Y-50954819D02*
X66857143Y-50954819D01*
X66857143Y-50954819D02*
X66761905Y-50907200D01*
X66761905Y-50907200D02*
X66714286Y-50859580D01*
X81174761Y-43990057D02*
X81079523Y-43942438D01*
X81079523Y-43942438D02*
X80984285Y-43847200D01*
X80984285Y-43847200D02*
X80841428Y-43704342D01*
X80841428Y-43704342D02*
X80746190Y-43656723D01*
X80746190Y-43656723D02*
X80650952Y-43656723D01*
X80698571Y-43894819D02*
X80603333Y-43847200D01*
X80603333Y-43847200D02*
X80508095Y-43751961D01*
X80508095Y-43751961D02*
X80460476Y-43561485D01*
X80460476Y-43561485D02*
X80460476Y-43228152D01*
X80460476Y-43228152D02*
X80508095Y-43037676D01*
X80508095Y-43037676D02*
X80603333Y-42942438D01*
X80603333Y-42942438D02*
X80698571Y-42894819D01*
X80698571Y-42894819D02*
X80889047Y-42894819D01*
X80889047Y-42894819D02*
X80984285Y-42942438D01*
X80984285Y-42942438D02*
X81079523Y-43037676D01*
X81079523Y-43037676D02*
X81127142Y-43228152D01*
X81127142Y-43228152D02*
X81127142Y-43561485D01*
X81127142Y-43561485D02*
X81079523Y-43751961D01*
X81079523Y-43751961D02*
X80984285Y-43847200D01*
X80984285Y-43847200D02*
X80889047Y-43894819D01*
X80889047Y-43894819D02*
X80698571Y-43894819D01*
X82079523Y-43894819D02*
X81508095Y-43894819D01*
X81793809Y-43894819D02*
X81793809Y-42894819D01*
X81793809Y-42894819D02*
X81698571Y-43037676D01*
X81698571Y-43037676D02*
X81603333Y-43132914D01*
X81603333Y-43132914D02*
X81508095Y-43180533D01*
X20913333Y-62084819D02*
X20580000Y-61608628D01*
X20341905Y-62084819D02*
X20341905Y-61084819D01*
X20341905Y-61084819D02*
X20722857Y-61084819D01*
X20722857Y-61084819D02*
X20818095Y-61132438D01*
X20818095Y-61132438D02*
X20865714Y-61180057D01*
X20865714Y-61180057D02*
X20913333Y-61275295D01*
X20913333Y-61275295D02*
X20913333Y-61418152D01*
X20913333Y-61418152D02*
X20865714Y-61513390D01*
X20865714Y-61513390D02*
X20818095Y-61561009D01*
X20818095Y-61561009D02*
X20722857Y-61608628D01*
X20722857Y-61608628D02*
X20341905Y-61608628D01*
X21389524Y-62084819D02*
X21580000Y-62084819D01*
X21580000Y-62084819D02*
X21675238Y-62037200D01*
X21675238Y-62037200D02*
X21722857Y-61989580D01*
X21722857Y-61989580D02*
X21818095Y-61846723D01*
X21818095Y-61846723D02*
X21865714Y-61656247D01*
X21865714Y-61656247D02*
X21865714Y-61275295D01*
X21865714Y-61275295D02*
X21818095Y-61180057D01*
X21818095Y-61180057D02*
X21770476Y-61132438D01*
X21770476Y-61132438D02*
X21675238Y-61084819D01*
X21675238Y-61084819D02*
X21484762Y-61084819D01*
X21484762Y-61084819D02*
X21389524Y-61132438D01*
X21389524Y-61132438D02*
X21341905Y-61180057D01*
X21341905Y-61180057D02*
X21294286Y-61275295D01*
X21294286Y-61275295D02*
X21294286Y-61513390D01*
X21294286Y-61513390D02*
X21341905Y-61608628D01*
X21341905Y-61608628D02*
X21389524Y-61656247D01*
X21389524Y-61656247D02*
X21484762Y-61703866D01*
X21484762Y-61703866D02*
X21675238Y-61703866D01*
X21675238Y-61703866D02*
X21770476Y-61656247D01*
X21770476Y-61656247D02*
X21818095Y-61608628D01*
X21818095Y-61608628D02*
X21865714Y-61513390D01*
X3142857Y-70304819D02*
X3142857Y-69304819D01*
X3142857Y-69304819D02*
X3476190Y-70019104D01*
X3476190Y-70019104D02*
X3809523Y-69304819D01*
X3809523Y-69304819D02*
X3809523Y-70304819D01*
X4285714Y-70304819D02*
X4285714Y-69304819D01*
X4285714Y-69781009D02*
X4857142Y-69781009D01*
X4857142Y-70304819D02*
X4857142Y-69304819D01*
X35738571Y-29124819D02*
X35929047Y-29124819D01*
X35929047Y-29124819D02*
X36024285Y-29172438D01*
X36024285Y-29172438D02*
X36119523Y-29267676D01*
X36119523Y-29267676D02*
X36167142Y-29458152D01*
X36167142Y-29458152D02*
X36167142Y-29791485D01*
X36167142Y-29791485D02*
X36119523Y-29981961D01*
X36119523Y-29981961D02*
X36024285Y-30077200D01*
X36024285Y-30077200D02*
X35929047Y-30124819D01*
X35929047Y-30124819D02*
X35738571Y-30124819D01*
X35738571Y-30124819D02*
X35643333Y-30077200D01*
X35643333Y-30077200D02*
X35548095Y-29981961D01*
X35548095Y-29981961D02*
X35500476Y-29791485D01*
X35500476Y-29791485D02*
X35500476Y-29458152D01*
X35500476Y-29458152D02*
X35548095Y-29267676D01*
X35548095Y-29267676D02*
X35643333Y-29172438D01*
X35643333Y-29172438D02*
X35738571Y-29124819D01*
X36595714Y-30124819D02*
X36595714Y-29124819D01*
X37167142Y-30124819D02*
X36738571Y-29553390D01*
X37167142Y-29124819D02*
X36595714Y-29696247D01*
X38119523Y-30124819D02*
X37548095Y-30124819D01*
X37833809Y-30124819D02*
X37833809Y-29124819D01*
X37833809Y-29124819D02*
X37738571Y-29267676D01*
X37738571Y-29267676D02*
X37643333Y-29362914D01*
X37643333Y-29362914D02*
X37548095Y-29410533D01*
X45895238Y-15731009D02*
X46038095Y-15778628D01*
X46038095Y-15778628D02*
X46085714Y-15826247D01*
X46085714Y-15826247D02*
X46133333Y-15921485D01*
X46133333Y-15921485D02*
X46133333Y-16064342D01*
X46133333Y-16064342D02*
X46085714Y-16159580D01*
X46085714Y-16159580D02*
X46038095Y-16207200D01*
X46038095Y-16207200D02*
X45942857Y-16254819D01*
X45942857Y-16254819D02*
X45561905Y-16254819D01*
X45561905Y-16254819D02*
X45561905Y-15254819D01*
X45561905Y-15254819D02*
X45895238Y-15254819D01*
X45895238Y-15254819D02*
X45990476Y-15302438D01*
X45990476Y-15302438D02*
X46038095Y-15350057D01*
X46038095Y-15350057D02*
X46085714Y-15445295D01*
X46085714Y-15445295D02*
X46085714Y-15540533D01*
X46085714Y-15540533D02*
X46038095Y-15635771D01*
X46038095Y-15635771D02*
X45990476Y-15683390D01*
X45990476Y-15683390D02*
X45895238Y-15731009D01*
X45895238Y-15731009D02*
X45561905Y-15731009D01*
X47133333Y-16254819D02*
X46800000Y-15778628D01*
X46561905Y-16254819D02*
X46561905Y-15254819D01*
X46561905Y-15254819D02*
X46942857Y-15254819D01*
X46942857Y-15254819D02*
X47038095Y-15302438D01*
X47038095Y-15302438D02*
X47085714Y-15350057D01*
X47085714Y-15350057D02*
X47133333Y-15445295D01*
X47133333Y-15445295D02*
X47133333Y-15588152D01*
X47133333Y-15588152D02*
X47085714Y-15683390D01*
X47085714Y-15683390D02*
X47038095Y-15731009D01*
X47038095Y-15731009D02*
X46942857Y-15778628D01*
X46942857Y-15778628D02*
X46561905Y-15778628D01*
X48085714Y-16254819D02*
X47514286Y-16254819D01*
X47800000Y-16254819D02*
X47800000Y-15254819D01*
X47800000Y-15254819D02*
X47704762Y-15397676D01*
X47704762Y-15397676D02*
X47609524Y-15492914D01*
X47609524Y-15492914D02*
X47514286Y-15540533D01*
X87142857Y-304819D02*
X87142857Y695180D01*
X87142857Y695180D02*
X87476190Y-19104D01*
X87476190Y-19104D02*
X87809523Y695180D01*
X87809523Y695180D02*
X87809523Y-304819D01*
X88285714Y-304819D02*
X88285714Y695180D01*
X88285714Y218990D02*
X88857142Y218990D01*
X88857142Y-304819D02*
X88857142Y695180D01*
X78666667Y-16027200D02*
X78809524Y-16074819D01*
X78809524Y-16074819D02*
X79047619Y-16074819D01*
X79047619Y-16074819D02*
X79142857Y-16027200D01*
X79142857Y-16027200D02*
X79190476Y-15979580D01*
X79190476Y-15979580D02*
X79238095Y-15884342D01*
X79238095Y-15884342D02*
X79238095Y-15789104D01*
X79238095Y-15789104D02*
X79190476Y-15693866D01*
X79190476Y-15693866D02*
X79142857Y-15646247D01*
X79142857Y-15646247D02*
X79047619Y-15598628D01*
X79047619Y-15598628D02*
X78857143Y-15551009D01*
X78857143Y-15551009D02*
X78761905Y-15503390D01*
X78761905Y-15503390D02*
X78714286Y-15455771D01*
X78714286Y-15455771D02*
X78666667Y-15360533D01*
X78666667Y-15360533D02*
X78666667Y-15265295D01*
X78666667Y-15265295D02*
X78714286Y-15170057D01*
X78714286Y-15170057D02*
X78761905Y-15122438D01*
X78761905Y-15122438D02*
X78857143Y-15074819D01*
X78857143Y-15074819D02*
X79095238Y-15074819D01*
X79095238Y-15074819D02*
X79238095Y-15122438D01*
X79571429Y-15074819D02*
X79809524Y-16074819D01*
X79809524Y-16074819D02*
X80000000Y-15360533D01*
X80000000Y-15360533D02*
X80190476Y-16074819D01*
X80190476Y-16074819D02*
X80428572Y-15074819D01*
X81333333Y-16074819D02*
X80761905Y-16074819D01*
X81047619Y-16074819D02*
X81047619Y-15074819D01*
X81047619Y-15074819D02*
X80952381Y-15217676D01*
X80952381Y-15217676D02*
X80857143Y-15312914D01*
X80857143Y-15312914D02*
X80761905Y-15360533D01*
X2334819Y-16083333D02*
X3049104Y-16083333D01*
X3049104Y-16083333D02*
X3191961Y-16130952D01*
X3191961Y-16130952D02*
X3287200Y-16226190D01*
X3287200Y-16226190D02*
X3334819Y-16369047D01*
X3334819Y-16369047D02*
X3334819Y-16464285D01*
X3334819Y-15083333D02*
X3334819Y-15654761D01*
X3334819Y-15369047D02*
X2334819Y-15369047D01*
X2334819Y-15369047D02*
X2477676Y-15464285D01*
X2477676Y-15464285D02*
X2572914Y-15559523D01*
X2572914Y-15559523D02*
X2620533Y-15654761D01*
X48913333Y-30084819D02*
X48580000Y-29608628D01*
X48341905Y-30084819D02*
X48341905Y-29084819D01*
X48341905Y-29084819D02*
X48722857Y-29084819D01*
X48722857Y-29084819D02*
X48818095Y-29132438D01*
X48818095Y-29132438D02*
X48865714Y-29180057D01*
X48865714Y-29180057D02*
X48913333Y-29275295D01*
X48913333Y-29275295D02*
X48913333Y-29418152D01*
X48913333Y-29418152D02*
X48865714Y-29513390D01*
X48865714Y-29513390D02*
X48818095Y-29561009D01*
X48818095Y-29561009D02*
X48722857Y-29608628D01*
X48722857Y-29608628D02*
X48341905Y-29608628D01*
X49294286Y-29180057D02*
X49341905Y-29132438D01*
X49341905Y-29132438D02*
X49437143Y-29084819D01*
X49437143Y-29084819D02*
X49675238Y-29084819D01*
X49675238Y-29084819D02*
X49770476Y-29132438D01*
X49770476Y-29132438D02*
X49818095Y-29180057D01*
X49818095Y-29180057D02*
X49865714Y-29275295D01*
X49865714Y-29275295D02*
X49865714Y-29370533D01*
X49865714Y-29370533D02*
X49818095Y-29513390D01*
X49818095Y-29513390D02*
X49246667Y-30084819D01*
X49246667Y-30084819D02*
X49865714Y-30084819D01*
X7166666Y-61074819D02*
X7166666Y-61789104D01*
X7166666Y-61789104D02*
X7119047Y-61931961D01*
X7119047Y-61931961D02*
X7023809Y-62027200D01*
X7023809Y-62027200D02*
X6880952Y-62074819D01*
X6880952Y-62074819D02*
X6785714Y-62074819D01*
X7642857Y-62074819D02*
X7642857Y-61074819D01*
X7642857Y-61074819D02*
X8023809Y-61074819D01*
X8023809Y-61074819D02*
X8119047Y-61122438D01*
X8119047Y-61122438D02*
X8166666Y-61170057D01*
X8166666Y-61170057D02*
X8214285Y-61265295D01*
X8214285Y-61265295D02*
X8214285Y-61408152D01*
X8214285Y-61408152D02*
X8166666Y-61503390D01*
X8166666Y-61503390D02*
X8119047Y-61551009D01*
X8119047Y-61551009D02*
X8023809Y-61598628D01*
X8023809Y-61598628D02*
X7642857Y-61598628D01*
X9166666Y-62074819D02*
X8595238Y-62074819D01*
X8880952Y-62074819D02*
X8880952Y-61074819D01*
X8880952Y-61074819D02*
X8785714Y-61217676D01*
X8785714Y-61217676D02*
X8690476Y-61312914D01*
X8690476Y-61312914D02*
X8595238Y-61360533D01*
X19761905Y-46254819D02*
X19761905Y-45254819D01*
X20333333Y-46254819D02*
X19904762Y-45683390D01*
X20333333Y-45254819D02*
X19761905Y-45826247D01*
X21285714Y-46254819D02*
X20714286Y-46254819D01*
X21000000Y-46254819D02*
X21000000Y-45254819D01*
X21000000Y-45254819D02*
X20904762Y-45397676D01*
X20904762Y-45397676D02*
X20809524Y-45492914D01*
X20809524Y-45492914D02*
X20714286Y-45540533D01*
X76150952Y-28494819D02*
X75674762Y-28494819D01*
X75674762Y-28494819D02*
X75674762Y-27494819D01*
X76484286Y-27971009D02*
X76817619Y-27971009D01*
X76960476Y-28494819D02*
X76484286Y-28494819D01*
X76484286Y-28494819D02*
X76484286Y-27494819D01*
X76484286Y-27494819D02*
X76960476Y-27494819D01*
X77389048Y-28494819D02*
X77389048Y-27494819D01*
X77389048Y-27494819D02*
X77627143Y-27494819D01*
X77627143Y-27494819D02*
X77770000Y-27542438D01*
X77770000Y-27542438D02*
X77865238Y-27637676D01*
X77865238Y-27637676D02*
X77912857Y-27732914D01*
X77912857Y-27732914D02*
X77960476Y-27923390D01*
X77960476Y-27923390D02*
X77960476Y-28066247D01*
X77960476Y-28066247D02*
X77912857Y-28256723D01*
X77912857Y-28256723D02*
X77865238Y-28351961D01*
X77865238Y-28351961D02*
X77770000Y-28447200D01*
X77770000Y-28447200D02*
X77627143Y-28494819D01*
X77627143Y-28494819D02*
X77389048Y-28494819D01*
X78912857Y-28494819D02*
X78341429Y-28494819D01*
X78627143Y-28494819D02*
X78627143Y-27494819D01*
X78627143Y-27494819D02*
X78531905Y-27637676D01*
X78531905Y-27637676D02*
X78436667Y-27732914D01*
X78436667Y-27732914D02*
X78341429Y-27780533D01*
X24334819Y-46083333D02*
X25049104Y-46083333D01*
X25049104Y-46083333D02*
X25191961Y-46130952D01*
X25191961Y-46130952D02*
X25287200Y-46226190D01*
X25287200Y-46226190D02*
X25334819Y-46369047D01*
X25334819Y-46369047D02*
X25334819Y-46464285D01*
X24430057Y-45654761D02*
X24382438Y-45607142D01*
X24382438Y-45607142D02*
X24334819Y-45511904D01*
X24334819Y-45511904D02*
X24334819Y-45273809D01*
X24334819Y-45273809D02*
X24382438Y-45178571D01*
X24382438Y-45178571D02*
X24430057Y-45130952D01*
X24430057Y-45130952D02*
X24525295Y-45083333D01*
X24525295Y-45083333D02*
X24620533Y-45083333D01*
X24620533Y-45083333D02*
X24763390Y-45130952D01*
X24763390Y-45130952D02*
X25334819Y-45702380D01*
X25334819Y-45702380D02*
X25334819Y-45083333D01*
X52333333Y-50859580D02*
X52285714Y-50907200D01*
X52285714Y-50907200D02*
X52142857Y-50954819D01*
X52142857Y-50954819D02*
X52047619Y-50954819D01*
X52047619Y-50954819D02*
X51904762Y-50907200D01*
X51904762Y-50907200D02*
X51809524Y-50811961D01*
X51809524Y-50811961D02*
X51761905Y-50716723D01*
X51761905Y-50716723D02*
X51714286Y-50526247D01*
X51714286Y-50526247D02*
X51714286Y-50383390D01*
X51714286Y-50383390D02*
X51761905Y-50192914D01*
X51761905Y-50192914D02*
X51809524Y-50097676D01*
X51809524Y-50097676D02*
X51904762Y-50002438D01*
X51904762Y-50002438D02*
X52047619Y-49954819D01*
X52047619Y-49954819D02*
X52142857Y-49954819D01*
X52142857Y-49954819D02*
X52285714Y-50002438D01*
X52285714Y-50002438D02*
X52333333Y-50050057D01*
X53190476Y-50288152D02*
X53190476Y-50954819D01*
X52952381Y-49907200D02*
X52714286Y-50621485D01*
X52714286Y-50621485D02*
X53333333Y-50621485D01*
%TO.C,K2*%
D16*
X42400000Y-62500000D02*
X44600000Y-62500000D01*
X42400000Y-64600000D02*
X42400000Y-62500000D01*
X42600000Y-62700000D02*
X50400000Y-62700000D01*
X42600000Y-75400000D02*
X42600000Y-62700000D01*
X44762000Y-67683000D02*
X44762000Y-68318000D01*
X44762000Y-68318000D02*
X45422000Y-68318000D01*
X45422000Y-67810000D02*
X45422000Y-68826000D01*
X45422000Y-68826000D02*
X47327000Y-68826000D01*
X46946000Y-67810000D02*
X46311000Y-68826000D01*
X47327000Y-67810000D02*
X45422000Y-67810000D01*
X47327000Y-67810000D02*
X47327000Y-68826000D01*
X47962000Y-67683000D02*
X47962000Y-68318000D01*
X47962000Y-68318000D02*
X47327000Y-68318000D01*
X50400000Y-62700000D02*
X50400000Y-75400000D01*
X50400000Y-75400000D02*
X42600000Y-75400000D01*
%TO.C,TVS1*%
X31530000Y-15120000D02*
X34470000Y-15120000D01*
X31530000Y-15240000D02*
X34470000Y-15240000D01*
X31530000Y-15360000D02*
X34470000Y-15360000D01*
X33000000Y-9680000D02*
X33000000Y-10700000D01*
X33000000Y-17160000D02*
X33000000Y-16140000D01*
X31530000Y-10700000D02*
X34470000Y-10700000D01*
X34470000Y-16140000D01*
X31530000Y-16140000D01*
X31530000Y-10700000D01*
%TO.C,R8*%
X73040000Y-47000000D02*
X73810000Y-47000000D01*
X81120000Y-47000000D02*
X80350000Y-47000000D01*
X73810000Y-45630000D02*
X80350000Y-45630000D01*
X80350000Y-48370000D01*
X73810000Y-48370000D01*
X73810000Y-45630000D01*
%TO.C,R5*%
X65040000Y-47000000D02*
X65810000Y-47000000D01*
X73120000Y-47000000D02*
X72350000Y-47000000D01*
X65810000Y-45630000D02*
X72350000Y-45630000D01*
X72350000Y-48370000D01*
X65810000Y-48370000D01*
X65810000Y-45630000D01*
%TO.C,R6*%
X65000000Y-27380000D02*
X65000000Y-28150000D01*
X65000000Y-35460000D02*
X65000000Y-34690000D01*
X63630000Y-28150000D02*
X66370000Y-28150000D01*
X66370000Y-34690000D01*
X63630000Y-34690000D01*
X63630000Y-28150000D01*
%TO.C,U1*%
X63470000Y-20350000D02*
X67070000Y-20350000D01*
X63431522Y-20338478D02*
G75*
G02*
X65270000Y-15899999I1838478J1838478D01*
G01*
X65270000Y-15900000D02*
G75*
G02*
X67108478Y-20338478I0J-2600000D01*
G01*
%TO.C,F1*%
X23040000Y-15500000D02*
X23810000Y-15500000D01*
X31120000Y-15500000D02*
X30350000Y-15500000D01*
X23810000Y-14130000D02*
X30350000Y-14130000D01*
X30350000Y-16870000D01*
X23810000Y-16870000D01*
X23810000Y-14130000D01*
%TO.C,J3*%
X54620000Y-62620000D02*
X56000000Y-62620000D01*
X54620000Y-64000000D02*
X54620000Y-62620000D01*
X54620000Y-65270000D02*
X54620000Y-67920000D01*
X54620000Y-65270000D02*
X57380000Y-65270000D01*
X54620000Y-67920000D02*
X57380000Y-67920000D01*
X57380000Y-65270000D02*
X57380000Y-67920000D01*
%TO.C,R3*%
X51040000Y-47000000D02*
X51810000Y-47000000D01*
X59120000Y-47000000D02*
X58350000Y-47000000D01*
X51810000Y-45630000D02*
X58350000Y-45630000D01*
X58350000Y-48370000D01*
X51810000Y-48370000D01*
X51810000Y-45630000D01*
%TO.C,R1*%
X23040000Y-32000000D02*
X23810000Y-32000000D01*
X31120000Y-32000000D02*
X30350000Y-32000000D01*
X23810000Y-30630000D02*
X30350000Y-30630000D01*
X30350000Y-33370000D01*
X23810000Y-33370000D01*
X23810000Y-30630000D01*
%TO.C,R7*%
X76000000Y-28880000D02*
X76000000Y-29650000D01*
X76000000Y-36960000D02*
X76000000Y-36190000D01*
X74630000Y-29650000D02*
X77370000Y-29650000D01*
X77370000Y-36190000D01*
X74630000Y-36190000D01*
X74630000Y-29650000D01*
%TO.C,C7*%
X64230000Y-30580000D02*
X68270000Y-30580000D01*
X64230000Y-31301000D02*
X64230000Y-30580000D01*
X64230000Y-33420000D02*
X64230000Y-32699000D01*
X68270000Y-30580000D02*
X68270000Y-31301000D01*
X68270000Y-32699000D02*
X68270000Y-33420000D01*
X68270000Y-33420000D02*
X64230000Y-33420000D01*
%TO.C,D2*%
X81040000Y-53500000D02*
X81690000Y-53500000D01*
X82290000Y-52380000D02*
X82290000Y-54620000D01*
X82410000Y-52380000D02*
X82410000Y-54620000D01*
X82530000Y-52380000D02*
X82530000Y-54620000D01*
X86580000Y-53500000D02*
X85930000Y-53500000D01*
X81690000Y-52380000D02*
X85930000Y-52380000D01*
X85930000Y-54620000D01*
X81690000Y-54620000D01*
X81690000Y-52380000D01*
%TO.C,C2*%
X67880000Y-17130000D02*
X73120000Y-17130000D01*
X67880000Y-17467000D02*
X67880000Y-17130000D01*
X67880000Y-19870000D02*
X67880000Y-19533000D01*
X73120000Y-17130000D02*
X73120000Y-17467000D01*
X73120000Y-19533000D02*
X73120000Y-19870000D01*
X73120000Y-19870000D02*
X67880000Y-19870000D01*
%TO.C,Q2*%
X23470000Y-65850000D02*
X27070000Y-65850000D01*
X23431522Y-65838478D02*
G75*
G02*
X25270000Y-61399999I1838478J1838478D01*
G01*
X25270000Y-61400000D02*
G75*
G02*
X27108478Y-65838478I0J-2600000D01*
G01*
%TO.C,U3*%
X57160000Y-34670000D02*
X57160000Y-52570000D01*
X57160000Y-52570000D02*
X62460000Y-52570000D01*
X58810000Y-34670000D02*
X57160000Y-34670000D01*
X62460000Y-34670000D02*
X60810000Y-34670000D01*
X62460000Y-52570000D02*
X62460000Y-34670000D01*
X60810000Y-34670000D02*
G75*
G02*
X58810000Y-34670000I-1000000J0D01*
G01*
%TO.C,D3*%
X33040000Y-64000000D02*
X33690000Y-64000000D01*
X34290000Y-62880000D02*
X34290000Y-65120000D01*
X34410000Y-62880000D02*
X34410000Y-65120000D01*
X34530000Y-62880000D02*
X34530000Y-65120000D01*
X38580000Y-64000000D02*
X37930000Y-64000000D01*
X33690000Y-62880000D02*
X37930000Y-62880000D01*
X37930000Y-65120000D01*
X33690000Y-65120000D01*
X33690000Y-62880000D01*
%TO.C,C1*%
X51340302Y-16185000D02*
X52140302Y-16185000D01*
X51740302Y-15785000D02*
X51740302Y-16585000D01*
X55750000Y-14420000D02*
X55750000Y-22580000D01*
X55790000Y-14420000D02*
X55790000Y-22580000D01*
X55830000Y-14421000D02*
X55830000Y-22579000D01*
X55870000Y-14422000D02*
X55870000Y-22578000D01*
X55910000Y-14423000D02*
X55910000Y-22577000D01*
X55950000Y-14425000D02*
X55950000Y-22575000D01*
X55990000Y-14427000D02*
X55990000Y-22573000D01*
X56030000Y-14430000D02*
X56030000Y-22570000D01*
X56070000Y-14432000D02*
X56070000Y-22568000D01*
X56110000Y-14436000D02*
X56110000Y-22564000D01*
X56150000Y-14439000D02*
X56150000Y-22561000D01*
X56190000Y-14444000D02*
X56190000Y-22556000D01*
X56230000Y-14448000D02*
X56230000Y-22552000D01*
X56270000Y-14453000D02*
X56270000Y-22547000D01*
X56310000Y-14458000D02*
X56310000Y-22542000D01*
X56350000Y-14464000D02*
X56350000Y-22536000D01*
X56390000Y-14470000D02*
X56390000Y-22530000D01*
X56430000Y-14477000D02*
X56430000Y-22523000D01*
X56470000Y-14483000D02*
X56470000Y-17460000D01*
X56470000Y-19540000D02*
X56470000Y-22517000D01*
X56510000Y-14491000D02*
X56510000Y-17460000D01*
X56510000Y-19540000D02*
X56510000Y-22509000D01*
X56550000Y-14498000D02*
X56550000Y-17460000D01*
X56550000Y-19540000D02*
X56550000Y-22502000D01*
X56590000Y-14507000D02*
X56590000Y-17460000D01*
X56590000Y-19540000D02*
X56590000Y-22493000D01*
X56630000Y-14515000D02*
X56630000Y-17460000D01*
X56630000Y-19540000D02*
X56630000Y-22485000D01*
X56670000Y-14524000D02*
X56670000Y-17460000D01*
X56670000Y-19540000D02*
X56670000Y-22476000D01*
X56710000Y-14533000D02*
X56710000Y-17460000D01*
X56710000Y-19540000D02*
X56710000Y-22467000D01*
X56750000Y-14543000D02*
X56750000Y-17460000D01*
X56750000Y-19540000D02*
X56750000Y-22457000D01*
X56790000Y-14553000D02*
X56790000Y-17460000D01*
X56790000Y-19540000D02*
X56790000Y-22447000D01*
X56830000Y-14564000D02*
X56830000Y-17460000D01*
X56830000Y-19540000D02*
X56830000Y-22436000D01*
X56870000Y-14575000D02*
X56870000Y-17460000D01*
X56870000Y-19540000D02*
X56870000Y-22425000D01*
X56910000Y-14587000D02*
X56910000Y-17460000D01*
X56910000Y-19540000D02*
X56910000Y-22413000D01*
X56950000Y-14599000D02*
X56950000Y-17460000D01*
X56950000Y-19540000D02*
X56950000Y-22401000D01*
X56990000Y-14611000D02*
X56990000Y-17460000D01*
X56990000Y-19540000D02*
X56990000Y-22389000D01*
X57030000Y-14624000D02*
X57030000Y-17460000D01*
X57030000Y-19540000D02*
X57030000Y-22376000D01*
X57070000Y-14637000D02*
X57070000Y-17460000D01*
X57070000Y-19540000D02*
X57070000Y-22363000D01*
X57110000Y-14651000D02*
X57110000Y-17460000D01*
X57110000Y-19540000D02*
X57110000Y-22349000D01*
X57150000Y-14665000D02*
X57150000Y-17460000D01*
X57150000Y-19540000D02*
X57150000Y-22335000D01*
X57190000Y-14680000D02*
X57190000Y-17460000D01*
X57190000Y-19540000D02*
X57190000Y-22320000D01*
X57230000Y-14695000D02*
X57230000Y-17460000D01*
X57230000Y-19540000D02*
X57230000Y-22305000D01*
X57270000Y-14711000D02*
X57270000Y-17460000D01*
X57270000Y-19540000D02*
X57270000Y-22289000D01*
X57310000Y-14727000D02*
X57310000Y-17460000D01*
X57310000Y-19540000D02*
X57310000Y-22273000D01*
X57350000Y-14743000D02*
X57350000Y-17460000D01*
X57350000Y-19540000D02*
X57350000Y-22257000D01*
X57390000Y-14760000D02*
X57390000Y-17460000D01*
X57390000Y-19540000D02*
X57390000Y-22240000D01*
X57430000Y-14778000D02*
X57430000Y-17460000D01*
X57430000Y-19540000D02*
X57430000Y-22222000D01*
X57470000Y-14796000D02*
X57470000Y-17460000D01*
X57470000Y-19540000D02*
X57470000Y-22204000D01*
X57510000Y-14815000D02*
X57510000Y-17460000D01*
X57510000Y-19540000D02*
X57510000Y-22185000D01*
X57550000Y-14834000D02*
X57550000Y-17460000D01*
X57550000Y-19540000D02*
X57550000Y-22166000D01*
X57590000Y-14854000D02*
X57590000Y-17460000D01*
X57590000Y-19540000D02*
X57590000Y-22146000D01*
X57630000Y-14874000D02*
X57630000Y-17460000D01*
X57630000Y-19540000D02*
X57630000Y-22126000D01*
X57670000Y-14895000D02*
X57670000Y-17460000D01*
X57670000Y-19540000D02*
X57670000Y-22105000D01*
X57710000Y-14916000D02*
X57710000Y-17460000D01*
X57710000Y-19540000D02*
X57710000Y-22084000D01*
X57750000Y-14938000D02*
X57750000Y-17460000D01*
X57750000Y-19540000D02*
X57750000Y-22062000D01*
X57790000Y-14961000D02*
X57790000Y-17460000D01*
X57790000Y-19540000D02*
X57790000Y-22039000D01*
X57830000Y-14984000D02*
X57830000Y-17460000D01*
X57830000Y-19540000D02*
X57830000Y-22016000D01*
X57870000Y-15007000D02*
X57870000Y-17460000D01*
X57870000Y-19540000D02*
X57870000Y-21993000D01*
X57910000Y-15032000D02*
X57910000Y-17460000D01*
X57910000Y-19540000D02*
X57910000Y-21968000D01*
X57950000Y-15057000D02*
X57950000Y-17460000D01*
X57950000Y-19540000D02*
X57950000Y-21943000D01*
X57990000Y-15082000D02*
X57990000Y-17460000D01*
X57990000Y-19540000D02*
X57990000Y-21918000D01*
X58030000Y-15108000D02*
X58030000Y-17460000D01*
X58030000Y-19540000D02*
X58030000Y-21892000D01*
X58070000Y-15135000D02*
X58070000Y-17460000D01*
X58070000Y-19540000D02*
X58070000Y-21865000D01*
X58110000Y-15163000D02*
X58110000Y-17460000D01*
X58110000Y-19540000D02*
X58110000Y-21837000D01*
X58150000Y-15191000D02*
X58150000Y-17460000D01*
X58150000Y-19540000D02*
X58150000Y-21809000D01*
X58190000Y-15220000D02*
X58190000Y-17460000D01*
X58190000Y-19540000D02*
X58190000Y-21780000D01*
X58230000Y-15250000D02*
X58230000Y-17460000D01*
X58230000Y-19540000D02*
X58230000Y-21750000D01*
X58270000Y-15281000D02*
X58270000Y-17460000D01*
X58270000Y-19540000D02*
X58270000Y-21719000D01*
X58310000Y-15312000D02*
X58310000Y-17460000D01*
X58310000Y-19540000D02*
X58310000Y-21688000D01*
X58350000Y-15344000D02*
X58350000Y-17460000D01*
X58350000Y-19540000D02*
X58350000Y-21656000D01*
X58390000Y-15377000D02*
X58390000Y-17460000D01*
X58390000Y-19540000D02*
X58390000Y-21623000D01*
X58430000Y-15411000D02*
X58430000Y-17460000D01*
X58430000Y-19540000D02*
X58430000Y-21589000D01*
X58470000Y-15445000D02*
X58470000Y-17460000D01*
X58470000Y-19540000D02*
X58470000Y-21555000D01*
X58510000Y-15481000D02*
X58510000Y-17460000D01*
X58510000Y-19540000D02*
X58510000Y-21519000D01*
X58550000Y-15518000D02*
X58550000Y-21482000D01*
X58590000Y-15555000D02*
X58590000Y-21445000D01*
X58630000Y-15594000D02*
X58630000Y-21406000D01*
X58670000Y-15633000D02*
X58670000Y-21367000D01*
X58710000Y-15674000D02*
X58710000Y-21326000D01*
X58750000Y-15716000D02*
X58750000Y-21284000D01*
X58790000Y-15759000D02*
X58790000Y-21241000D01*
X58830000Y-15804000D02*
X58830000Y-21196000D01*
X58870000Y-15849000D02*
X58870000Y-21151000D01*
X58910000Y-15896000D02*
X58910000Y-21104000D01*
X58950000Y-15945000D02*
X58950000Y-21055000D01*
X58990000Y-15995000D02*
X58990000Y-21005000D01*
X59030000Y-16047000D02*
X59030000Y-20953000D01*
X59070000Y-16100000D02*
X59070000Y-20900000D01*
X59110000Y-16156000D02*
X59110000Y-20844000D01*
X59150000Y-16213000D02*
X59150000Y-20787000D01*
X59190000Y-16273000D02*
X59190000Y-20727000D01*
X59230000Y-16335000D02*
X59230000Y-20665000D01*
X59270000Y-16399000D02*
X59270000Y-20601000D01*
X59310000Y-16466000D02*
X59310000Y-20534000D01*
X59350000Y-16536000D02*
X59350000Y-20464000D01*
X59390000Y-16610000D02*
X59390000Y-20390000D01*
X59430000Y-16687000D02*
X59430000Y-20313000D01*
X59470000Y-16769000D02*
X59470000Y-20231000D01*
X59510000Y-16856000D02*
X59510000Y-20144000D01*
X59550000Y-16948000D02*
X59550000Y-20052000D01*
X59590000Y-17047000D02*
X59590000Y-19953000D01*
X59630000Y-17154000D02*
X59630000Y-19846000D01*
X59670000Y-17272000D02*
X59670000Y-19728000D01*
X59710000Y-17403000D02*
X59710000Y-19597000D01*
X59750000Y-17553000D02*
X59750000Y-19447000D01*
X59790000Y-17732000D02*
X59790000Y-19268000D01*
X59830000Y-17967000D02*
X59830000Y-19033000D01*
X59870000Y-18500000D02*
G75*
G02*
X51630000Y-18500000I-4120000J0D01*
G01*
X51630000Y-18500000D02*
G75*
G02*
X59870000Y-18500000I4120000J0D01*
G01*
%TO.C,C5*%
X63880000Y-51630000D02*
X69120000Y-51630000D01*
X63880000Y-51967000D02*
X63880000Y-51630000D01*
X63880000Y-54370000D02*
X63880000Y-54033000D01*
X69120000Y-51630000D02*
X69120000Y-51967000D01*
X69120000Y-54033000D02*
X69120000Y-54370000D01*
X69120000Y-54370000D02*
X63880000Y-54370000D01*
%TO.C,Q1*%
X79470000Y-48850000D02*
X83070000Y-48850000D01*
X79431522Y-48838478D02*
G75*
G02*
X81270000Y-44399999I1838478J1838478D01*
G01*
X81270000Y-44400000D02*
G75*
G02*
X83108478Y-48838478I0J-2600000D01*
G01*
%TO.C,R9*%
X17040000Y-64000000D02*
X17810000Y-64000000D01*
X25120000Y-64000000D02*
X24350000Y-64000000D01*
X17810000Y-62630000D02*
X24350000Y-62630000D01*
X24350000Y-65370000D01*
X17810000Y-65370000D01*
X17810000Y-62630000D01*
%TO.C,OK1*%
X34160000Y-30670000D02*
X34160000Y-35870000D01*
X34160000Y-35870000D02*
X39460000Y-35870000D01*
X35810000Y-30670000D02*
X34160000Y-30670000D01*
X39460000Y-30670000D02*
X37810000Y-30670000D01*
X39460000Y-35870000D02*
X39460000Y-30670000D01*
X37810000Y-30670000D02*
G75*
G02*
X35810000Y-30670000I-1000000J0D01*
G01*
%TO.C,BR1*%
X44040000Y-16600000D02*
X44040000Y-25200000D01*
X44040000Y-25200000D02*
X49580000Y-25200000D01*
X45810000Y-16600000D02*
X44040000Y-16600000D01*
X49580000Y-16600000D02*
X47810000Y-16600000D01*
X49580000Y-25200000D02*
X49580000Y-16600000D01*
X47810000Y-16600000D02*
G75*
G02*
X45810000Y-16600000I-1000000J0D01*
G01*
%TO.C,SW1*%
X78620000Y-16620000D02*
X80000000Y-16620000D01*
X78620000Y-18000000D02*
X78620000Y-16620000D01*
X78620000Y-19270000D02*
X78620000Y-21920000D01*
X78620000Y-19270000D02*
X81380000Y-19270000D01*
X78620000Y-21920000D02*
X81380000Y-21920000D01*
X81380000Y-19270000D02*
X81380000Y-21920000D01*
%TO.C,J1*%
X3880000Y-10380000D02*
X11920000Y-10380000D01*
X3880000Y-21120000D02*
X3880000Y-10380000D01*
X7500000Y-11188000D02*
X7500000Y-10380000D01*
X7500000Y-16120000D02*
X7500000Y-14812000D01*
X7500000Y-21120000D02*
X7500000Y-19880000D01*
X8500000Y-11188000D02*
X8500000Y-10380000D01*
X8500000Y-16120000D02*
X8500000Y-14812000D01*
X8500000Y-21120000D02*
X8500000Y-19880000D01*
X9800000Y-12457000D02*
X9800000Y-10380000D01*
X9800000Y-16120000D02*
X9800000Y-13543000D01*
X9800000Y-21120000D02*
X9800000Y-19880000D01*
X11920000Y-10380000D02*
X11920000Y-17700000D01*
X11920000Y-18300000D02*
X11920000Y-21120000D01*
X11920000Y-21120000D02*
X3880000Y-21120000D01*
X12530000Y-18440000D02*
X11920000Y-18000000D01*
X12530000Y-17560000D01*
X12530000Y-18440000D01*
G36*
X12530000Y-18440000D02*
G01*
X11920000Y-18000000D01*
X12530000Y-17560000D01*
X12530000Y-18440000D01*
G37*
%TO.C,R2*%
X45040000Y-32000000D02*
X45810000Y-32000000D01*
X53120000Y-32000000D02*
X52350000Y-32000000D01*
X45810000Y-30630000D02*
X52350000Y-30630000D01*
X52350000Y-33370000D01*
X45810000Y-33370000D01*
X45810000Y-30630000D01*
%TO.C,JP1*%
X6620000Y-62620000D02*
X8000000Y-62620000D01*
X6620000Y-64000000D02*
X6620000Y-62620000D01*
X6620000Y-65270000D02*
X6620000Y-67920000D01*
X6620000Y-65270000D02*
X9380000Y-65270000D01*
X6620000Y-67920000D02*
X9380000Y-67920000D01*
X9380000Y-65270000D02*
X9380000Y-67920000D01*
%TO.C,K1*%
X16400000Y-46500000D02*
X18600000Y-46500000D01*
X16400000Y-48600000D02*
X16400000Y-46500000D01*
X16600000Y-46700000D02*
X24400000Y-46700000D01*
X16600000Y-59400000D02*
X16600000Y-46700000D01*
X18762000Y-51683000D02*
X18762000Y-52318000D01*
X18762000Y-52318000D02*
X19422000Y-52318000D01*
X19422000Y-51810000D02*
X19422000Y-52826000D01*
X19422000Y-52826000D02*
X21327000Y-52826000D01*
X20946000Y-51810000D02*
X20311000Y-52826000D01*
X21327000Y-51810000D02*
X19422000Y-51810000D01*
X21327000Y-51810000D02*
X21327000Y-52826000D01*
X21962000Y-51683000D02*
X21962000Y-52318000D01*
X21962000Y-52318000D02*
X21327000Y-52318000D01*
X24400000Y-46700000D02*
X24400000Y-59400000D01*
X24400000Y-59400000D02*
X16600000Y-59400000D01*
%TO.C,LED1*%
X74710000Y-30455000D02*
X74710000Y-33545000D01*
X74710000Y-30455170D02*
G75*
G02*
X80260000Y-32000000I2560000J-1544830D01*
G01*
X80260000Y-32000000D02*
G75*
G02*
X74710000Y-33544830I-2990000J0D01*
G01*
X79770000Y-32000000D02*
G75*
G02*
X74770000Y-32000000I-2500000J0D01*
G01*
X74770000Y-32000000D02*
G75*
G02*
X79770000Y-32000000I2500000J0D01*
G01*
%TO.C,J2*%
X25880000Y-40380000D02*
X33920000Y-40380000D01*
X25880000Y-51120000D02*
X25880000Y-40380000D01*
X29500000Y-41188000D02*
X29500000Y-40380000D01*
X29500000Y-46120000D02*
X29500000Y-44812000D01*
X29500000Y-51120000D02*
X29500000Y-49880000D01*
X30500000Y-41188000D02*
X30500000Y-40380000D01*
X30500000Y-46120000D02*
X30500000Y-44812000D01*
X30500000Y-51120000D02*
X30500000Y-49880000D01*
X31800000Y-42457000D02*
X31800000Y-40380000D01*
X31800000Y-46120000D02*
X31800000Y-43543000D01*
X31800000Y-51120000D02*
X31800000Y-49880000D01*
X33920000Y-40380000D02*
X33920000Y-47700000D01*
X33920000Y-48300000D02*
X33920000Y-51120000D01*
X33920000Y-51120000D02*
X25880000Y-51120000D01*
X34530000Y-48440000D02*
X33920000Y-48000000D01*
X34530000Y-47560000D01*
X34530000Y-48440000D01*
G36*
X34530000Y-48440000D02*
G01*
X33920000Y-48000000D01*
X34530000Y-47560000D01*
X34530000Y-48440000D01*
G37*
%TO.C,C4*%
X49880000Y-51630000D02*
X55120000Y-51630000D01*
X49880000Y-51967000D02*
X49880000Y-51630000D01*
X49880000Y-54370000D02*
X49880000Y-54033000D01*
X55120000Y-51630000D02*
X55120000Y-51967000D01*
X55120000Y-54033000D02*
X55120000Y-54370000D01*
X55120000Y-54370000D02*
X49880000Y-54370000D01*
%TD*%
M02*
