%TF.GenerationSoftware,KiCad,Pcbnew,10.0.1*%
%TF.CreationDate,2026-04-18T16:11:39+02:00*%
%TF.ProjectId,fermax_diy,6665726d-6178-45f6-9469-792e6b696361,rev?*%
%TF.SameCoordinates,Original*%
%TF.FileFunction,Copper,L2,Bot*%
%TF.FilePolarity,Positive*%
%FSLAX46Y46*%
G04 Gerber Fmt 4.6, Leading zero omitted, Abs format (unit mm)*
G04 Created by KiCad (PCBNEW 10.0.1) date 2026-04-18 16:11:39*
%MOMM*%
%LPD*%
G01*
G04 APERTURE LIST*
G04 Aperture macros list*
%AMRoundRect*
0 Rectangle with rounded corners*
0 $1 Rounding radius*
0 $2 $3 $4 $5 $6 $7 $8 $9 X,Y pos of 4 corners*
0 Add a 4 corners polygon primitive as box body*
4,1,4,$2,$3,$4,$5,$6,$7,$8,$9,$2,$3,0*
0 Add four circle primitives for the rounded corners*
1,1,$1+$1,$2,$3*
1,1,$1+$1,$4,$5*
1,1,$1+$1,$6,$7*
1,1,$1+$1,$8,$9*
0 Add four rect primitives between the rounded corners*
20,1,$1+$1,$2,$3,$4,$5,0*
20,1,$1+$1,$4,$5,$6,$7,0*
20,1,$1+$1,$6,$7,$8,$9,0*
20,1,$1+$1,$8,$9,$2,$3,0*%
G04 Aperture macros list end*
%TA.AperFunction,ComponentPad*%
%ADD10R,2.000000X2.000000*%
%TD*%
%TA.AperFunction,ComponentPad*%
%ADD11C,2.000000*%
%TD*%
%TA.AperFunction,ComponentPad*%
%ADD12RoundRect,0.249999X0.850001X-0.850001X0.850001X0.850001X-0.850001X0.850001X-0.850001X-0.850001X0*%
%TD*%
%TA.AperFunction,ComponentPad*%
%ADD13C,2.200000*%
%TD*%
%TA.AperFunction,ComponentPad*%
%ADD14C,1.600000*%
%TD*%
%TA.AperFunction,ComponentPad*%
%ADD15R,1.050000X1.500000*%
%TD*%
%TA.AperFunction,ComponentPad*%
%ADD16O,1.050000X1.500000*%
%TD*%
%TA.AperFunction,ComponentPad*%
%ADD17R,1.700000X1.700000*%
%TD*%
%TA.AperFunction,ComponentPad*%
%ADD18C,1.700000*%
%TD*%
%TA.AperFunction,ComponentPad*%
%ADD19RoundRect,0.250000X-0.550000X-0.550000X0.550000X-0.550000X0.550000X0.550000X-0.550000X0.550000X0*%
%TD*%
%TA.AperFunction,ComponentPad*%
%ADD20R,1.600000X1.600000*%
%TD*%
%TA.AperFunction,ComponentPad*%
%ADD21O,1.600000X1.600000*%
%TD*%
%TA.AperFunction,ComponentPad*%
%ADD22RoundRect,0.250001X1.149999X-1.149999X1.149999X1.149999X-1.149999X1.149999X-1.149999X-1.149999X0*%
%TD*%
%TA.AperFunction,ComponentPad*%
%ADD23C,2.800000*%
%TD*%
%TA.AperFunction,ComponentPad*%
%ADD24R,1.800000X1.800000*%
%TD*%
%TA.AperFunction,ComponentPad*%
%ADD25C,1.800000*%
%TD*%
G04 APERTURE END LIST*
D10*
%TO.P,K2,1*%
%TO.N,N/C*%
X44000000Y-64000000D03*
D11*
%TO.P,K2,2*%
X44000000Y-66540000D03*
%TO.P,K2,5*%
X44000000Y-74160000D03*
%TO.P,K2,6*%
X49080000Y-74160000D03*
%TO.P,K2,9*%
X49080000Y-66540000D03*
%TO.P,K2,10*%
X49080000Y-64000000D03*
%TD*%
D12*
%TO.P,TVS1,1*%
%TO.N,N/C*%
X33000000Y-18500000D03*
D13*
%TO.P,TVS1,2*%
X33000000Y-8340000D03*
%TD*%
D14*
%TO.P,R8,1*%
%TO.N,N/C*%
X72000000Y-47000000D03*
%TO.P,R8,2*%
X82160000Y-47000000D03*
%TD*%
%TO.P,R5,1*%
%TO.N,N/C*%
X64000000Y-47000000D03*
%TO.P,R5,2*%
X74160000Y-47000000D03*
%TD*%
%TO.P,R6,1*%
%TO.N,N/C*%
X65000000Y-36500000D03*
%TO.P,R6,2*%
X65000000Y-26340000D03*
%TD*%
D15*
%TO.P,U1,1*%
%TO.N,N/C*%
X64000000Y-18500000D03*
D16*
%TO.P,U1,2*%
X65270000Y-18500000D03*
%TO.P,U1,3*%
X66540000Y-18500000D03*
%TD*%
D14*
%TO.P,F1,1*%
%TO.N,N/C*%
X22000000Y-15500000D03*
%TO.P,F1,2*%
X32160000Y-15500000D03*
%TD*%
D17*
%TO.P,J3,1*%
%TO.N,N/C*%
X56000000Y-64000000D03*
D18*
%TO.P,J3,2*%
X56000000Y-66540000D03*
%TD*%
D14*
%TO.P,R3,1*%
%TO.N,N/C*%
X50000000Y-47000000D03*
%TO.P,R3,2*%
X60160000Y-47000000D03*
%TD*%
%TO.P,R1,1*%
%TO.N,N/C*%
X22000000Y-32000000D03*
%TO.P,R1,2*%
X32160000Y-32000000D03*
%TD*%
%TO.P,R7,1*%
%TO.N,N/C*%
X76000000Y-38000000D03*
%TO.P,R7,2*%
X76000000Y-27840000D03*
%TD*%
%TO.P,C7,1*%
%TO.N,N/C*%
X65000000Y-32000000D03*
%TO.P,C7,2*%
X67500000Y-32000000D03*
%TD*%
D19*
%TO.P,D2,1*%
%TO.N,N/C*%
X80000000Y-53500000D03*
D14*
%TO.P,D2,2*%
X87620000Y-53500000D03*
%TD*%
%TO.P,C2,1*%
%TO.N,N/C*%
X68000000Y-18500000D03*
%TO.P,C2,2*%
X73000000Y-18500000D03*
%TD*%
D15*
%TO.P,Q2,1*%
%TO.N,N/C*%
X24000000Y-64000000D03*
D16*
%TO.P,Q2,2*%
X25270000Y-64000000D03*
%TO.P,Q2,3*%
X26540000Y-64000000D03*
%TD*%
D19*
%TO.P,U3,1*%
%TO.N,N/C*%
X56000000Y-36000000D03*
D14*
%TO.P,U3,2*%
X56000000Y-38540000D03*
%TO.P,U3,3*%
X56000000Y-41080000D03*
%TO.P,U3,4*%
X56000000Y-43620000D03*
%TO.P,U3,5*%
X56000000Y-46160000D03*
%TO.P,U3,6*%
X56000000Y-48700000D03*
%TO.P,U3,7*%
X56000000Y-51240000D03*
%TO.P,U3,8*%
X63620000Y-51240000D03*
%TO.P,U3,9*%
X63620000Y-48700000D03*
%TO.P,U3,10*%
X63620000Y-46160000D03*
%TO.P,U3,11*%
X63620000Y-43620000D03*
%TO.P,U3,12*%
X63620000Y-41080000D03*
%TO.P,U3,13*%
X63620000Y-38540000D03*
%TO.P,U3,14*%
X63620000Y-36000000D03*
%TD*%
D19*
%TO.P,D3,1*%
%TO.N,N/C*%
X32000000Y-64000000D03*
D14*
%TO.P,D3,2*%
X39620000Y-64000000D03*
%TD*%
D19*
%TO.P,C1,1*%
%TO.N,N/C*%
X54000000Y-18500000D03*
D14*
%TO.P,C1,2*%
X57500000Y-18500000D03*
%TD*%
%TO.P,C5,1*%
%TO.N,N/C*%
X64000000Y-53000000D03*
%TO.P,C5,2*%
X69000000Y-53000000D03*
%TD*%
D15*
%TO.P,Q1,1*%
%TO.N,N/C*%
X80000000Y-47000000D03*
D16*
%TO.P,Q1,2*%
X81270000Y-47000000D03*
%TO.P,Q1,3*%
X82540000Y-47000000D03*
%TD*%
D14*
%TO.P,R9,1*%
%TO.N,N/C*%
X16000000Y-64000000D03*
%TO.P,R9,2*%
X26160000Y-64000000D03*
%TD*%
D19*
%TO.P,OK1,1*%
%TO.N,N/C*%
X33000000Y-32000000D03*
D14*
%TO.P,OK1,2*%
X33000000Y-34540000D03*
%TO.P,OK1,3*%
X40620000Y-34540000D03*
%TO.P,OK1,4*%
X40620000Y-32000000D03*
%TD*%
D20*
%TO.P,BR1,1*%
%TO.N,N/C*%
X43000000Y-18500000D03*
D21*
%TO.P,BR1,2*%
X43000000Y-23580000D03*
%TO.P,BR1,3*%
X50620000Y-23580000D03*
%TO.P,BR1,4*%
X50620000Y-18500000D03*
%TD*%
D17*
%TO.P,SW1,1*%
%TO.N,N/C*%
X80000000Y-18000000D03*
D18*
%TO.P,SW1,2*%
X80000000Y-20540000D03*
%TD*%
D22*
%TO.P,J1,1*%
%TO.N,N/C*%
X8000000Y-18000000D03*
D23*
%TO.P,J1,2*%
X8000000Y-13000000D03*
%TD*%
D14*
%TO.P,R2,1*%
%TO.N,N/C*%
X44000000Y-32000000D03*
%TO.P,R2,2*%
X54160000Y-32000000D03*
%TD*%
D17*
%TO.P,JP1,1*%
%TO.N,N/C*%
X8000000Y-64000000D03*
D18*
%TO.P,JP1,2*%
X8000000Y-66540000D03*
%TD*%
D10*
%TO.P,K1,1*%
%TO.N,N/C*%
X18000000Y-48000000D03*
D11*
%TO.P,K1,2*%
X18000000Y-50540000D03*
%TO.P,K1,5*%
X18000000Y-58160000D03*
%TO.P,K1,6*%
X23080000Y-58160000D03*
%TO.P,K1,9*%
X23080000Y-50540000D03*
%TO.P,K1,10*%
X23080000Y-48000000D03*
%TD*%
D24*
%TO.P,LED1,1*%
%TO.N,N/C*%
X76000000Y-32000000D03*
D25*
%TO.P,LED1,2*%
X78540000Y-32000000D03*
%TD*%
D22*
%TO.P,J2,1*%
%TO.N,N/C*%
X30000000Y-48000000D03*
D23*
%TO.P,J2,2*%
X30000000Y-43000000D03*
%TD*%
D14*
%TO.P,C4,1*%
%TO.N,N/C*%
X50000000Y-53000000D03*
%TO.P,C4,2*%
X55000000Y-53000000D03*
%TD*%
M02*
