%TF.GenerationSoftware,KiCad,Pcbnew,10.0.1*%
%TF.CreationDate,2026-04-18T16:11:39+02:00*%
%TF.ProjectId,fermax_diy,6665726d-6178-45f6-9469-792e6b696361,rev?*%
%TF.SameCoordinates,Original*%
%TF.FileFunction,Soldermask,Bot*%
%TF.FilePolarity,Negative*%
%FSLAX46Y46*%
G04 Gerber Fmt 4.6, Leading zero omitted, Abs format (unit mm)*
G04 Created by KiCad (PCBNEW 10.0.1) date 2026-04-18 16:11:39*
%MOMM*%
%LPD*%
G01*
G04 APERTURE LIST*
G04 Aperture macros list*
%AMRoundRect*
0 Rectangle with rounded corners*
0 $1 Rounding radius*
0 $2 $3 $4 $5 $6 $7 $8 $9 X,Y pos of 4 corners*
0 Add a 4 corners polygon primitive as box body*
4,1,4,$2,$3,$4,$5,$6,$7,$8,$9,$2,$3,0*
0 Add four circle primitives for the rounded corners*
1,1,$1+$1,$2,$3*
1,1,$1+$1,$4,$5*
1,1,$1+$1,$6,$7*
1,1,$1+$1,$8,$9*
0 Add four rect primitives between the rounded corners*
20,1,$1+$1,$2,$3,$4,$5,0*
20,1,$1+$1,$4,$5,$6,$7,0*
20,1,$1+$1,$6,$7,$8,$9,0*
20,1,$1+$1,$8,$9,$2,$3,0*%
G04 Aperture macros list end*
%ADD10R,2.000000X2.000000*%
%ADD11C,2.000000*%
%ADD12RoundRect,0.249999X0.850001X-0.850001X0.850001X0.850001X-0.850001X0.850001X-0.850001X-0.850001X0*%
%ADD13C,2.200000*%
%ADD14C,1.600000*%
%ADD15R,1.050000X1.500000*%
%ADD16O,1.050000X1.500000*%
%ADD17R,1.700000X1.700000*%
%ADD18C,1.700000*%
%ADD19C,3.200000*%
%ADD20RoundRect,0.250000X-0.550000X-0.550000X0.550000X-0.550000X0.550000X0.550000X-0.550000X0.550000X0*%
%ADD21R,1.600000X1.600000*%
%ADD22O,1.600000X1.600000*%
%ADD23RoundRect,0.250001X1.149999X-1.149999X1.149999X1.149999X-1.149999X1.149999X-1.149999X-1.149999X0*%
%ADD24C,2.800000*%
%ADD25R,1.800000X1.800000*%
%ADD26C,1.800000*%
G04 APERTURE END LIST*
D10*
%TO.C,K2*%
X44000000Y-64000000D03*
D11*
X44000000Y-66540000D03*
X44000000Y-74160000D03*
X49080000Y-74160000D03*
X49080000Y-66540000D03*
X49080000Y-64000000D03*
%TD*%
D12*
%TO.C,TVS1*%
X33000000Y-18500000D03*
D13*
X33000000Y-8340000D03*
%TD*%
D14*
%TO.C,R8*%
X72000000Y-47000000D03*
X82160000Y-47000000D03*
%TD*%
%TO.C,R5*%
X64000000Y-47000000D03*
X74160000Y-47000000D03*
%TD*%
%TO.C,R6*%
X65000000Y-36500000D03*
X65000000Y-26340000D03*
%TD*%
D15*
%TO.C,U1*%
X64000000Y-18500000D03*
D16*
X65270000Y-18500000D03*
X66540000Y-18500000D03*
%TD*%
D14*
%TO.C,F1*%
X22000000Y-15500000D03*
X32160000Y-15500000D03*
%TD*%
D17*
%TO.C,J3*%
X56000000Y-64000000D03*
D18*
X56000000Y-66540000D03*
%TD*%
D14*
%TO.C,R3*%
X50000000Y-47000000D03*
X60160000Y-47000000D03*
%TD*%
%TO.C,R1*%
X22000000Y-32000000D03*
X32160000Y-32000000D03*
%TD*%
D19*
%TO.C,MH*%
X4000000Y-4000000D03*
%TD*%
D14*
%TO.C,R7*%
X76000000Y-38000000D03*
X76000000Y-27840000D03*
%TD*%
%TO.C,C7*%
X65000000Y-32000000D03*
X67500000Y-32000000D03*
%TD*%
D20*
%TO.C,D2*%
X80000000Y-53500000D03*
D14*
X87620000Y-53500000D03*
%TD*%
D19*
%TO.C,MH*%
X88000000Y-74000000D03*
%TD*%
D14*
%TO.C,C2*%
X68000000Y-18500000D03*
X73000000Y-18500000D03*
%TD*%
D15*
%TO.C,Q2*%
X24000000Y-64000000D03*
D16*
X25270000Y-64000000D03*
X26540000Y-64000000D03*
%TD*%
D20*
%TO.C,U3*%
X56000000Y-36000000D03*
D14*
X56000000Y-38540000D03*
X56000000Y-41080000D03*
X56000000Y-43620000D03*
X56000000Y-46160000D03*
X56000000Y-48700000D03*
X56000000Y-51240000D03*
X63620000Y-51240000D03*
X63620000Y-48700000D03*
X63620000Y-46160000D03*
X63620000Y-43620000D03*
X63620000Y-41080000D03*
X63620000Y-38540000D03*
X63620000Y-36000000D03*
%TD*%
D20*
%TO.C,D3*%
X32000000Y-64000000D03*
D14*
X39620000Y-64000000D03*
%TD*%
D20*
%TO.C,C1*%
X54000000Y-18500000D03*
D14*
X57500000Y-18500000D03*
%TD*%
%TO.C,C5*%
X64000000Y-53000000D03*
X69000000Y-53000000D03*
%TD*%
D15*
%TO.C,Q1*%
X80000000Y-47000000D03*
D16*
X81270000Y-47000000D03*
X82540000Y-47000000D03*
%TD*%
D14*
%TO.C,R9*%
X16000000Y-64000000D03*
X26160000Y-64000000D03*
%TD*%
D19*
%TO.C,MH*%
X4000000Y-74000000D03*
%TD*%
D20*
%TO.C,OK1*%
X33000000Y-32000000D03*
D14*
X33000000Y-34540000D03*
X40620000Y-34540000D03*
X40620000Y-32000000D03*
%TD*%
D21*
%TO.C,BR1*%
X43000000Y-18500000D03*
D22*
X43000000Y-23580000D03*
X50620000Y-23580000D03*
X50620000Y-18500000D03*
%TD*%
D19*
%TO.C,MH*%
X88000000Y-4000000D03*
%TD*%
D17*
%TO.C,SW1*%
X80000000Y-18000000D03*
D18*
X80000000Y-20540000D03*
%TD*%
D23*
%TO.C,J1*%
X8000000Y-18000000D03*
D24*
X8000000Y-13000000D03*
%TD*%
D14*
%TO.C,R2*%
X44000000Y-32000000D03*
X54160000Y-32000000D03*
%TD*%
D17*
%TO.C,JP1*%
X8000000Y-64000000D03*
D18*
X8000000Y-66540000D03*
%TD*%
D10*
%TO.C,K1*%
X18000000Y-48000000D03*
D11*
X18000000Y-50540000D03*
X18000000Y-58160000D03*
X23080000Y-58160000D03*
X23080000Y-50540000D03*
X23080000Y-48000000D03*
%TD*%
D25*
%TO.C,LED1*%
X76000000Y-32000000D03*
D26*
X78540000Y-32000000D03*
%TD*%
D23*
%TO.C,J2*%
X30000000Y-48000000D03*
D24*
X30000000Y-43000000D03*
%TD*%
D14*
%TO.C,C4*%
X50000000Y-53000000D03*
X55000000Y-53000000D03*
%TD*%
M02*
