<?xml version="1.0" encoding="utf-8" ?>
<svg baseProfile="full" height="800" version="1.1" viewBox="0 0 1400 800" width="1400" xmlns="http://www.w3.org/2000/svg" xmlns:ev="http://www.w3.org/2001/xml-events" xmlns:xlink="http://www.w3.org/1999/xlink"><defs><style type="text/css"><![CDATA[
.wire { stroke: #111; stroke-width: 1.6; fill: none; }
.bus { stroke: #b00; stroke-width: 2.0; fill: none; }
.iso { stroke: #888; stroke-dasharray: 6 4; stroke-width: 1; fill: none; }
.comp { fill: white; stroke: #111; stroke-width: 1.4; }
.lbl { font-family: ui-sans-serif, -apple-system, 'Helvetica Neue', sans-serif; font-size: 13px; fill: #111; }
.lbl-sm { font-family: ui-sans-serif; font-size: 10.5px; fill: #444; }
.refdes { font-family: ui-monospace, Menlo, monospace; font-size: 12px; font-weight: 600; fill: #06c; }
.power { fill: #c30; font-weight: 600; }
.gnd { fill: #060; font-weight: 600; }
.title { font-family: ui-sans-serif; font-size: 20px; font-weight: 700; fill: #111; }
.subtitle { font-family: ui-sans-serif; font-size: 12px; fill: #555; }
.dot { fill: #111; }
]]></style></defs><rect fill="white" height="800" width="1400" x="0" y="0" /><text class="title" text-anchor="middle" x="700.0" y="30">Fermax 80447 Auto-Door Adapter — DIY Capability Build</text><text class="subtitle" text-anchor="middle" x="700.0" y="50">Self-powered ring detector → 1.5 s delay → 1.5 s door pulse · 556 dual monostable, opto-isolated sense, dry-contact relay output</text><text class="lbl" text-anchor="start" x="60" y="90">FERMAX CN1</text><text class="lbl" text-anchor="end" x="54" y="130">Pin 4 (Call)</text><line class="wire" x1="60" x2="120" y1="130" y2="130" /><rect class="comp" height="16" width="36" x="132" y="122" /><text class="refdes" text-anchor="middle" x="150" y="116">F1</text><text class="lbl-sm" text-anchor="middle" x="150" y="152">MF-R005 50mA</text><line class="wire" x1="120" x2="132" y1="130" y2="130" /><line class="wire" x1="168" x2="220" y1="130" y2="130" /><text class="refdes" text-anchor="middle" x="230" y="116">TVS1</text><text class="lbl-sm" text-anchor="middle" x="258" y="152">SMBJ18A</text><line class="wire" x1="230" x2="230" y1="161" y2="168" /><polygon fill="white" points="223,168 237,168 230,180" stroke="#111" stroke-width="1.4" /><line class="wire" x1="222" x2="238" y1="180" y2="180" /><line class="wire" x1="230" x2="230" y1="180" y2="189" /><line class="wire" x1="230" x2="230" y1="130" y2="161" /><line class="wire" x1="230" x2="230" y1="189" y2="230" /><circle class="dot" cx="230" cy="130" r="3" /><rect class="comp" height="60" width="60" x="290" y="145" /><text class="refdes" text-anchor="middle" x="320" y="175">BR1</text><text class="lbl-sm" text-anchor="middle" x="320" y="137">DB107</text><text class="lbl" text-anchor="end" x="284" y="153">~</text><text class="lbl" text-anchor="end" x="284" y="201">~</text><text class="lbl power" text-anchor="start" x="356" y="153">+</text><text class="lbl gnd" text-anchor="start" x="356" y="201">−</text><line class="wire" x1="230" x2="290" y1="130" y2="130" /><line class="wire" x1="290" x2="290" y1="130" y2="153" /><line class="wire" x1="290" x2="290" y1="230" y2="201" /><text class="lbl" text-anchor="end" x="54" y="230">Pin 3 (Common/GND-bus)</text><line class="wire" x1="60" x2="290" y1="230" y2="230" /><line class="wire" x1="400" x2="400" y1="151" y2="160" /><line class="wire" x1="388" x2="412" y1="160" y2="160" /><path d="M 388 168 Q 400 173 412 168" fill="none" stroke="#111" stroke-width="1.4" /><text class="lbl-sm" text-anchor="start" x="384" y="155">+</text><line class="wire" x1="400" x2="400" y1="173" y2="175" /><text class="refdes" text-anchor="start" x="416" y="161">C1</text><text class="lbl-sm" text-anchor="start" x="416" y="179">470µF/25V</text><line class="wire" x1="350" x2="400" y1="153" y2="153" /><line class="wire" x1="400" x2="400" y1="153" y2="151" /><line class="wire" x1="350" x2="400" y1="201" y2="201" /><line class="wire" x1="400" x2="400" y1="175" y2="201" /><text class="lbl power" text-anchor="start" x="406" y="135">Vbus (12-25V)</text><rect class="comp" height="44" width="60" x="470" y="148" /><text class="refdes" text-anchor="middle" x="500" y="170">U1</text><text class="lbl-sm" text-anchor="middle" x="500" y="186">MCP1700-5002</text><text class="lbl-sm" text-anchor="end" x="466" y="158">IN</text><text class="lbl-sm" text-anchor="end" x="466" y="182">GND</text><text class="lbl-sm" text-anchor="start" x="534" y="158">OUT</text><line class="wire" x1="400" x2="470" y1="153" y2="153" /><line class="wire" x1="470" x2="470" y1="153" y2="158" /><line class="wire" x1="470" x2="470" y1="182" y2="201" /><line class="wire" x1="470" x2="400" y1="201" y2="201" /><circle class="dot" cx="400" cy="153" r="3" /><circle class="dot" cx="400" cy="201" r="3" /><line class="wire" x1="530" x2="560" y1="158" y2="158" /><text class="lbl power" text-anchor="start" x="566" y="154">+5V (logic)</text><line class="wire" x1="560" x2="560" y1="172" y2="181" /><line class="wire" x1="548" x2="572" y1="181" y2="181" /><line class="wire" x1="548" x2="572" y1="187" y2="187" /><line class="wire" x1="560" x2="560" y1="187" y2="196" /><line class="wire" x1="560" x2="560" y1="158" y2="172" /><line class="wire" x1="560" x2="560" y1="187" y2="208" /><line class="wire" x1="560" x2="560" y1="208" y2="214" /><line class="wire" x1="550" x2="570" y1="214" y2="214" /><line class="wire" x1="554" x2="566" y1="218" y2="218" /><line class="wire" x1="557" x2="563" y1="222" y2="222" /><text class="lbl-sm" text-anchor="start" x="568" y="180">C2 1µF</text><rect class="comp" height="14" width="40" x="210.0" y="313.0" /><line class="wire" x1="202.0" x2="210.0" y1="320" y2="320" /><line class="wire" x1="250.0" x2="258.0" y1="320" y2="320" /><text class="refdes" text-anchor="middle" x="230" y="308">R1</text><text class="lbl-sm" text-anchor="middle" x="230" y="342">2.2kΩ</text><line class="wire" x1="220" x2="220" y1="130" y2="320" /><line class="wire" x1="220" x2="210" y1="320" y2="320" /><circle class="dot" cx="220" cy="130" r="3" /><rect class="comp" height="130" width="100" x="290" y="380" /><text class="refdes" text-anchor="middle" x="340.0" y="396">OK1</text><text class="lbl-sm" text-anchor="middle" x="340.0" y="524">PC817 / EL817</text><line class="wire" x1="315" x2="315" y1="431.0" y2="438.0" /><polygon fill="white" points="308,438.0 322,438.0 315,450.0" stroke="#111" stroke-width="1.4" /><line class="wire" x1="307" x2="323" y1="450.0" y2="450.0" /><line class="wire" x1="315" x2="315" y1="450.0" y2="459.0" /><line stroke="#d40" stroke-width="1.0" x1="327" x2="337" y1="440.0" y2="433.0" /><line stroke="#d40" stroke-width="1.0" x1="327" x2="337" y1="450.0" y2="443.0" /><line class="wire" x1="290" x2="315" y1="410" y2="410" /><line class="wire" x1="315" x2="315" y1="410" y2="431.0" /><line class="wire" x1="290" x2="315" y1="480" y2="480" /><line class="wire" x1="315" x2="315" y1="459.0" y2="480" /><circle cx="365" cy="445.0" fill="white" r="14" stroke="#111" stroke-width="1.4" /><text class="lbl-sm" text-anchor="middle" x="365" y="449.0">C
E</text><line class="wire" x1="365" x2="365" y1="431.0" y2="410" /><line class="wire" x1="365" x2="390" y1="410" y2="410" /><line class="wire" x1="365" x2="365" y1="459.0" y2="480" /><line class="wire" x1="365" x2="390" y1="480" y2="480" /><line class="wire" x1="250" x2="290" y1="320" y2="320" /><line class="wire" x1="290" x2="285" y1="320" y2="320" /><line class="wire" x1="285" x2="285" y1="320" y2="410" /><line class="wire" x1="285" x2="290" y1="410" y2="410" /><circle class="dot" cx="120" cy="230" r="3" /><line class="wire" x1="120" x2="120" y1="230" y2="480" /><line class="wire" x1="120" x2="290" y1="480" y2="480" /><line class="iso" x1="410" x2="410" y1="70" y2="740" /><text class="lbl-sm" text-anchor="middle" x="410" y="60">← BUS SIDE  |  LOGIC SIDE →</text><rect class="comp" height="14" width="40" x="450.0" y="273.0" /><line class="wire" x1="470" x2="470" y1="265.0" y2="273.0" /><line class="wire" x1="470" x2="470" y1="287.0" y2="295.0" /><text class="refdes" text-anchor="start" x="484" y="280">R2 10kΩ</text><text class="lbl-sm" text-anchor="start" x="484" y="294">(pullup)</text><line class="wire" x1="470" x2="470" y1="252" y2="240" /><text class="lbl power" text-anchor="middle" x="470" y="234">+5V</text><line class="wire" x1="470" x2="470" y1="308" y2="410" /><line class="wire" x1="470" x2="390" y1="410" y2="410" /><circle class="dot" cx="470" cy="410" r="3" /><line class="wire" x1="390" x2="440" y1="480" y2="480" /><line class="wire" x1="440" x2="440" y1="486" y2="492" /><line class="wire" x1="430" x2="450" y1="492" y2="492" /><line class="wire" x1="434" x2="446" y1="496" y2="496" /><line class="wire" x1="437" x2="443" y1="500" y2="500" /><text class="lbl gnd" text-anchor="middle" x="440" y="510">GND_L</text><line class="wire" x1="470" x2="574" y1="410" y2="410" /><circle class="dot" cx="470" cy="410" r="3" /><rect class="comp" height="320" width="180" x="740" y="200" /><text class="refdes" text-anchor="middle" x="830.0" y="222">U3 NE556</text><text class="lbl-sm" text-anchor="middle" x="830.0" y="238">Dual monostable</text><text class="lbl-sm" text-anchor="start" x="746" y="274">TRIG_A</text><text class="lbl-sm" text-anchor="start" x="746" y="304">THR_A</text><text class="lbl-sm" text-anchor="start" x="746" y="334">DIS_A</text><text class="lbl-sm" text-anchor="end" x="914" y="274">OUT_A</text><text class="lbl-sm" text-anchor="end" x="914" y="404">TRIG_B</text><text class="lbl-sm" text-anchor="end" x="914" y="434">THR_B</text><text class="lbl-sm" text-anchor="end" x="914" y="464">DIS_B</text><text class="lbl-sm" text-anchor="start" x="746" y="434">OUT_B</text><text class="lbl-sm power" text-anchor="middle" x="830.0" y="194">VCC</text><text class="lbl-sm gnd" text-anchor="middle" x="830.0" y="534">GND</text><line class="wire" x1="830.0" x2="830.0" y1="200" y2="176" /><line class="wire" x1="830.0" x2="830.0" y1="176" y2="168" /><line class="wire" x1="820.0" x2="840.0" y1="168" y2="168" /><text class="lbl power" text-anchor="middle" x="830.0" y="164">+5V</text><line class="wire" x1="830.0" x2="830.0" y1="520" y2="538" /><line class="wire" x1="830.0" x2="830.0" y1="538" y2="544" /><line class="wire" x1="820.0" x2="840.0" y1="544" y2="544" /><line class="wire" x1="824.0" x2="836.0" y1="548" y2="548" /><line class="wire" x1="827.0" x2="833.0" y1="552" y2="552" /><line class="wire" x1="574" x2="574" y1="410" y2="270" /><line class="wire" x1="574" x2="740" y1="270" y2="270" /><circle class="dot" cx="574" cy="410" r="3" /><line class="wire" x1="720" x2="740" y1="300" y2="300" /><line class="wire" x1="720" x2="740" y1="330" y2="330" /><line class="wire" x1="720" x2="720" y1="300" y2="330" /><circle class="dot" cx="720" cy="300" r="3" /><circle class="dot" cx="720" cy="330" r="3" /><rect class="comp" height="14" width="40" x="640.0" y="243.0" /><line class="wire" x1="660" x2="660" y1="235.0" y2="243.0" /><line class="wire" x1="660" x2="660" y1="257.0" y2="265.0" /><text class="refdes" text-anchor="start" x="678" y="246">R3</text><text class="lbl-sm" text-anchor="start" x="678" y="262">1MΩ</text><line class="wire" x1="660" x2="660" y1="222" y2="190" /><text class="lbl power" text-anchor="middle" x="660" y="186">+5V</text><line class="wire" x1="660" x2="660" y1="278" y2="300" /><line class="wire" x1="660" x2="720" y1="300" y2="300" /><line class="wire" x1="660" x2="660" y1="348" y2="357" /><line class="wire" x1="648" x2="672" y1="357" y2="357" /><path d="M 648 365 Q 660 370 672 365" fill="none" stroke="#111" stroke-width="1.4" /><text class="lbl-sm" text-anchor="start" x="644" y="352">+</text><line class="wire" x1="660" x2="660" y1="370" y2="372" /><text class="refdes" text-anchor="end" x="642" y="356">C4</text><text class="lbl-sm" text-anchor="end" x="642" y="372">1.5µF</text><line class="wire" x1="660" x2="660" y1="338" y2="330" /><line class="wire" x1="660" x2="720" y1="330" y2="330" /><line class="wire" x1="660" x2="660" y1="372" y2="396" /><line class="wire" x1="660" x2="660" y1="396" y2="402" /><line class="wire" x1="650" x2="670" y1="402" y2="402" /><line class="wire" x1="654" x2="666" y1="406" y2="406" /><line class="wire" x1="657" x2="663" y1="410" y2="410" /><text class="lbl" text-anchor="start" x="630" y="430">T₁ ≈ 1.65 s (delay)</text><line class="wire" x1="920" x2="950" y1="270" y2="270" /><line class="wire" x1="952" x2="961" y1="270" y2="270" /><line class="wire" x1="961" x2="961" y1="260" y2="280" /><line class="wire" x1="967" x2="967" y1="260" y2="280" /><line class="wire" x1="967" x2="976" y1="270" y2="270" /><text class="lbl-sm" text-anchor="middle" x="964" y="256">C7 10nF</text><line class="wire" x1="976" x2="976" y1="270" y2="400" /><line class="wire" x1="976" x2="920" y1="400" y2="400" /><circle class="dot" cx="976" cy="400" r="3" /><rect class="comp" height="14" width="40" x="956.0" y="328.0" /><line class="wire" x1="976" x2="976" y1="320.0" y2="328.0" /><line class="wire" x1="976" x2="976" y1="342.0" y2="350.0" /><text class="refdes" text-anchor="start" x="994" y="331.0">R6</text><text class="lbl-sm" text-anchor="start" x="994" y="347.0">10kΩ</text><line class="wire" x1="976" x2="976" y1="307.0" y2="285.0" /><text class="lbl power" text-anchor="middle" x="976" y="281.0">+5V</text><line class="wire" x1="920" x2="940" y1="430" y2="430" /><line class="wire" x1="920" x2="940" y1="460" y2="460" /><line class="wire" x1="940" x2="940" y1="430" y2="460" /><circle class="dot" cx="940" cy="430" r="3" /><circle class="dot" cx="940" cy="460" r="3" /><rect class="comp" height="14" width="40" x="990.0" y="373.0" /><line class="wire" x1="1010" x2="1010" y1="365.0" y2="373.0" /><line class="wire" x1="1010" x2="1010" y1="387.0" y2="395.0" /><text class="refdes" text-anchor="end" x="992" y="376">R5</text><text class="lbl-sm" text-anchor="end" x="992" y="392">1MΩ</text><line class="wire" x1="1010" x2="1010" y1="352" y2="320" /><text class="lbl power" text-anchor="middle" x="1010" y="316">+5V</text><line class="wire" x1="1010" x2="1010" y1="408" y2="430" /><line class="wire" x1="1010" x2="940" y1="430" y2="430" /><line class="wire" x1="1010" x2="1010" y1="478" y2="487" /><line class="wire" x1="998" x2="1022" y1="487" y2="487" /><path d="M 998 495 Q 1010 500 1022 495" fill="none" stroke="#111" stroke-width="1.4" /><text class="lbl-sm" text-anchor="start" x="994" y="482">+</text><line class="wire" x1="1010" x2="1010" y1="500" y2="502" /><text class="refdes" text-anchor="start" x="1028" y="486">C5</text><text class="lbl-sm" text-anchor="start" x="1028" y="502">1.5µF</text><line class="wire" x1="1010" x2="1010" y1="468" y2="460" /><line class="wire" x1="1010" x2="940" y1="460" y2="460" /><line class="wire" x1="1010" x2="1010" y1="502" y2="526" /><line class="wire" x1="1010" x2="1010" y1="526" y2="532" /><line class="wire" x1="1000" x2="1020" y1="532" y2="532" /><line class="wire" x1="1004" x2="1016" y1="536" y2="536" /><line class="wire" x1="1007" x2="1013" y1="540" y2="540" /><text class="lbl" text-anchor="start" x="1018" y="560">T₂ ≈ 1.65 s (door pulse)</text><line class="wire" x1="710" x2="740" y1="430" y2="430" /><line class="wire" x1="710" x2="710" y1="430" y2="580" /><line class="wire" x1="710" x2="630" y1="580" y2="580" /><text class="refdes" text-anchor="middle" x="380" y="556">SW1 ENABLE (panel)</text><line class="wire" x1="356" x2="372" y1="580" y2="580" /><line stroke="#111" stroke-width="1.4" x1="374" x2="394" y1="580" y2="572" /><circle cx="374" cy="580" fill="#111" r="2.5" /><circle cx="396" cy="580" fill="#111" r="2.5" /><line class="wire" x1="398" x2="420" y1="580" y2="580" /><text class="lbl-sm" text-anchor="middle" x="380" y="598">SPST toggle</text><line class="wire" x1="356" x2="356" y1="580" y2="530" /><line class="wire" x1="356" x2="680" y1="530" y2="530" /><text class="lbl power" text-anchor="end" x="350" y="524">+5V</text><rect class="comp" height="14" width="40" x="630.0" y="593.0" /><line class="wire" x1="622.0" x2="630.0" y1="600" y2="600" /><line class="wire" x1="670.0" x2="678.0" y1="600" y2="600" /><text class="refdes" text-anchor="middle" x="650" y="588">R8 1kΩ</text><line class="wire" x1="670" x2="710" y1="600" y2="600" /><line class="wire" x1="630" x2="630" y1="600" y2="600" /><line class="wire" x1="630" x2="630" y1="580" y2="600" /><circle cx="740" cy="600" fill="white" r="18" stroke="#111" stroke-width="1.4" /><text class="refdes" text-anchor="middle" x="740" y="574">Q1</text><text class="lbl-sm" text-anchor="middle" x="740" y="636">MMBT3904</text><line class="wire" x1="722" x2="734" y1="600" y2="600" /><line class="wire" x1="740" x2="740" y1="582" y2="570" /><line class="wire" x1="734" x2="746" y1="594" y2="588" /><line class="wire" x1="740" x2="740" y1="618" y2="630" /><line class="wire" x1="734" x2="746" y1="606" y2="612" /><polygon fill="#111" points="744,611 748,613 745,606" /><line class="wire" x1="740" x2="740" y1="630" y2="636" /><line class="wire" x1="730" x2="750" y1="636" y2="636" /><line class="wire" x1="734" x2="746" y1="640" y2="640" /><line class="wire" x1="737" x2="743" y1="644" y2="644" /><rect class="comp" height="28" width="50" x="755" y="526" /><text class="refdes" text-anchor="middle" x="780" y="544">K1 coil</text><text class="lbl-sm" text-anchor="middle" x="780" y="518">G5V-1</text><line class="wire" x1="680" x2="680" y1="530" y2="540" /><line class="wire" x1="680" x2="755" y1="540" y2="540" /><line class="wire" x1="805" x2="800" y1="540" y2="540" /><line class="wire" x1="800" x2="800" y1="540" y2="570" /><line class="wire" x1="800" x2="740" y1="570" y2="570" /><text class="refdes" text-anchor="end" x="770" y="472">D2</text><text class="lbl-sm" text-anchor="start" x="792" y="484">1N4148</text><line class="wire" x1="780" x2="780" y1="466" y2="473" /><polygon fill="white" points="773,473 787,473 780,485" stroke="#111" stroke-width="1.4" /><line class="wire" x1="772" x2="788" y1="485" y2="485" /><line class="wire" x1="780" x2="780" y1="485" y2="494" /><rect fill="white" height="36" width="24" x="768" y="462" /><line class="wire" x1="780" x2="780" y1="466" y2="473" /><line class="wire" x1="772" x2="788" y1="473" y2="473" /><polygon fill="white" points="773,485 787,485 780,473" stroke="#111" stroke-width="1.4" /><line class="wire" x1="780" x2="780" y1="485" y2="494" /><line class="wire" x1="780" x2="780" y1="466" y2="526" /><circle class="dot" cx="780" cy="526" r="3" /><line class="wire" x1="780" x2="780" y1="494" y2="554" /><line class="wire" x1="780" x2="805" y1="554" y2="554" /><line class="wire" x1="805" x2="805" y1="554" y2="540" /><circle class="dot" cx="805" cy="540" r="3" /><rect class="comp" height="60" width="30" x="1180" y="430" /><text class="refdes" text-anchor="middle" x="1195" y="460">J2
DOOR</text><text class="lbl bus" text-anchor="start" x="1220" y="442">→ Pin 1 (Door)</text><text class="lbl bus" text-anchor="start" x="1220" y="482">→ Pin 3 (Common)</text><circle cx="890" cy="620" fill="white" r="3" stroke="#111" stroke-width="1.4" /><circle cx="890" cy="660" fill="white" r="3" stroke="#111" stroke-width="1.4" /><line stroke="#111" stroke-width="1.4" x1="890" x2="906" y1="623" y2="634" /><line stroke="#888" stroke-dasharray="3 3" stroke-width="0.8" x1="780" x2="898" y1="554" y2="628" /><text class="lbl-sm" text-anchor="start" x="912" y="640">K1 contacts (NO)</text><line class="wire" x1="890" x2="920" y1="620" y2="620" /><line class="wire" x1="920" x2="920" y1="620" y2="442" /><line class="wire" x1="920" x2="1180" y1="442" y2="442" /><line class="wire" x1="890" x2="940" y1="660" y2="660" /><line class="wire" x1="940" x2="940" y1="660" y2="482" /><line class="wire" x1="940" x2="1180" y1="482" y2="482" /><text class="refdes" text-anchor="start" x="550" y="694">OPTIONAL P1 HOOK-SWITCH</text><text class="lbl-sm" text-anchor="start" x="550" y="708">(populate Q2/K2/D3 to enable; jumper JP1)</text><rect fill="#fafafa" height="80" stroke="#bbb" stroke-dasharray="4 3" stroke-width="0.8" width="680" x="540" y="682" /><text class="lbl-sm" text-anchor="start" x="600" y="720">Mirror of Q1/K1/D2 above — drives J3 alligator-clip leads to P1 contacts</text><text class="refdes" text-anchor="middle" x="1010" y="346">LED1 'RING'</text><text class="lbl-sm" text-anchor="middle" x="1010" y="390">5mm red</text><line class="wire" x1="1010" x2="1010" y1="346" y2="353" /><polygon fill="white" points="1003,353 1017,353 1010,365" stroke="#111" stroke-width="1.4" /><line class="wire" x1="1002" x2="1018" y1="365" y2="365" /><line class="wire" x1="1010" x2="1010" y1="365" y2="374" /><rect class="comp" height="14" width="40" x="990.0" y="303.0" /><line class="wire" x1="1010" x2="1010" y1="295.0" y2="303.0" /><line class="wire" x1="1010" x2="1010" y1="317.0" y2="325.0" /><text class="refdes" text-anchor="start" x="1028" y="306">R7</text><text class="lbl-sm" text-anchor="start" x="1028" y="322">1kΩ</text><line class="wire" x1="1010" x2="1010" y1="338" y2="346" /><line class="wire" x1="1010" x2="1010" y1="282" y2="270" /><line class="wire" x1="1010" x2="920" y1="270" y2="270" /><circle class="dot" cx="920" cy="270" r="3" /><line class="wire" x1="1010" x2="1010" y1="374" y2="396" /><line class="wire" x1="1010" x2="1010" y1="396" y2="402" /><line class="wire" x1="1000" x2="1020" y1="402" y2="402" /><line class="wire" x1="1004" x2="1016" y1="406" y2="406" /><line class="wire" x1="1007" x2="1013" y1="410" y2="410" /><text class="lbl-sm" text-anchor="start" x="40" y="770">Notes: Logic &amp; bus share GND (functional isolation only via opto + dry-contact relay). Self-powered from ring pulse — verify bulk cap holds 5V for full 1.5s door pulse on noisy bus before deploy.</text><text class="lbl-sm" text-anchor="start" x="40" y="786">Designer: Background agent (Claude Opus 4.7) · Issue 03573032 → DIY sub-issue · 2026-04-18 · KiCad 8.x project at /static/fermax-adapter/diy/kicad/</text></svg>